<?xml version="1.0" encoding="UTF-8"?>
<!DOCTYPE svg PUBLIC "-//W3C//DTD SVG 1.1//EN" "http://www.w3.org/Graphics/SVG/1.1/DTD/svg11.dtd">
<!-- Creator: CorelDRAW -->
<svg xmlns="http://www.w3.org/2000/svg" xml:space="preserve" width="46.9999mm" height="61.8169mm" version="1.1" style="shape-rendering:geometricPrecision; text-rendering:geometricPrecision; image-rendering:optimizeQuality; fill-rule:evenodd; clip-rule:evenodd"
viewBox="0 0 94.42 124.18"
 xmlns:xlink="http://www.w3.org/1999/xlink"
 xmlns:xodm="http://www.corel.com/coreldraw/odm/2003">
 <defs>
  <style type="text/css">
   <![CDATA[
    .fil2 {fill:#FEFEFE;fill-rule:nonzero}
    .fil3 {fill:#FFF239;fill-rule:nonzero}
    .fil1 {fill:black;fill-rule:nonzero}
    .fil0 {fill:white;fill-rule:nonzero}
   ]]>
  </style>
 </defs>
 <g id="Camada_x0020_1">
  <metadata id="CorelCorpID_0Corel-Layer"/>
  <g id="_2535400683680">
   <path class="fil0" d="M94.42 0l-3.11 0 -88.19 0 -3.11 0 0 3.11 0 58.8c0,8.93 2.46,17.76 7.3,26.23 3.82,6.68 9.12,13.15 15.76,19.24 11.22,10.28 22.29,15.87 22.76,16.11l1.39 0.7 1.39 -0.7c0.47,-0.23 11.54,-5.82 22.76,-16.11 6.64,-6.09 11.94,-12.56 15.76,-19.24 4.84,-8.48 7.3,-17.3 7.3,-26.23l0 -58.8 0 -3.11z"/>
   <path class="fil0" d="M4.32 4.91l0 57.18c0,35.74 42.89,57.18 42.89,57.18 0,0 42.89,-21.44 42.89,-57.18l0 -57.18 -85.77 0zm83.96 1.82l0 21.52 -82.14 0.14 0 -21.67 82.14 0zm-6.44 78.43c-3.45,6.05 -8.28,11.95 -14.35,17.53 -8.75,8.03 -17.61,13.09 -20.28,14.54 -2.68,-1.45 -11.54,-6.5 -20.28,-14.54 -6.07,-5.58 -10.9,-11.47 -14.35,-17.52 -4.27,-7.49 -6.44,-15.25 -6.44,-23.07l0 -31.9 82.14 -0.14 0 32.04c0,7.82 -2.17,15.58 -6.44,23.07z"/>
   <path class="fil1" d="M90.64 4.97l-2.86 0 -81.13 0 -2.86 0 0 2.86 0 54.09c0,8.21 2.26,16.33 6.71,24.13 3.51,6.14 8.39,12.1 14.5,17.7 10.32,9.46 20.51,14.6 20.94,14.82l1.28 0.64 1.28 -0.64c0.43,-0.21 10.62,-5.36 20.94,-14.82 6.11,-5.6 10.98,-11.55 14.49,-17.7 4.46,-7.8 6.72,-15.92 6.72,-24.13l0 -54.09 0 -2.86z"/>
   <polygon class="fil0" points="6.14,6.73 6.14,28.39 88.28,28.25 88.28,6.73 "/>
   <path class="fil1" d="M19.22 17.6c0.86,-0.59 1.22,-1.47 1.22,-2.9 0,-1.51 -0.68,-3.3 -3.92,-3.3l-4.76 0 0 12.78 4.94 0c2.71,0 4.08,-1.24 4.08,-3.69 0,-1.46 -0.47,-2.35 -1.56,-2.89zm-5.3 -4.15l2.53 0c1.26,0 1.78,0.44 1.78,1.51 0,1.22 -0.52,1.76 -1.69,1.76l-2.62 0 0 -3.28zm2.71 8.68l-2.71 0 0 -3.38 2.65 0c1.33,0 1.98,0.53 1.98,1.62 0,1.24 -0.58,1.76 -1.92,1.76z"/>
   <path class="fil1" d="M29.73 19.17c1.38,-0.64 2.02,-1.82 2.02,-3.69 0,-2.78 -1.35,-4.08 -4.26,-4.08l-4.83 0 0 12.78 2.18 0 0 -4.44 2.73 0 1.97 4.44 2.4 0 -2.22 -5.01zm-2.22 -1.52l-2.67 0 0 -4.17 2.65 0c1.4,0 2.03,0.63 2.03,2.03 0,1.48 -0.62,2.14 -2.01,2.14z"/>
   <path class="fil1" d="M39.77 11.4l-3.89 0 -3.28 12.78 2.19 0 0.76 -2.77 4.45 0 0.8 2.75 2.2 0 -3.24 -12.77zm-3.72 7.91l1.5 -5.85 0.52 0 1.47 5.85 -3.49 0z"/>
   <path class="fil1" d="M47.85 24.36c-1.34,0 -3.69,-0.4 -3.79,-0.41l-0.21 -0.04 0.23 -2.01 0.23 0.03c0.02,0 2.29,0.3 3.52,0.3 1.55,0 2.15,-0.5 2.15,-1.78 0,-0.99 -0.44,-1.32 -2.37,-1.77 -2.64,-0.61 -3.98,-1.37 -3.98,-3.85 0,-2.36 1.56,-3.66 4.38,-3.66 1.37,0 3.61,0.4 3.7,0.41l0.21 0.04 -0.18 2 -0.23 -0.03c-0.02,-0 -2.48,-0.3 -3.49,-0.3 -1.94,0 -2.19,0.8 -2.19,1.5 0,1.12 0.54,1.37 2.65,1.89 2.54,0.67 3.67,1.36 3.67,3.7 0,2.59 -1.49,3.96 -4.31,3.96z"/>
   <polygon class="fil1" points="56,24.18 53.82,24.18 53.82,11.4 56,11.4 "/>
   <polygon class="fil1" points="65.7,24.18 58.44,24.18 58.44,11.4 60.62,11.4 60.62,22.08 65.7,22.08 "/>
   <path class="fil2" d="M15.89 48.4c-3.98,0 -4.78,-2.51 -4.78,-6.57 0,-4.08 0.8,-6.6 4.78,-6.6 1.59,0 3.41,0.43 3.48,0.45l0.18 0.04 -0.07 1.99 -0.25 -0.04c-0.02,-0 -2,-0.3 -3.13,-0.3 -2.15,0 -2.74,0.96 -2.74,4.46 0,3.12 0.39,4.43 2.78,4.43 1.02,0 3.07,-0.3 3.09,-0.3l0.25 -0.04 0.07 2.01 -0.19 0.04c-0.08,0.02 -2.06,0.43 -3.48,0.43z"/>
   <path class="fil2" d="M28.72 41.62c0.86,-0.59 1.22,-1.47 1.22,-2.9 0,-1.51 -0.68,-3.3 -3.92,-3.3l-4.76 0 0 12.78 4.94 0c2.71,0 4.08,-1.24 4.08,-3.69 0,-1.46 -0.47,-2.35 -1.56,-2.89zm-5.3 -4.15l2.53 0c1.26,0 1.78,0.44 1.78,1.51 0,1.22 -0.52,1.76 -1.69,1.76l-2.62 0 0 -3.28zm2.7 8.68l-2.7 0 0 -3.38 2.65 0c1.33,0 1.98,0.53 1.98,1.62 0,1.24 -0.58,1.76 -1.92,1.76z"/>
   <path class="fil2" d="M39.23 43.2c1.38,-0.64 2.02,-1.82 2.02,-3.69 0,-2.78 -1.35,-4.08 -4.26,-4.08l-4.83 0 0 12.78 2.18 0 0 -4.44 2.73 0 1.97 4.44 2.4 0 -2.22 -5.01zm-2.22 -1.52l-2.67 0 0 -4.17 2.65 0c1.4,0 2.03,0.63 2.03,2.03 0,1.48 -0.62,2.14 -2.01,2.14z"/>
   <path class="fil1" d="M88.23 48.21l-24.27 27.96c-0.38,0.24 -0.9,0.6 -1.64,1.09 -17.47,11.68 -25.65,19.55 -33.75,26.9 0.61,0.53 1.15,0.98 1.75,1.49 0.39,-0.42 0.54,-0.53 0.54,-0.53 0,0 13.77,-12.79 28.54,-22.95l-2.84 5.67 0.63 0.66 8.44 -10.49 22.6 -26.32 0 -3.47z"/>
   <path class="fil1" d="M41.96 56.49c-17.63,11.79 -23.29,17.41 -31.4,24.76 0.33,0.7 0.67,1.39 1.03,2.09 7.58,-6.86 12.7,-11.8 27.44,-21.94l-2.84 5.67 0.63 0.66 8.44 -10.49 42.85 -50.42 -2.91 0 -41.61 48.58c-0.37,0.25 -0.9,0.6 -1.64,1.09z"/>
   <path class="fil0" d="M19.11 93.55c7.62,-6.9 13.86,-13.03 28.73,-23.27 -0.84,-2.35 -0.9,-4.41 -0.94,-6.98l-8.11 6.46 -0.55 -0.56 11.47 -11.4 38.54 -44.97 0.01 -6.16 -43.01 50.57 -8.44 10.49 -0.63 -0.66 2.84 -5.67c-11.05,7.6 -17.29,12.83 -22.92,17.86 -0.02,0.01 -0.03,0.03 -0.05,0.04 -0.21,0.19 -0.43,0.38 -0.64,0.57 -0.03,0.02 -0.06,0.05 -0.08,0.08 -0.21,0.19 -0.42,0.38 -0.64,0.57 -0.02,0.02 -0.04,0.03 -0.05,0.05 -0.21,0.19 -0.43,0.39 -0.64,0.58 -0.03,0.02 -0.05,0.05 -0.08,0.07 -0.99,0.9 -1.46,1.32 -2.35,2.12 0.32,0.61 0.64,1.21 0.99,1.81 2.35,4.11 3.11,5.64 6.11,8.91 0.08,-0.16 0.22,-0.33 0.43,-0.52z"/>
   <path class="fil3" d="M20.42 95.39c-0.1,0.09 -0.18,0.17 -0.24,0.25 0.03,-0.02 0.14,-0.13 0.32,-0.32 -0.02,0.02 -0.05,0.05 -0.07,0.07z"/>
   <path class="fil0" d="M87.85 30.05l-18.16 21.32 -14.49 16.91 -8.44 10.49 -0.63 -0.66 2.84 -5.67c-11.05,7.6 -17.29,12.83 -22.92,17.86 -0.02,0.01 -0.03,0.03 -0.05,0.04 -0.21,0.19 -0.43,0.38 -0.64,0.57 -0.03,0.02 -0.06,0.05 -0.08,0.08 -0.21,0.19 -0.42,0.38 -0.64,0.57 -0.02,0.02 -0.04,0.03 -0.05,0.05 -0.21,0.19 -0.43,0.39 -0.64,0.58 -0.03,0.02 -0.05,0.05 -0.08,0.07 -1.14,1.03 -2.27,2.07 -3.44,3.12 -0.1,0.09 -0.18,0.17 -0.25,0.25 -0.02,0.02 -0.03,0.04 -0.04,0.06 2.06,2.37 4.31,4.7 6.79,6.98 2.51,2.31 0.74,0.95 3.13,2.75 0,0 0,-0 0.01,-0 -0.49,-0.42 -0.99,-0.83 -1.49,-1.27 7.31,-6.63 14.67,-13.68 28.85,-23.56 -0,-0 -0,-0.01 -0,-0.01 -0.41,-2.29 -0.56,-4.5 -0.59,-6.25l-8.11 6.46 -0.55 -0.56 11.47 -11.4 28.63 -33.07 0 -5.73 -0.43 0z"/>
   <path class="fil1" d="M48.96 72.45l-2.84 5.67 0.63 0.66 8.44 -10.49 33.09 -38.73 0 -3.35 -34.76 40.25c-0.38,0.24 -0.9,0.6 -1.64,1.09 -17.85,11.93 -24.49,18.52 -32.77,26.02 -0.19,0.17 -0.32,0.33 -0.4,0.48 0.46,0.56 0.94,1.12 1.42,1.67 0.08,-0.1 0.17,-0.2 0.29,-0.31 7.6,-6.88 13.77,-12.79 28.54,-22.94z"/>
   <path class="fil0" d="M59.17 90.52l-0.55 -0.56 11.47 -11.4 18.14 -20.68 0 -6.2 -8.11 9.41 -14.49 16.91 -8.44 10.49 -0.63 -0.66 2.84 -5.67c-11.05,7.6 -17.29,12.82 -22.92,17.86 -0.02,0.01 -0.03,0.03 -0.05,0.04 -0.21,0.19 -0.43,0.38 -0.64,0.57 -0.03,0.02 -0.06,0.05 -0.08,0.08 -0.21,0.19 -0.42,0.38 -0.63,0.57 -0.02,0.02 -0.04,0.03 -0.05,0.05 -0.21,0.19 -0.43,0.39 -0.64,0.58 -0.03,0.02 -0.05,0.05 -0.08,0.07 -1.1,1 -2.85,2.57 -4.02,3.63 7.56,6.33 14.59,10.34 16.93,11.6 2.68,-1.44 11.54,-6.5 20.28,-14.54 1.27,-1.17 2.47,-2.35 3.64,-3.55 -2.71,-4.34 -3.8,-11.24 -3.85,-15.07l-8.11 6.46z"/>
  </g>
 </g>
</svg>
