<?xml version="1.0" encoding="UTF-8"?>
<!DOCTYPE svg PUBLIC "-//W3C//DTD SVG 1.1//EN" "http://www.w3.org/Graphics/SVG/1.1/DTD/svg11.dtd">
<!-- Creator: CorelDRAW -->
<svg xmlns="http://www.w3.org/2000/svg" xml:space="preserve" width="210.762mm" height="99.0792mm" version="1.1" style="shape-rendering:geometricPrecision; text-rendering:geometricPrecision; image-rendering:optimizeQuality; fill-rule:evenodd; clip-rule:evenodd"
viewBox="0 0 4570.64 2148.66"
 xmlns:xlink="http://www.w3.org/1999/xlink"
 xmlns:xodm="http://www.corel.com/coreldraw/odm/2003">
 <defs>
  <style type="text/css">
   <![CDATA[
    .fil0 {fill:white}
   ]]>
  </style>
 </defs>
 <g id="Camada_x0020_1">
  <metadata id="CorelCorpID_0Corel-Layer"/>
  <path class="fil0" d="M3786.16 99.04c-15.49,-3.26 -38.87,4.13 -53.77,5.16 -9.89,0.69 -18.24,1.57 -27.51,1.82 -19.71,0.52 -23.89,4.43 -55.22,5.92 -10.44,0.49 -14.58,2.64 -27.46,2.96 -12.09,0.3 -32.16,4.72 -55.04,5.79 -20.44,0.95 -34.59,4.92 -55.15,5.67 -28.82,1.05 -62.7,9.57 -78.82,9.85 -16.2,0.28 -43.27,0.24 -58.6,4.36 -16.58,4.45 -46.88,2.07 -56.41,4.26 -9.51,2.19 -9.31,5.94 -23.03,7 -18.49,1.43 -41.35,0.45 -60.34,0.68 -20.6,0.24 -36.48,4.86 -55.04,5.67 -21.21,0.92 -39.75,0.95 -60.71,2.12 -9.11,0.51 -15.95,3.03 -24.76,4.32l-89.05 3.26c-19.2,0.42 -34,4.34 -55.06,5.38l-174.39 9.28c-19.96,0.22 -36.93,3.94 -54.02,6.02 -21.39,2.59 -89.92,2.66 -116.79,4 -39.04,1.95 -71.72,5.46 -115.62,5.66l-90.08 1.91c-11.21,0.58 -14.46,3.43 -27.34,3.52 -21.57,0.15 -37.92,1.68 -58.84,1.76 -41.01,0.16 -82.01,0.31 -123.02,0.44 -35.81,0.11 -86.64,-2.5 -120.6,1.1l-118.08 4.3c-80.78,-0.13 -161.6,0.24 -242.39,0.19 -35.8,-0.02 -86.74,2.84 -120.73,-0.44 -24.2,-2.34 -213.08,-5.02 -239.15,-5.09 -114.15,-0.34 -239.34,-9.19 -356.17,-10.4 -47.68,-0.49 -75.22,-4.96 -115.71,-5.37 -25.19,-0.25 -98.63,0.16 -118.69,-2.99 -9.38,-1.47 -12.93,-2.79 -26.39,-2.95 -26.34,-0.31 -94.13,-7.28 -114.6,-0.24 -32.57,11.21 -53.67,26.11 -73.33,53.37 -8.68,12.03 -4.16,4.81 -6.89,20.4 -2.82,16.14 -10.11,21.36 -0.63,50.88 4.17,13.01 -1.89,6.69 10.23,34.05l11.85 22.79c0.24,0.32 0.55,0.77 0.78,1.1l56.2 75.91 81.89 70.9c3.98,1.8 4.13,1.89 8.06,4.01l109.35 72.85c16.03,11.34 74.79,42.95 93.6,50.16 8.69,3.33 -2.87,-0.16 14.83,8.56 5.31,2.62 10.74,7.85 12.3,13 -13.14,6.58 -65.69,3.47 -89.7,4.59 -11.3,0.53 -17.65,3.17 -26.84,4.72 -12.7,2.14 -137.43,2 -169.78,3.08l-14.49 2.27c-13.91,3.55 -43.34,2.91 -59.38,4.1 -40.73,3.01 -85.24,-1.81 -126.42,1.56l10.81 7.85c3.31,2.52 2.7,1.83 5.6,3.71l41.08 29.01c8.28,3.53 2.6,-1.23 10.47,5.51l37.48 25.12c3.34,1.78 3.09,1.13 6.07,3.12l85.54 46.42c15.1,8.43 43.05,18.64 54.6,24.48 7.93,4.01 10.35,1.68 17.08,3.9 5.01,1.65 2.27,1.6 6.28,4.04 10.01,6.07 11.76,0.34 21.57,7.44 7.89,5.7 6.94,2.26 14.85,5.65 26.37,11.29 18.21,0.82 29.86,8.7 12.33,8.33 18.4,0.32 31.76,8.52 6.37,3.91 2.06,2.33 17.31,3.73 24.82,2.27 2.47,5.37 52.48,8.39 16.69,1.01 5.01,5.8 31.04,6.58 55.69,1.66 144.43,3.12 196.16,-5.22 11.67,-1.88 25.57,-1.03 36.73,-2.9 43.57,-7.28 31.21,-4.42 71.68,-8.46 12.41,-1.24 20.95,-4.7 33.62,-5.82 46.78,-4.11 95.94,-12.23 143.09,-17.05 21.64,-2.21 35.46,-13.51 66.01,3.65 0.53,0.3 1.21,0.67 1.75,1.1l-0.7 -1.41 82.87 19.2c12.28,2.97 19.15,0.84 30.11,5.48 9.86,4.17 16.72,3.28 27.4,5.46 12.49,2.55 12.8,5.17 29.28,6.25 15.76,1.04 15.95,5.68 27.49,7.04 12.41,1.46 23.15,-2.62 26.41,7.18 -3.44,2.9 -6.3,3.1 -11.31,5.56 -22.7,11.15 -33.99,1.09 -48.88,10.08 -9.18,5.54 -21.31,2.91 -34.25,3.87 -20.44,1.52 0.26,6.19 -32.87,7.12 -28.73,0.81 -44.95,5.79 -71.41,8.1 -12.26,1.07 -16.63,4.9 -31.04,6.38 -10.8,1.11 -26.19,1.01 -37.27,3.62l-99.56 15.08c-23.49,10.11 -46.05,0.74 -69.19,9.63 -15.33,5.88 -42.81,1.72 -54.67,4.48 -5.7,1.33 -7.98,4.44 -13.74,5.35 -11.8,1.87 -29.15,-2.2 -38.16,3.35 4.61,2.55 7.66,2.08 13.26,3.19l37.07 12.6c6.35,3.96 4.38,1.2 12.22,3.24 8.65,2.26 3.76,3.54 11.34,4.97 20.64,3.89 16.34,-1.39 27.14,10.56 13.75,-0.76 18.09,5.35 30.88,7.62l32.68 7.82c6.22,1.02 12.38,0.91 17.7,2.85 8.45,3.08 3.31,2.91 15.7,4.38 4.63,0.55 12.73,1.16 17.93,2.36 7.33,1.68 7.69,3.58 15.55,4.46 73.34,8.21 61.73,11.8 152.36,8.93 11.55,-0.36 25.62,-1.32 38.57,-2.07 11.59,-0.68 19.95,-4.99 32.35,-6.9l16.22 -4.02c12.11,-3.08 23.15,-2.86 35.59,-4.87 6.05,-0.98 10.27,-2.97 16.84,-3.76 12.85,-1.56 25.07,-0.52 34.93,-5.48 11.89,-5.98 50.9,-10.08 65.1,-15.22 16.07,-5.82 22,-1.8 37.07,-5.54 5.31,-1.32 6.96,-3.55 15.32,-4.72 18.51,-2.58 32.78,-7.79 51.37,-9.32l100 -21.42c7.03,-1.08 10.92,-0.78 16.91,-3.09l47.01 -12.96c11.53,-1.72 29.48,-0.54 38.58,2.31 14.86,4.65 18.21,3.67 36.1,4.63 28.09,1.5 44.54,7.06 73.48,7.49l36.43 3.53c34.8,6.4 67.48,1.31 112.41,9.22 10.8,1.9 30.38,6.29 39.74,-0.79 -4,-6.02 -10.44,-4.52 -18.85,-8.28 -8.8,-3.94 -14.58,-1.79 -23.05,-4.73 -9.11,-3.16 -7.48,-4.62 -20.03,-5.91l-124.13 -36.54c-16.87,-5.64 -45.71,-9.14 -65.42,-15.79 -32.82,-11.08 -71.46,-20.14 -104.78,-29.17 -8.62,-2.34 -14.1,-2.4 -22.37,-5.18l-103.28 -30.65c-10.91,-4.46 -11.46,-2.58 -23.43,-4.86 -11.3,-2.16 -6.16,-4.27 -18.54,-6.96 -8.14,-1.77 -12.6,-5.23 -19.84,-7.28 -12.47,-3.54 -9.15,-0.18 -19.79,-5.92 -9.86,-5.31 -17.02,-2.38 -25.94,-7.15 -18.59,-9.93 -53.13,-16.98 -64.78,-23.21 -6.34,-3.39 -3.92,-1.49 -11.1,-3.63 -10.86,-3.24 -28.18,-11.71 -39.3,-13.99l-77.24 -29.14c-12.13,-6.79 -27.17,-9.63 -39.71,-15.44l-26.98 -11.47c-12.3,-5.73 10.87,6.5 -4.5,-2.85 -5.52,-3.36 -9.8,-2.43 -15.39,-4.9 -4.32,-1.91 -2.28,-2.42 -7.99,-4.65 -4.14,-1.61 -6.04,-1.28 -10.01,-3.01 -4.06,-1.77 -4.58,-3.13 -9.51,-5.06l-74.58 -33.83c-4.55,-2.45 -2.8,-2.82 -7.6,-4.97 -4.35,-1.95 -5.7,-1.36 -9.74,-3.32 -13.85,-6.71 -30.78,-15.89 -45.46,-20.78l-55.16 -25.77c-6.52,-4.16 -11.95,-3.08 -30.89,-16.83 -2.36,-1.72 -2.57,-1.54 -4.63,-2.82 -8.56,-5.3 -16.44,-4.63 -22.49,-10.24l-15.62 -10.3c-9.03,-6.14 -17.34,-8.39 -25.39,-14.86 -7.06,-5.67 -14.41,-7.38 -21.67,-11.77l-5.81 -3.51c-0.39,-0.2 -0.89,-0.39 -1.28,-0.58l-23.28 -14.75c-0.31,-0.27 -0.74,-0.61 -1.06,-0.87 -4.01,-3.29 -6.61,-2.98 -6.06,-9.52 17.21,-2.22 34.89,-1.06 49.84,-5.17 21.18,-5.81 53.54,-1.31 75.56,-6.81 8.2,-2.05 15.59,-1.42 25.73,-1.82 25.81,-1.02 53.75,-0.78 80.08,-4.63 9.9,-1.45 12.71,-3.84 22.58,-4.16 26.51,-0.84 53.69,-1.06 79.16,-3.88 10.32,-1.14 12.51,-3.23 23.65,-3.47 35.03,-0.74 73.13,-1.1 106.83,-5.63 16.48,-2.21 34.54,-2.08 53,-2.34 36.66,-0.52 66.47,-7.97 102.74,-8.35 36.76,-0.38 73.9,-1.7 108.39,-3.14 18.57,-0.77 31.28,-3.37 51.43,-3.65 19.62,-0.27 36.93,-1.68 55.14,-1.96l49.79 -4.94c16.75,-1.81 34.77,-1.82 53,-2.03l156.03 -11c14.49,-3.76 36.29,-2.28 53.26,-2.5 15.18,-0.2 39.39,-0.51 51.67,-3 32.85,-6.68 69.47,-4.01 104.12,-7.92 8.7,-0.98 12.52,-3.05 24.09,-3.34 52.7,-1.34 103.39,-9.77 156.15,-11.16 11.82,-0.31 14.98,-2.42 23.99,-3.47 17.34,-2.02 36.33,-0.88 52.64,-4 33.93,-6.5 62.27,-1.48 114.52,-10.95 13.04,-2.36 26.5,-1.34 39.47,-2.8 16.35,-1.84 30.86,-6.4 48.4,-6.79 14.86,-0.33 41.25,2.38 52.47,-2.36 9.3,-3.93 9.06,-5.05 22.79,-5.23 55.85,-0.74 29.37,-1.19 48.7,-7.26 7.59,-2.38 18.04,-0.98 26.61,-1.52l95.44 -14.46c13.32,-0.49 27.23,-0.34 39.67,-4.33l34.03 -5.94c10.43,-1.29 12.95,-2.94 23.36,-4.31l46.22 -8.25c11.88,-0.77 25.84,-0.41 37.58,-3.44 21.84,-5.63 9.93,-3.52 35.81,-6.07 10.46,-1.03 14.4,-4.94 22.72,-6.3 19.34,-3.16 30.87,-0.44 49.96,-5.92 9.62,-2.76 13.7,-1.95 24.6,-2.99 9.62,-0.92 13.48,-4.15 22.21,-5.28 22.4,-2.9 20.31,-4.24 33.32,-6.76 12.25,-2.37 25.18,-1.78 37.68,-4.89l47.36 -9.57c9.62,-1.82 14.31,-2.24 24.62,-3.27 9.62,-0.95 11.64,-3.99 21.43,-5.92 7.29,-1.44 17.76,-0.68 24.31,-3.17 16.95,-6.45 32.15,-4.89 44.89,-10.1 7.56,-3.09 15.68,-3.09 23.6,-4.18 13.78,-1.91 9.49,-4.74 23.46,-6.1 12.03,-1.17 12.66,-2.02 21.79,-5.25 6.41,-2.27 16.13,-3.22 22.89,-4.62 7.89,-1.63 13.54,-4.11 21.3,-6.07l44.91 -10.18c7.98,-3.25 11.65,-4.45 21.66,-5.66 13.36,-1.61 21.95,-6.2 34.79,-7.68 14.56,-1.68 9.44,-4.75 34.67,-7.81 8.4,-1.02 13.47,-5.19 20.78,-6.56 23.39,-4.38 84.75,-21.88 108.5,-29.14 8.44,-2.58 18.14,-1.81 25.25,-4.49 13.82,-5.22 22.56,-3.68 31.56,-8.71 4.86,-2.71 4.56,-2.62 10.48,-4.23 7.21,-1.97 15.14,-5.32 20.69,-6.74 15.49,-3.94 29.82,-6.9 44.42,-12.62 7.84,-3.08 13.32,-3.53 20.59,-6.74 10.52,-4.64 21.31,-5.31 32.64,-9.83 4.02,-1.6 7.66,-2.52 9.97,-3.08 2.06,-3.42 2.5,-4.8 7.12,-7.08 3.76,-1.85 5.1,-1.18 9.78,-2.29 12.16,-2.87 1.21,0.14 9.39,-4.12 11,-5.73 10.23,0.74 24.19,-7.17 7.14,-4.05 7.1,-1.8 14.17,-3.7 10,-2.69 2.63,-0.89 7.54,-4.03 7.48,-4.79 12.93,-1.18 20.39,-5.32 4.79,-2.66 0.24,-2.84 7.38,-4.63 3.19,-0.8 6.62,-0.4 10.12,-1.22 13.1,-3.06 0.96,-4.52 16.59,-7 9.84,-1.56 11.14,0.59 14.93,-8.02 15.84,-0.43 13.93,0.93 21.7,-3.78 8.7,-5.27 10.99,-2.2 17.83,-6.2 4.11,-2.41 0.78,-3.34 6.98,-4.78 3.03,-0.71 6.92,-0.24 10.43,-0.93 11.8,-2.32 3.54,-5.34 16.53,-7.07 14.8,-1.97 9.71,-2.18 19.18,-5.87 9.74,-3.81 7.7,-0.25 17.05,-6.52 5.85,-3.92 1.59,-1.3 8.97,-3.44 1.49,-0.43 2.83,-0.77 4.31,-1.44l2.41 -1.39c0.34,-0.2 0.75,-0.55 1.08,-0.75 8.62,-5.08 11.4,-1.79 17.75,-7.96 -8.97,-0.38 -19.66,-1.16 -26.96,2.08l-3.45 1.95c-6.59,3.35 -11.19,2.81 -18.24,2.99 -47.14,1.17 -26.68,3.93 -48.92,6.81 -9.03,1.17 -17.61,0.62 -26.43,1.52 -16.97,1.75 0.2,5.34 -47.81,7.33 -19.33,0.8 -11.58,3.03 -21.23,5.58 -19.34,5.11 -34.31,-1.29 -49.54,5.93 -14.46,6.86 -32.45,1.88 -50.37,4.68 -10.1,1.58 -8.29,4.7 -21.9,5.49 -9.01,0.52 -18.04,0.82 -27.06,1.48 -19.33,1.42 -28.75,5.87 -48.3,6.95 -18.96,1.05 -33.02,2.1 -49.46,5.85l-99.08 11.5c-8.39,1.07 -11.63,3.82 -21.07,5.09 -26.38,3.54 -11.78,-1.79 -49.15,5.95 -8.24,1.71 -16.13,2.01 -25.49,2.38l-98.23 11.55c-13.04,3.01 -37.07,5.1 -51.79,3.55z"/>
  <path class="fil0" d="M1648.31 1174.32c0.82,39.9 -4.83,22.07 -7.91,41.59 -3.84,24.33 -7.18,24.1 -8.5,44.72 -0.67,10.53 -1.94,13.18 -4.39,21.56 -2.54,8.68 -2.1,13.69 -3.79,23.82 -1.44,8.66 -5.05,10.53 -6.17,19.06 -1.42,10.78 -0.07,14.58 -3.4,24.48 -4.71,14.01 -5.54,29.02 -10.06,43.06 -2.5,7.75 -2.35,25 -4.91,34.07 -6.75,23.89 -3.1,27.21 -5.75,34.76 -1.15,3.27 -9.13,14.11 -13.32,39 -1.69,10.04 -2.28,13.9 -4.67,22.68 -3.69,13.54 -3.05,31.82 -7.15,45.04 -4.88,15.74 -4.71,22.95 -9.96,43.29 -2.23,8.61 -1.07,15.46 -2.75,23.26 -1.55,7.22 -4.03,2.4 -6.43,20.89 -1.84,14.17 -4.66,15.8 -8.56,44.81 -1.51,11.24 -1.74,11.52 -5.27,20.16 -4.95,12.11 1.15,5.18 -6.33,20.84 -2.94,6.17 -2.76,13.33 -3.89,21.73 -2.08,15.55 -4.38,9.6 -6.91,20.27 -1.84,7.77 -0.55,16.01 -2.09,24.06 -1.49,7.8 -4.4,10.89 -5.94,21.41 -0.62,4.25 -0.73,7.61 -1.88,11.14 -2.13,6.51 -2.28,3.3 -4.32,8.25 -2.82,6.84 -1.67,18.48 -2.78,24.55 -0.05,7.02 -3.22,10.27 -4.44,15.29 -1.2,4.97 -1.59,14.66 -2.07,18.04 -2.18,15.15 -2.37,10.21 -4.57,16.28l-22.11 102.61c-1.97,5.45 -2.48,11.43 -3.1,16.57l-18.39 85.4c-3.06,7.9 -3.41,6.37 -2.26,17.21 24.42,3.91 64.23,-0.67 88.49,-0.85l64.3 -3.89c12.43,-1.06 8.3,-2.61 17.64,-5.38 13.55,-4.01 11.87,2.01 27.15,-6.21 10.68,-5.74 4.2,1.34 15.82,-7.83 6.04,-4.77 4.22,-1.44 10.69,-6.04l7.06 -5.67c0.3,-0.26 0.72,-0.62 1.01,-0.89l8.26 -6.09c10.31,-5.21 26.76,-27.75 31.11,-39.2 3.23,-8.5 1.53,-2.89 4.48,-8.18 3.95,-7.07 0.93,-6.24 6.56,-15.47l11.5 -34.45c2.3,-17.91 7.87,-35.85 13.3,-56.28 1.77,-6.66 1.91,-12.58 3.61,-20.2 1.15,-5.13 4.42,-11.54 5.93,-17.42l12.22 -56.08c3.79,-9.82 3.18,-4.65 4.18,-18.7l17.74 -77.18c13.39,-8.34 87.71,-3.81 110.17,-3.81 37.94,0 75.9,0.12 113.84,-0.03 13.64,-0.05 71.44,-2.34 81.72,3.07 5.84,3.07 70.23,61.54 74.34,72.07 8.97,7.12 18.54,14.86 25.47,24.22 0.23,0.31 0.52,0.78 0.75,1.1l3.33 4.18c15.42,17.35 7.74,8.77 22.36,21.79 3.18,2.83 0.12,0.22 3.49,3.76 13.46,14.16 25.69,33.28 39.86,46.5l22.81 24.56c7.12,10.49 13.93,15 19.19,23.17 5.43,8.45 3.99,4.98 7.86,8.87 0.89,0.9 2.14,2.43 3.39,3.89l1.72 1.98c0.25,0.29 0.62,0.69 0.87,0.98l8.18 10.19c5.39,6.4 9.93,9.6 15.5,15.72 4.73,5.21 8.14,11.48 12.87,16.56 2.96,3.17 4.17,3.89 7.34,7.27l23 24.77c5.36,5.34 9.59,10.53 15.55,15.67l28.86 22.56c4.39,3.34 -1.24,0.51 5.62,3.08l32.54 12.01c4.43,2.04 8.27,2.35 13.05,3.46 6.58,1.52 17.15,5.52 22.73,6.47 9.31,1.59 19.29,1.53 28.96,2.53 28.77,2.98 12.24,5.04 57.02,5.61 80.8,1.02 158.29,5.79 240.71,5.32 -3.69,-14.73 -14.82,-21.07 -25.64,-33.44 -7.02,-8.02 -9.32,-6.92 -15.13,-12.4 -7.5,-7.06 -13.06,-15.01 -20.33,-21.89l-64.95 -65.38c-31.92,-36.48 -22.5,-21.81 -43.3,-43.01l-55.26 -58.66c-0.26,-0.3 -0.59,-0.73 -0.85,-1.03l-6.15 -6.46c-18.16,-15.58 -8.76,-11.96 -32.79,-31.49l-56.68 -59.02c-0.3,-0.25 -0.71,-0.59 -1.01,-0.84 -0.3,-0.25 -0.71,-0.59 -1,-0.84 -6.05,-5.27 -12.25,-13.56 -18.62,-14.54l-6.63 -0.66c-2.18,-5.65 -23.56,-27.08 -30.88,-30.5 -2.32,-16.07 0.16,-16.14 15.38,-15.96 10.44,0.12 20.88,0.08 31.32,0.08 78.61,0 180.03,1.91 255.22,-0.7 48.84,-1.7 25.05,-5.22 40.8,-7.57 4.5,-0.67 10.03,0 14.51,-0.75 12.27,-2.05 2.85,-1.91 10.82,-5.72 4.28,-2.05 8.71,-0.88 13.85,-3.15l13.61 -8.8c0.3,-0.25 0.63,-0.69 0.91,-0.93 9.91,-8.58 -9.39,3.71 3.75,-2.83 3.48,-1.74 2.86,0.04 7.76,-3.72l2.78 -2.78c3.72,-3.43 0.15,-0.15 3.8,-3.1 16.92,-13.64 10.24,-18.93 20.92,-20.1 6.36,-20.14 3.93,6.79 8.26,-35.87 0.72,-7.05 2.57,-11.18 5.21,-16.51 4.69,-9.48 1.34,-9.71 3.81,-19.92 1.73,-7.17 3.63,-4.86 5.11,-16.76 0.75,-6.05 1.11,-15.52 2.33,-21.91 1.31,-6.85 3.86,-8.28 5.34,-18.39 3.12,-21.3 2.96,-12.28 6.14,-17.6 5.67,-9.49 -0.73,-13.39 8.35,-37.28 2.43,-6.38 2.47,-12.45 2.8,-20.66 0.57,-14.04 1.94,-10.27 4.78,-19.68 1.83,-6.05 1.3,-13.14 2.42,-19.8 1.59,-9.46 3.25,-9.98 4.88,-19.1 1.26,-7.04 1.52,-13.55 2.74,-21.41 3.93,-25.29 7.92,-19.04 6.53,-63.3 -0.41,-13.06 -6.04,-46.2 -11.69,-56.36 -5.3,-9.52 -0.69,-5.74 -7.45,-16.43 -3.35,-5.3 -4.48,-10.07 -7.54,-16.45l-28.52 -33.93c-2.26,-1.94 -1.9,-1.35 -4.15,-3.19 -12.89,-10.5 -34.75,-25.86 -50.51,-30.59 -4.35,-1.31 -4.21,-1.84 -8.43,-4.1 -11.44,-6.1 -10.2,0.42 -28.52,-6.89 -0.34,-0.14 -3.97,-3.05 -8.35,-1.23 -93.6,-5.79 -196.65,-1.89 -291.27,-1.89l-725.26 0.09c-32.07,0 -113.6,-3.5 -143.31,3.94zm200.18 383.96l808.85 0.64c15.35,0 13.19,-8.51 14.18,-22.93 0.97,-14.14 5.9,-14.71 7.05,-27.75 1.65,-18.72 12.08,-48.11 6.4,-67.21 -0.84,-2.82 -4.74,-7.98 -7.05,-11.1 -10.47,-14.12 -30.78,-13.59 -39.63,-15.28 -36.35,-6.97 -22.5,-5.94 -66.32,-5.94l-691.07 -0.32c-2.07,4.88 -1.98,12.11 -4.33,17.69 -10.05,23.83 -1.55,18.05 -9.81,32.32 -3.29,5.68 -3.34,10.8 -3.54,20.68 -0.28,13.92 -5.66,23.19 -7.54,40.46 -1.76,16.16 -9.1,16.06 -7.18,38.75z"/>
  <path class="fil0" d="M170.35 1348.89c1.29,8.75 -1.33,14.93 -3.82,21.7 -3.49,9.52 -1.88,13.71 -4.34,23.1 -2.05,7.84 -4.65,11.16 -6.23,20.9 -3.86,23.63 -0.63,6.92 -5.81,23.57 -1.91,6.15 -1.5,18.6 -2.81,25.06 -1.88,9.27 -4.69,12.76 -6.38,20.88l-8.71 48.35c-1.27,10.43 -4.01,13.57 -5.55,22.25 -1.54,8.7 -1.91,15.79 -3.94,23.66l-23.28 103.4c-1.62,4.29 -2.84,5.14 -3.74,10.66l-30.43 138.68c-2.59,16.57 0.98,12.95 -5.37,24.08 -4.95,8.68 -2.16,13.17 -3.76,24.01 -1.2,8.08 -5.03,12.12 -6.84,22.14l-9.72 45.27c-3.05,10.29 -3.82,4.75 -5.94,21.38 -2.76,21.69 -2.6,11.83 -6.07,23.36 -1.8,5.95 -1.72,18.13 -3.19,24.59 -1.98,8.73 -3.77,13.83 -5.66,23.97 -3.4,18.28 -9.12,33.32 -8.95,46.46 0.75,4.99 1.44,2.81 -1.04,9.34l-2.12 3.4c-3.63,7.02 0.73,13.58 -6.64,38.92 11.82,7.44 22.14,4.8 43.65,4.79 17.14,-0 34.27,0.12 51.41,0.12l716.08 2.53c67.87,0.03 135.95,-0.04 203.81,0.52 65.3,0.54 141.47,3.62 205.71,-0.36l66.13 -9.34 27.06 -11.26c15.42,-7.43 23.34,-15.04 34.89,-29l13.65 -25.7c7.08,-27.83 6.07,-4.9 8.32,-31 1.21,-14.04 4.88,-7.64 6.84,-18.34 3.4,-18.47 -3.25,-15.61 5.35,-32.63 0.28,-0.55 0.51,0.71 1.8,-4.27 1.8,-6.96 -0.58,-15.14 4.67,-27.74 6.17,-14.82 6.87,-51.49 2.91,-44.96 -0.27,0.45 -1.08,-0.46 -1.46,-0.55l-1029.53 1.99c-11.41,0.03 -23.82,0.54 -35.08,0.23 -6.08,-0.17 -14.7,-0.52 -11.42,-15.25 2.23,-10.02 -0.75,-4.09 4.27,-7.29 4.88,-16.49 5.1,-27.69 6.73,-32.24 5.28,-14.75 12.88,-30.74 14.6,-46.79 1.07,-9.97 3.51,-10.28 5.19,-17.08 2.81,-11.37 1.51,-26.86 8.38,-34.56 6.32,-5.12 416.31,-2.36 459.03,-2.36 77.12,0 154.23,-0.06 231.35,-0.06 32.56,0 106.73,8.37 125.66,-16.93l9.73 -19.9c2.47,-8.19 0.57,-15.63 4.27,-25.06 4.91,-12.53 19.05,-86.73 18.51,-97.09 -0.7,-13.33 -5.46,-21.36 -15.33,-27.2 -11.47,-6.79 -23.74,-4.74 -40.02,-4.78 -105.97,-0.21 -746.53,2.46 -750.34,-1.03 -5.18,-4.76 6.68,-45.68 7.78,-48.63 2.94,-7.91 2.98,-17.13 5.79,-23.51 4.79,-10.9 3.7,2.9 6.01,-23.89 0.06,-4.91 10.44,-58.15 15.4,-62.99 7.27,-6.41 67.46,-2.41 81.9,-2.46l907.03 -2.3c15.9,-0.07 70.17,3.55 80.25,-2.01 11.8,-6.5 5.57,-20.18 10.07,-32.45 2.52,-6.85 3.76,-4.78 5.14,-14.67 0.82,-5.9 1.06,-11.71 2.45,-17.5 6.45,-26.88 6.09,-47.65 5.69,-78.04 -0.47,-36.04 -2.77,-19.61 -7.3,-35.22 -1.04,-3.58 -0.77,-5.1 -2.46,-8.73 -5.66,-12.23 -25.99,-31.52 -37.25,-34.59 -13.76,-3.76 -18.54,-6.96 -34.31,-8.31 -25.8,-2.21 -50.65,-2.61 -79.22,-2.61 -370.3,0 -741.64,-4.45 -1112.68,-4.45 -6.73,0 -13.48,0.04 -20.21,-0.02 -3.4,-0.03 -16.38,-0.57 -18.69,2.01l-15.58 68.06c-1.29,8.83 -0.7,18 -2.12,26.68 -2.15,13.18 -5.65,7.89 -6.56,22.76 -2.46,40.34 -0.96,15.92 -7.07,34.41 -3.57,10.8 0.38,23.05 -10.55,31.95z"/>
  <path class="fil0" d="M4159.38 1183.17c-19.23,1.59 -52.97,19.66 -66.74,24.39 -1.99,0.69 -32.66,15.23 -37.29,19.71 -6.83,6.6 -13.14,8.95 -21.97,14.97l-22.11 16.24c-0.28,0.26 -0.67,0.64 -0.95,0.9 -0.29,0.26 -0.69,0.62 -0.99,0.88 -0.41,0.35 -1.66,1.33 -2.08,1.67l-31.96 26.75c-11.52,9.12 -38.04,25.26 -45.52,35.03l-1.35 6.25c-7.91,2.69 -8.2,5.46 -14.85,9.46 -7.21,4.33 -6.83,4.73 -12.12,9.39 -7.93,7 -16.28,13.2 -24.78,19.43l-53.78 41.92c-9.73,9.76 -24.33,16.69 -36.94,25.69 -2.04,1.46 -3.47,3.16 -5.53,5.02l-167.98 111.17c-3.77,2 -5.77,1.82 -9.28,3.69l-83.6 37.31c-8.95,2.69 -4.52,4.15 -16.28,6.41 -9.78,1.88 -9.83,6.1 -13.26,6.81 -4.83,0.38 -11.98,0.47 -16.49,1.3 -8,1.46 -5.14,2.29 -11.34,4.98 -7.43,3.22 -18.2,2.85 -28.54,3.45 -2.44,3.22 -2.21,2.14 -4.22,6.45 -12.27,0.21 -29.03,-2.27 -40.31,1.51 -0.53,0.18 -0.97,0.37 -1.45,0.59 -0.45,0.2 -0.88,0.47 -1.28,0.7l-4.86 3.73c-7.32,3.4 -74.92,1.85 -82.74,0.93 -1.88,-7.02 -1.51,-37.84 1.17,-44.05 3.94,-9.12 4.55,-0.54 5.87,-16.7 0.61,-7.47 1,-12.77 3.06,-19.22 4.96,-15.54 3.15,-26.78 6.83,-41.07 1.84,-7.13 3.96,-8.24 4.97,-18.6 0.69,-7.08 0.31,-14.41 1.54,-21.37 3.59,-20.25 4.52,-3.08 7.11,-41.2 0.82,-12.16 3.21,-10.04 5.6,-17.18 4.24,-12.65 -0.97,-29.59 5.36,-40.71 3.08,-5.41 3.79,-12.65 3.94,-21.11 0.14,-8.07 0.07,-14.48 2.9,-20.11 4.22,-8.43 4.32,-4.92 4.57,-18.4 0.4,-21.95 6.97,-69.61 -3.92,-87.29 -4.48,-7.28 -2.61,-8.03 -8.77,-14.91 -1.1,-1.22 -2.42,-2.75 -3.5,-3.89l-23.22 -17.05c-20.42,-9.15 -16.25,-5.09 -34.62,-10.81 -20.01,-6.23 -43.67,-5.45 -64.9,-5.64 -29.4,-0.26 -64.72,-2.01 -93.51,0.09 -6.52,33.26 -7.63,14.06 -8.45,40.46 -0.47,15.3 -6.48,16.27 -7.4,29.13 -2.07,28.97 -1.37,12.36 -6.25,27.66 -1.74,5.45 -1.41,14.3 -2.67,20.55 -4.73,23.52 -4.03,6.73 -7.15,40.22 -1.28,13.75 -3.53,5.4 -6.1,17.29 -1.4,6.49 -0.66,15.72 -1.68,22.83 -1.53,10.76 -4.3,5.24 -6.28,17.13 -1.18,7.13 -0.05,15.54 -1.46,22.99 -2.55,13.48 -5.04,-1.22 -6.66,16.7 -0.66,7.33 0.69,15.57 -1.61,22.45 -5.13,15.37 -5.39,-4.04 -6.69,40.19 -8.45,4.07 -6.64,11.4 -7.4,20.23 -1.15,13.53 -4.56,12.73 -6.35,22.75 -2.01,11.32 -0.65,14.7 -4.35,24.99 -3.17,8.82 -3.89,15.07 -4.47,25.73 -0.8,14.74 -2.17,12.65 -5.94,23.09 -2.75,7.61 -1.05,17.26 -3.72,25.54 -8.11,25.13 -2.23,25.62 -11.04,47.29 -3.24,7.98 -1.73,17.97 -3.85,26.08 -2.84,10.88 -4.31,8 -5.74,22.97 -1.2,12.51 -3.18,14.4 -5.86,23.74 -2.29,7.97 -1.52,18.92 -3.39,26.37 -2.33,9.28 -5.26,9.7 -6.06,21.62 -1.01,14.99 -3.18,13.93 -5.67,24.39 -2.17,9.13 -1.58,17.19 -4.12,25.33 -1.83,5.84 -5.17,19.45 -8.23,21.79 1.49,14.51 -11.39,54.82 -13.01,67.98 -0.8,6.57 -0.34,13.64 -1.05,20.03 -0.86,7.68 -3.21,8.68 -4.94,15 -3.97,14.53 -17.25,90.4 -22.05,102.06 -4.51,10.94 -2.17,24.21 -5.37,35.38 -3.45,12.06 -7.46,19.96 -5.25,36.7 16.3,1.58 126.63,2.31 146.08,-1.4l46.83 -11.84c9.28,-2.94 14,-6.89 22.23,-8.41 16.97,-6.54 56.34,-47.26 56.91,-62.89 -0.29,-21.29 3.96,-8.48 7.32,-23.58 1.49,-6.7 -0.04,-5.53 3.14,-11.33 8.39,-15.26 2.69,-8.74 5.33,-25.13 1.33,-8.24 2.77,-4.94 5.05,-10.25l1.9 -12.18c1.31,-30.85 5.74,-5.07 7.65,-36.48 0.21,-3.53 0.75,-8.9 1.87,-12.21l4.56 -8.9c3,-10.16 -0.52,-15.51 4.76,-25.3 4.92,-9.12 3.27,-13.79 4.74,-25.34 1.71,-13.49 5.66,-7.43 6.95,-21.99 2.2,-24.75 0.37,-10.95 5.67,-23.2 3.55,-8.2 0.88,-16.67 4.18,-25.28 4.6,-11.98 4.64,-8.63 5.61,-25.07 0.84,-14.1 5,-12.13 6.9,-21.94 1.9,-9.81 -0.34,-15.54 4.15,-24.79 1.69,-3.49 2.84,-2 3.83,-11.9 0.49,-4.97 0.22,-8.63 0.93,-13.08 1.39,-8.74 9.45,-16.59 10.59,-17.06 12.62,-0.68 34.77,-1.55 44.62,2.25 15.91,6.13 23.69,3.77 42.03,4.65 19.45,0.93 22.04,6.84 41.95,7.57 9.54,0.35 12.14,0.26 19.15,3.89 14.51,7.51 14.2,-0.12 27.14,7.67 10.12,6.09 5.25,1.96 13.19,4.53l6.97 4.01c5.86,3.27 10.31,2.08 15.25,4.02 6.77,2.67 1.85,1.82 6.14,4.29 6.74,3.89 1.2,-1.49 15.05,7.02 8.74,5.37 0.9,-2.12 15.84,8.15 3.26,2.24 4.83,2.11 8.63,4.19 3.52,1.92 2.61,1.89 6.4,4.32l29.2 17.58 0.53 6.17c0.54,2.94 28.32,25.22 34.63,29.65l4.31 3.17c3.85,2.79 2.69,1.5 6.14,4.89 15.49,15.22 53.25,48.91 63.97,62.67 13.87,17.82 24.82,24.04 28.16,28.6l23.55 26.22c3.07,3.31 1.98,2.18 5.13,5.86 11.95,14 38.36,46.69 50.23,54.83 4.35,2.99 1.78,0.25 5.08,5.13 0.22,0.32 0.47,0.82 0.69,1.15l1.51 2.31c0.07,0.1 2.12,2.73 2.48,3.19l25.15 28.06c11.8,14.72 43.91,52.08 55.9,59.96 2.57,1.69 4.59,2.38 7.24,3.94 4.64,2.72 8.22,6.35 12.27,9.52 3.19,2.5 10.2,6.17 12.61,7.16 17.98,2.59 15.28,5.17 20.22,7.33 6.07,2.66 13.56,2.37 20.5,5.51 15.75,7.13 30.24,1.84 45.08,8.55 11.58,5.24 33.15,3.91 48.77,4.53 16.16,0.65 29.82,4.43 47.62,5.24 24.36,1.11 196.8,4.27 207.26,0.04l-25.06 -26.06c-9.37,-9.31 -17.6,-17.47 -26.6,-26.63l-171.32 -172c-3.02,-2.97 -3.67,-3.63 -6.44,-6.55 -1.46,-1.54 -4.35,-4.71 -6.3,-6.52l-56.26 -55.66c-33.95,-33.58 -85.74,-89.52 -115.42,-115.97 -9.96,-8.88 -10.51,-9.14 -12.55,-16.56l-9.93 -10.57c-0.34,-0.43 -1.23,-1.69 -1.57,-2.1 -2.44,-2.98 -0.63,-0.88 -2.55,-2.89l-7.05 -7.63c-2.33,-2.31 -6.24,-4.63 -9.28,-7.28l-23.51 -22.37c-5.83,-5.25 -4.2,-3.25 -3.89,-13.77l43.4 -26.54c4.84,-3.95 8.27,-7.11 13.48,-10.32 4.97,-3.06 2.21,-1.21 7.52,-3.74 5.07,-2.41 1.95,-0.83 6.69,-4.22l41.5 -29.88c10.77,-11.02 26.35,-23.32 39.15,-30.58l95.33 -68.05c4.83,-2.91 9.34,-7.1 13.8,-10.14 2.35,-1.61 4.39,-2.45 6.85,-4.25 18.67,-13.61 16.57,-8.82 25.98,-16.35 0.3,-0.24 0.69,-0.61 1,-0.85l14.52 -11.14c13.31,-11.22 20.8,-12.78 37.08,-27.15l10.62 -7.73c5.65,-4.31 7.94,-4.85 13.73,-10.18 6.31,-5.8 6.14,-5.42 13.88,-9.83 13.19,-7.52 44.68,-34.41 54.77,-37.02l1.05 -6.5c2.67,-1.56 5.55,-2.31 8.49,-4.24 3.39,-2.22 3.44,-2.92 7.53,-5.42l44.84 -32.11c24.94,-16.85 3.01,0.2 29.16,-22.23 0.3,-0.26 0.74,-0.6 1.04,-0.86l5.78 -5.03c5.17,-2.95 10.43,-2.08 22.94,-14.19 3.08,-2.98 0.8,-0.47 3.62,-4.01 7.33,-9.19 3.39,-2.95 11.53,-8.01l58.84 -42.28c0.4,-0.33 3.69,-3.07 4.03,-3.39 14.31,-13.51 -0.83,1.28 18.77,-12.21l16.83 -9.51c5.59,-4.05 2.75,1.09 3.54,-5.57 -10.94,-6.33 -154.62,-0.24 -179.05,0.02 -30.61,0.33 -58.99,1.27 -88.01,3.98 -12.94,1.21 -29.51,3.88 -42.32,4.39 -24.68,0.98 -26.48,6.21 -37.58,5.26z"/>
  <path class="fil0" d="M1428.66 594.69c-0.14,8.52 -1.01,5.4 6.77,8.41 8.17,3.16 6.5,4.29 11.89,6.42 5.44,2.15 6.81,1.6 12.57,4.2 6.07,2.74 8.57,2.31 14.12,4.6 9.36,3.87 17.95,10.63 27.78,14.22 3.74,1.36 3.08,0.42 7,2.22 4.4,2.02 5.12,4.06 11.95,6.19 13.29,4.14 31.67,13.68 36.33,15.07 7.68,2.29 7.17,1.46 13.74,4.76 11.16,5.6 26.08,8.84 36.01,15.27 1.68,1.09 -0.73,1.15 5.79,3.01 11.37,3.25 20.91,5.49 32.69,11.58 6.9,3.57 18.12,4.97 25.95,9.04 9.72,5.06 28.25,8.87 38.43,12.91 14.41,5.74 43.21,10.6 53.78,16.26 7.59,4.07 31.37,12.01 40.92,12.26 52.66,1.4 96.87,-4.23 148.6,-9.22 5.23,-0.5 13.05,-1.87 17.47,-2.63 7.59,-1.3 10.88,-2.9 16.2,-3.63 16.74,-2.27 38.19,-1.65 53.9,-5.13 17.81,-3.94 38.08,-1.51 55.08,-5.56 29.46,-7.02 55.46,-4.6 70.54,-8.61 7.79,-2.07 26.93,-3.63 36.72,-3.91 15.83,-0.45 20.52,-4.08 34.88,-5.37 23.74,-2.12 45.17,-7 69.31,-9.61l207.07 -31.25c36.21,-4.2 69.38,-11 105,-15.06 3.65,-0.42 13.45,-1.21 17.91,-2.33 4.76,-1.19 9.94,-3.29 15.42,-4.48 12.17,-2.62 22.97,-0.63 35.83,-4.8 15.51,-5.04 35.83,-0.29 51.16,-7.76 12.48,-6.08 53.18,-9.73 67.93,-12.81l47.82 -10.6c10.81,-3.67 23.24,-2.06 34.67,-5.81 12.96,-4.26 18.76,-4.72 34.68,-5.89 9.93,-0.73 16.43,-5.35 32.97,-7.15 11.6,-1.27 19.46,-5.99 31.31,-7.03 22.79,-2 18.35,-4.36 33.63,-6.88 6.12,-1.01 11.76,-0.51 17.6,-1.25 7.73,-0.98 7.21,-3 14.68,-5.15l148.71 -31.36c6.9,-0.6 12.37,0.08 18.55,-1.86 8.56,-2.7 21.42,-5.72 29.56,-8.64l32.09 -7.88c7.16,-1.79 7.23,-3.47 14.88,-5.19 6.21,-1.39 12.9,-1.26 17.95,-2.26 11.91,-2.36 6.2,-3.15 14.15,-6.09 4.42,-1.63 11.67,-0.79 17.95,-2.03 12.69,-2.51 6.71,-4.3 31.29,-7.08 9.62,-1.09 8.91,-3.53 15.42,-5.1 5.84,-1.41 12.52,-0.53 18.65,-1.92 7.97,-1.8 8.02,-3.96 14.05,-5.91 4.91,-1.59 11.52,-1.03 17.29,-3.15 6.26,-2.3 6.53,-4.88 13.67,-5.65 8.4,-0.91 11.27,0.92 18.54,-2.6 17.93,-8.68 15.65,-2.81 31.48,-6.71 8.55,-2.11 7,-3.83 14.76,-5.35 6.56,-1.28 11.65,-0.77 17.88,-2.52 6.95,-1.95 6.89,-4.01 14.84,-5.21 7.69,-1.16 10.72,-0.32 17.8,-2.8 6.15,-2.15 6.17,-2.83 15.72,-4.51l45.8 -12.93c5.97,-2.8 8.35,-2.84 15.89,-3.9 8.71,-1.23 8.83,-2.03 15.64,-4.91 8.85,-3.74 14.1,-2.72 21.53,-5.97 9.1,-3.98 18.85,-2.88 27.86,-5.4l29.5 -8.93c7.08,-2.74 6.33,-3.53 15.61,-4.55 11.3,-1.23 32.55,-11.17 46.15,-14.33 5.86,-1.36 11.75,-1.75 16.76,-3.59 7.26,-2.66 5.17,-4.33 14.3,-5.45 18.05,-2.23 15.22,-5.53 30.98,-7.9 10.04,-1.51 7.49,-2.96 14.75,-5.55l78.87 -22.69c12.51,-2.66 10.29,-0.04 13.38,-7.33 -10.75,-4.33 -27.67,0.66 -37.56,3.39 -12.61,3.48 -27.56,0.43 -39.1,5.21 -14.59,6.05 -24.44,2.14 -38.89,5.45 -10.71,2.46 -20.77,6.45 -35.6,7.76 -6.91,0.61 -14.41,0.14 -20.9,1.83 -35.14,9.16 -72.88,10.03 -95.16,15.21 -12.72,2.96 -24.39,4.84 -36.67,7.04l-228.64 35.97c-5.54,0.66 -13.58,1.03 -20.03,2.07 -11.42,1.84 -25.09,5.72 -37.31,6.47 -17.56,1.07 -33.1,6.19 -58.81,7.67 -8.57,0.49 -9.85,2.34 -17.4,4.29 -6.94,1.79 -11.29,2.42 -19.22,2.69l-77.02 10.95c-14.62,2.73 -23.69,2.94 -40.4,4.27 -12.03,0.95 -24.21,4.92 -37.26,6.51 -14.04,1.71 -28.91,-0.27 -42.69,1.98 -13.76,2.25 -23.55,6.16 -37.65,6.46 -18.6,0.39 -21.67,3.55 -37.77,6.09 -11.41,1.8 -33.62,-1.13 -43.84,3.58l-4.82 2.41c-4.07,1.62 -4.1,1.62 -9.04,2.12 -20.09,2.05 -43.36,-0.08 -60.41,5.78l-54.45 10.66c-20.82,2.55 -39.92,1.63 -61.45,5.21 -18.98,3.15 -40.55,2.92 -60.36,7.35 -4.49,1 -14.5,2.1 -19.22,2.64 -13.03,1.5 -31.35,-0.45 -43.21,1.62 -8.3,1.45 -8.63,4.13 -36.09,7.02 -15.47,1.62 -26.21,0.87 -40.4,3.93 -19.09,4.12 -41.31,2.56 -60.69,5.36 -7.8,1.13 -12.93,2.94 -18.01,3.79 -25.93,4.34 -57.44,0.53 -84.49,4.41 -26.85,3.85 -55.43,2.96 -81.3,6.89 -36.73,5.58 -82.85,1.04 -120.96,11.12 -12.95,3.42 -29.16,1.24 -43.02,1.85 -11.69,0.52 -25.49,4.11 -38.55,4.77 -62.76,3.17 -98.96,9.99 -165.32,11.03 -35.58,0.56 -77.03,6.95 -124.79,7.55 -58.39,0.74 -108.55,8.22 -167.09,8.95l-83.55 4.82c-34.86,3.84 -150.27,-1.26 -169.24,8.51z"/>
  <path class="fil0" d="M3479.01 580.07c-8.32,-0.56 -53.47,9.47 -63.01,12.09 -7.28,2 -17.31,2.72 -23.59,3.91l-42.67 10.22c-8.8,2.57 -11.35,3.4 -21.15,4.48 -15.68,1.72 -47.01,12.11 -64.57,14.22 -7.32,0.88 -16.02,1.19 -22.85,3.05 -8.54,2.33 -10,4.74 -21.24,5.81 -17.88,1.71 -58.68,12.68 -65.82,13.29 -9.36,0.79 -18.18,1.24 -26.06,2.19 -14.22,1.71 -9.88,2.95 -19.46,5.85 -6.89,2.08 -15.31,0.73 -22.92,2.98 -9.25,2.74 -9.28,2.95 -20.94,4.95 -29.85,5.1 -59.25,12.67 -89.81,16.54 -2.25,0.28 -8.64,1.13 -11.04,1.77 -16.87,4.42 -17.1,3.11 -34.53,6.05 -9.15,1.54 -11.98,3.57 -20.3,5.33 -7.73,1.63 -15.54,0.86 -23.7,2.28 -19.23,3.35 -15.48,4.4 -45.09,8.19 -8.43,1.08 -12.53,5.26 -20.52,6.42 -7.98,1.16 -17.15,-0.67 -23.43,2.47 -18.66,9.34 -28.26,2.18 -45.39,7.94 -19.49,6.55 -25.96,3.31 -43.89,7.6 -9.6,2.3 -10.39,4.34 -22.98,4.76 -25.66,0.87 -23.12,5.57 -44.81,8 -10.01,1.12 -13.78,0.72 -22.44,3.25l-66.77 11.96c-7.66,0.55 -15.07,1.28 -22.98,2.76 -8.93,1.68 -13.97,3.9 -22.98,4.56 -20.41,1.51 -32.23,-0.56 -49.22,4.56 -15.99,4.81 -30.17,-0.13 -46.87,6.25 -11.78,4.5 -28.71,5.46 -42.56,8.28 -15.58,3.17 -42.12,4.49 -47.57,5.92 -17.41,4.56 -27.2,5.26 -47.05,6.1l-92.69 11.7c-16.34,3.72 -30.56,3.26 -48.62,4.59 -35.18,2.59 -56.19,8 -98.02,9.12 1.96,4.81 1.26,2.8 4.62,5.77 6.99,6.19 13.04,5.58 22.97,6.84 15.02,1.89 56.15,14.34 63.03,14.64l49.51 8.99c11.91,3.62 -0.75,4.29 14.6,5.98 5.56,0.62 12.19,-0.72 17.1,0.94 8.86,3 0.99,4.89 14.06,6.46 20.33,2.44 11.37,-4.45 28.66,5.18 0.42,0.23 0.84,0.52 1.3,0.73 6.51,2.92 13.99,0.92 20.93,2.03l9.7 5.6c0.29,0.3 0.8,0.88 1.04,1.13 2.93,3.16 14.91,2.12 17.79,2.73 8.24,1.73 8.99,4.13 16.34,4.32 9.83,0.26 6.76,-2.08 16.5,-4.02 5.37,-1.07 11.27,-1.46 18.3,-1.57 18.73,-0.3 20.03,-3.6 34.68,-6.25 12.05,-2.18 23.3,-1.34 35.52,-5.12 11.42,-3.54 23.4,-2.33 33.42,-5.14 6.3,-1.76 8.22,-4.35 14.35,-5.31 5.84,-0.92 13.47,-0.28 19.69,-0.91 13.41,-1.36 19.65,-6.3 33.15,-7.08 19.07,-1.09 27.05,-7.72 49.6,-8.92l66.27 -14.51c2.86,-0.22 6.22,-0.09 8.98,-0.54 9.6,-1.57 5.56,-5.23 24.11,-6.73 2.82,-0.23 6.41,-0.11 9.04,-0.51 8.15,-1.24 3.26,-0.21 8.24,-3.27 11.25,-6.92 24.21,-2.66 48.82,-9.66 4.76,-1.35 12.25,-2.26 17,-2.89l67.1 -14.22c11.33,-2.03 15.53,-5.81 30.21,-7.95 23.21,-3.39 41.71,-12.6 65.07,-15.59l97.18 -22.71c4.99,-1.03 8.63,-3.57 14.66,-5.25 5.78,-1.61 12.12,-1.88 17.36,-2.93 7.42,-1.48 9.44,-3.36 15.29,-4.97 6.17,-1.7 11.76,-0.89 18.07,-2.5 6.14,-1.57 7.35,-3.39 13.04,-5.12 5.78,-1.76 11.02,-1.8 17.03,-3.21 15.44,-3.6 34.14,-13.01 44.87,-14.86 12.14,-2.1 8,-3.48 14.28,-6.15 4.22,-1.8 13.38,-1.23 17.91,-2.24 9.67,-2.16 6.57,-3.78 14.49,-5.66 3.7,-0.88 4.72,-0.45 8.19,-0.92l8.94 -2.96c7.69,-4.96 0.32,-3.08 14.29,-4.86 13.68,-1.74 19.83,-5.15 33.43,-7.58 7.65,-1.37 6.63,-3.36 14.42,-5.7 6.24,-1.87 10.28,-1.5 16.44,-3.82 6.97,-2.62 7.55,-2.8 15.46,-4.77 9.01,-2.24 6.38,-1.74 10.74,-8.15 4.4,-0.16 10.71,-0.02 14.87,-0.54 4.63,-0.57 2.5,0.09 6.42,-1.56 8.26,-3.48 -0.34,-0.44 5.61,-3.51 6.44,-3.32 12.47,-1.17 25.14,-7.85 5.7,-3.01 7.25,-1.4 14.05,-2.29 9.47,-1.23 6.88,-2.69 12.09,-4.77l64.99 -18.17c6.67,-2.4 3.56,-3.09 10.86,-5.49 4.4,-1.45 9.41,-1.34 13.96,-2.81 3.85,-1.25 5.1,-3.2 11.34,-5.13 7.6,-2.35 16.5,-7.98 24.49,-6.9 0.51,-0.36 1.19,-0.7 1.61,-0.96 0.41,-0.25 1.05,-0.63 1.53,-0.92l8 -5.17c3.78,-2.09 44.02,-16.94 52.47,-22.48 10.67,-7.01 17.06,-0.61 20.29,-8.54 -4.15,-2.14 -12.2,-1.68 -17.95,-1.19 -9.42,0.8 -6.28,1.93 -12.83,4.63l-97.19 17.4z"/>
  <path class="fil0" d="M3052.58 1458.09c0.86,9.72 -5.04,9.18 -6.04,21.13 -1.18,14.17 -0.5,16.13 -3.94,27.91 -3.08,10.53 -2.73,15.45 -4.26,27.02 -1.49,11.26 -3.91,5.04 -6.35,24.73 -2.47,19.95 -0.05,8.7 -5.58,25.77 -2.93,9.04 -1.61,18.13 -3.97,27.46 -3.02,11.92 -5.23,6.58 -6.11,24.94l-21.26 101.89c-2.06,8.48 -1.95,19.69 -4.37,26.85 -5.71,16.84 -2.99,4.13 -5.65,25.17 -1.37,10.85 -5.58,14.11 -6.63,24.3 -3.01,29.09 -9.79,37.73 -7.73,54.97 3.07,-2.34 6.4,-15.95 8.23,-21.79 2.55,-8.15 1.95,-16.2 4.12,-25.33 2.49,-10.46 4.66,-9.4 5.67,-24.39 0.8,-11.92 3.74,-12.35 6.06,-21.62 1.87,-7.44 1.1,-18.39 3.39,-26.37 2.68,-9.34 4.66,-11.24 5.86,-23.74 1.44,-14.97 2.9,-12.09 5.74,-22.97 2.11,-8.1 0.61,-18.1 3.85,-26.08 8.81,-21.67 2.93,-22.16 11.04,-47.29 2.67,-8.28 0.97,-17.93 3.72,-25.54 3.77,-10.43 5.14,-8.35 5.94,-23.09 0.58,-10.66 1.3,-16.91 4.47,-25.73 3.7,-10.28 2.34,-13.66 4.35,-24.99 1.78,-10.02 5.19,-9.23 6.35,-22.75 0.75,-8.83 -1.05,-16.16 7.4,-20.23 1.29,-44.23 1.56,-24.82 6.69,-40.19 2.3,-6.89 0.95,-15.12 1.61,-22.45 1.62,-17.93 4.11,-3.22 6.66,-16.7 1.41,-7.45 0.28,-15.86 1.46,-22.99 1.98,-11.9 4.74,-6.38 6.28,-17.13 1.01,-7.11 0.27,-16.34 1.68,-22.83 2.58,-11.9 4.82,-3.55 6.1,-17.29 3.12,-33.49 2.42,-16.7 7.15,-40.22 1.26,-6.25 0.93,-15.1 2.67,-20.55 4.88,-15.3 4.18,1.31 6.25,-27.66 0.92,-12.86 6.93,-13.83 7.4,-29.13 0.82,-26.4 1.93,-7.2 8.45,-40.46 28.79,-2.1 64.12,-0.35 93.51,-0.09 21.24,0.19 44.89,-0.58 64.9,5.64 18.37,5.72 14.19,1.66 34.62,10.81l23.22 17.05c1.07,1.14 2.4,2.67 3.5,3.89 6.16,6.88 4.28,7.63 8.77,14.91 10.89,17.68 4.32,65.34 3.92,87.29 -0.25,13.48 -0.34,9.97 -4.57,18.4 -2.83,5.64 -2.76,12.04 -2.9,20.11 -0.15,8.46 -0.85,15.7 -3.94,21.11 -6.33,11.12 -1.12,28.06 -5.36,40.71 -2.39,7.14 -4.78,5.03 -5.6,17.18 -2.59,38.12 -3.52,20.95 -7.11,41.2 -1.23,6.96 -0.85,14.29 -1.54,21.37 -1.01,10.35 -3.13,11.47 -4.97,18.6 -3.68,14.29 -1.87,25.53 -6.83,41.07 -2.06,6.45 -2.45,11.74 -3.06,19.22 -1.32,16.16 -1.93,7.58 -5.87,16.7 -2.68,6.22 -3.05,37.04 -1.17,44.05 7.83,0.93 75.42,2.48 82.74,-0.93l4.86 -3.73c0.4,-0.22 0.83,-0.5 1.28,-0.7 0.48,-0.21 0.92,-0.41 1.45,-0.59 11.28,-3.78 28.04,-1.29 40.31,-1.51 2.01,-4.3 1.79,-3.22 4.22,-6.45 10.34,-0.6 21.11,-0.22 28.54,-3.45 6.2,-2.69 3.34,-3.52 11.34,-4.98 4.5,-0.82 11.66,-0.92 16.49,-1.3 3.43,-0.71 3.48,-4.93 13.26,-6.81 11.76,-2.26 7.33,-3.72 16.28,-6.41l83.6 -37.31c3.51,-1.87 5.51,-1.68 9.28,-3.69l167.98 -111.17c2.06,-1.86 3.48,-3.57 5.53,-5.02 12.61,-9 27.21,-15.94 36.94,-25.69l53.78 -41.92c8.5,-6.23 16.86,-12.43 24.78,-19.43 5.28,-4.67 4.91,-5.06 12.12,-9.39 6.65,-4 6.94,-6.77 14.85,-9.46l1.35 -6.25c-9.29,2.44 -35.13,22.4 -43.46,30.25 -2.92,2.75 -4.86,4.38 -7.87,6.54l-133.36 98.47c-25.13,19.34 -76.42,55.61 -103.17,69.19 -16.33,8.29 -36.28,21.99 -56.69,31.34l-38.92 18.06c-11.16,5.88 -34.31,10.74 -43.14,15.73 -7.96,4.5 -12.78,2 -21.33,6.19 -10.86,5.33 -14.96,2.47 -24.44,5.32 -8.52,2.57 -10.44,5.8 -22.43,6.7 -10.95,0.82 -16.37,0.35 -26.02,3.38 -12.28,3.85 -88.64,11.45 -106.27,11.09 -1.41,-19.46 8.24,-31.87 5.92,-49.15l14.56 -75.78c2.22,-29.23 4.77,-20.86 6.92,-38.06 4.58,-36.7 4.49,-21.83 7.31,-36.15 2.79,-14.19 1.23,-25.31 5.47,-39.71 3.59,-12.19 3.03,-26.11 5.85,-39.19 1.57,-7.3 3.26,-9.07 4.54,-17.51 1.06,-6.99 1.19,-12.77 2.3,-19.68 2.17,-13.5 5.43,-21.56 5.62,-37.24 0.46,-37.65 -11.22,-72.88 -44.59,-89.15 -48.14,-23.48 -140.56,-21.6 -197.88,-19.58 -8.47,17.27 -7.61,8.59 -10.88,35.74 -1.97,16.33 -12.17,52.02 -15.26,74.54 -1.83,13.33 -5.64,20.92 -7.52,36.96 -1.08,9.23 -2.45,10.57 -4.66,18.81l-25.52 122.6c-1.17,3.43 -0.91,2.72 -2.28,4.65z"/>
 </g>
</svg>
