<?xml version="1.0" encoding="UTF-8"?>
<!DOCTYPE svg PUBLIC "-//W3C//DTD SVG 1.1//EN" "http://www.w3.org/Graphics/SVG/1.1/DTD/svg11.dtd">
<!-- Creator: CorelDRAW -->
<svg xmlns="http://www.w3.org/2000/svg" xml:space="preserve" width="140.041mm" height="61.8977mm" version="1.1" style="shape-rendering:geometricPrecision; text-rendering:geometricPrecision; image-rendering:optimizeQuality; fill-rule:evenodd; clip-rule:evenodd"
viewBox="0 0 1235.94 546.28"
 xmlns:xlink="http://www.w3.org/1999/xlink"
 xmlns:xodm="http://www.corel.com/coreldraw/odm/2003">
 <defs>
  <style type="text/css">
   <![CDATA[
    .fil0 {fill:white}
    .fil1 {fill:white;fill-rule:nonzero}
   ]]>
  </style>
 </defs>
 <g id="Camada_x0020_1">
  <metadata id="CorelCorpID_0Corel-Layer"/>
  <path class="fil0" d="M507.42 308.65c-15.73,2.95 -25.16,6.06 -36.69,19.56 -8.39,9.78 -15.03,26.08 -12.93,43 2.45,22.05 15.38,40.68 36.34,47.97 13.63,4.66 35.3,3.73 47.88,-4.04 32.5,-20.34 38.09,-67.53 7.69,-94.08 -10.13,-8.85 -27.26,-15.21 -42.29,-12.42zm-0.35 11.8c-11.53,2.02 -20.27,6.36 -27.61,16.46 -15.03,20.18 -9.44,53.1 7.34,64.43 9.09,6.36 19.57,11.95 34.95,9 38.79,-7.14 45.78,-58.84 19.57,-80.57 -8.74,-6.99 -19.92,-11.8 -34.25,-9.31z"/>
  <path class="fil0" d="M936.22 405.06c0.7,-11.02 0,-28.72 0.35,-41.14 0,-7.76 0.35,-6.83 -7.34,-6.83l-40.89 0.16 0 20.03 15.38 0.62c10.48,-0.16 9.44,-3.57 9.44,15.21 -12.58,11.33 -57.31,14.75 -56.26,-31.52 1.05,-25.77 30.75,-39.9 52.07,-25.31 2.8,1.71 5.24,4.04 8.39,4.5 2.8,-2.33 12.93,-14.44 13.98,-17.23 -1.4,-3.57 -9.09,-7.61 -12.23,-9.16 -15.73,-8.38 -39.84,-7.3 -55.22,-0.78 -40.89,17.23 -47.88,86.01 4.19,105.41 23.07,8.38 50.32,0.31 68.15,-13.97z"/>
  <path class="fil0" d="M984.8 420.43l23.41 0c2.1,-2.64 8.74,-19.56 10.48,-24.69l46.48 -0.16 10.14 24.53 24.11 0.16c0,-6.68 -19.57,-48.9 -22.37,-56.04l-11.88 -27.32c-1.75,-4.66 -9.78,-24.69 -11.88,-27.32l-22.02 -0.16 -32.5 75.45c-2.45,6.05 -14.33,32.45 -13.98,35.55zm43.68 -46.58l27.26 0.16c-0.35,-4.04 -4.54,-13.2 -6.29,-17.54 -1.4,-3.73 -5.24,-13.97 -7.34,-16.46 -2.1,1.09 -4.89,11.18 -6.99,16.15 -1.75,3.73 -6.29,14.13 -6.64,17.7z"/>
  <path class="fil0" d="M323.25 420.43c2.1,0.16 10.48,0.78 11.88,-0.62 2.8,-5.12 -1.4,-30.27 1.05,-38.35 18.17,-0.93 36.69,2.33 50.32,-5.12 26.21,-14.28 22.37,-44.09 9.44,-55.27 -6.29,-5.43 -9.78,-7.14 -18.17,-9.47 -7.69,-2.17 -45.08,-2.33 -54.52,-1.4l0 110.23zm12.58 -50.46c8.39,0.62 32.5,0.78 39.14,-1.4 24.81,-8.07 24.11,-40.21 0,-45.33 -11.53,-2.33 -26.56,-2.02 -39.14,-1.24l0 47.97z"/>
  <path class="fil0" d="M1189.24 400.1c-20.97,0 -29.36,-12.42 -32.15,-12.26 -1.05,0 -13.63,15.06 -13.63,16.46 0,3.73 16.77,11.18 19.22,12.42 18.87,8.85 66.75,11.33 66.75,-29.65 0,-27.63 -25.86,-29.19 -48.23,-36.33 -19.22,-6.36 -10.83,-28.41 18.17,-17.7 4.89,1.86 11.88,6.52 14.68,7.14 2.8,-2.48 10.83,-14.44 11.88,-17.39 -3.84,-4.5 -15.38,-9.78 -20.62,-11.49 -23.06,-7.92 -60.81,0 -58.01,34 0.7,9 4.54,16.46 11.18,20.96 12.93,9.16 39.84,10.4 45.78,18.63 4.54,6.36 1.4,15.37 -15.03,15.21z"/>
  <path class="fil0" d="M615.41 321.23c3.84,2.17 29.35,0.47 36,0.78 1.05,13.04 0.35,66.14 0.35,86.78 0,11.49 -3.15,13.35 12.23,11.95l0.35 -98.74 36.69 -0.16 0.35 -11.64c-13.28,-0.78 -59.41,-0.16 -78.63,-0.16 -3.49,0 -6.99,-0.93 -8.04,1.71 0,0.16 0,4.5 0,5.12 0,0.47 0,1.71 0,2.17l0.7 2.17z"/>
  <path class="fil0" d="M760.09 420.28c13.98,1.86 12.23,-0.93 12.23,-4.81l-0.35 -105.1c-2.45,-0.31 -4.54,-0.31 -7.34,-0.31 -6.64,0 -4.89,-0.93 -4.89,18.01 0,12.26 -0.7,86.94 0.35,92.22z"/>
  <path class="fil1" d="M335.82 507.6c7.3,0 11.95,-2.64 15.94,-6.96l-4.43 -4.49c-3.37,3.14 -6.51,5.05 -11.28,5.05 -7.52,0 -12.96,-6.23 -12.96,-13.92l0 -0.11c0,-7.69 5.5,-13.8 12.91,-13.8 4.55,0 7.86,1.91 11.05,4.83l4.43 -5.11c-3.76,-3.59 -8.14,-6.12 -15.43,-6.12 -11.84,0 -20.2,9.15 -20.2,20.31l0 0.11c0,11.28 8.53,20.2 19.98,20.2zm40.85 0c12.07,0 20.6,-9.32 20.6,-20.31l0 -0.11c0,-11.05 -8.42,-20.2 -20.48,-20.2 -12.07,0 -20.59,9.32 -20.59,20.31l0 0.11c0,11.06 8.42,20.2 20.48,20.2zm0.11 -6.4c-7.86,0 -13.36,-6.28 -13.36,-13.92l0 -0.11c0,-7.63 5.44,-13.8 13.24,-13.8 7.86,0 13.36,6.29 13.36,13.92l0 0.11c0,7.63 -5.44,13.8 -13.24,13.8zm28.84 5.72l6.79 0 0 -28.06 12.29 18.41 0.22 0 12.4 -18.52 0 28.17 6.9 0 0 -39.28 -7.35 0 -11.95 18.57 -11.95 -18.57 -7.35 0 0 39.28zm48.71 0l6.9 0 0 -12.63 7.8 0c8.7,0 15.71,-4.66 15.71,-13.41l0 -0.11c0,-7.91 -5.72,-13.13 -14.93,-13.13l-15.49 0 0 39.28zm6.9 -18.86l0 -14.14 8.02 0c5.16,0 8.47,2.36 8.47,7.01l0 0.11c0,4.1 -3.25,7.01 -8.47,7.01l-8.02 0zm23.29 18.86l7.07 0 4.04 -9.48 18.58 0 3.98 9.48 7.3 0 -17.28 -39.56 -6.4 0 -17.28 39.56zm13.64 -15.6l6.73 -15.71 6.79 15.71 -13.52 0zm34.06 15.6l6.79 0 0 -27.95 21.66 27.95 5.78 0 0 -39.28 -6.79 0 0 27.16 -21.04 -27.16 -6.4 0 0 39.28zm44.33 0l6.9 0 0 -16.55 18.74 0 0 16.55 6.9 0 0 -39.28 -6.9 0 0 16.33 -18.74 0 0 -16.33 -6.9 0 0 39.28zm43.04 0l6.9 0 0 -39.28 -6.9 0 0 39.28zm14.03 0l7.07 0 4.04 -9.48 18.58 0 3.98 9.48 7.3 0 -17.28 -39.56 -6.4 0 -17.28 39.56zm13.64 -15.6l6.73 -15.71 6.79 15.71 -13.52 0zm50.9 15.6l6.9 0 0 -12.63 7.8 0c8.7,0 15.71,-4.66 15.71,-13.41l0 -0.11c0,-7.91 -5.72,-13.13 -14.93,-13.13l-15.49 0 0 39.28zm6.9 -18.86l0 -14.14 8.02 0c5.16,0 8.47,2.36 8.47,7.01l0 0.11c0,4.1 -3.25,7.01 -8.47,7.01l-8.02 0zm49.33 19.53c12.07,0 20.6,-9.32 20.6,-20.31l0 -0.11c0,-11.05 -8.42,-20.2 -20.48,-20.2 -12.07,0 -20.59,9.32 -20.59,20.31l0 0.11c0,11.06 8.42,20.2 20.48,20.2zm0.11 -6.4c-7.86,0 -13.36,-6.28 -13.36,-13.92l0 -0.11c0,-7.63 5.44,-13.8 13.24,-13.8 7.86,0 13.36,6.29 13.36,13.92l0 0.11c0,7.63 -5.44,13.8 -13.24,13.8zm36.42 5.72l6.9 0 0 -32.88 12.51 0 0 -6.4 -31.93 0 0 6.4 12.51 0 0 32.88zm26.99 0l6.9 0 0 -39.28 -6.9 0 0 39.28zm36.03 0.67c6.96,0 12.46,-2.81 16.39,-6.12l0 -16.5 -16.72 0 0 6.06 10.05 0 0 7.3c-2.41,1.8 -5.72,2.98 -9.48,2.98 -8.02,0 -13.36,-5.95 -13.36,-14.03l0 -0.11c0,-7.52 5.56,-13.8 12.74,-13.8 4.94,0 7.97,1.57 11,4.15l4.38 -5.22c-4.04,-3.42 -8.31,-5.33 -15.1,-5.33 -11.9,0 -20.26,9.32 -20.26,20.31l0 0.11c0,11.45 8.08,20.2 20.37,20.2zm41.47 -0.06c10.27,0 16.89,-5.89 16.89,-17.62l0 -22.28 -6.9 0 0 22.61c0,7.24 -3.76,10.89 -9.88,10.89 -6.23,0 -9.93,-3.82 -9.93,-11.17l0 -22.33 -6.9 0 0 22.61c0,11.39 6.57,17.28 16.72,17.28zm21.6 -0.62l7.07 0 4.04 -9.48 18.58 0 3.98 9.48 7.3 0 -17.28 -39.56 -6.4 0 -17.28 39.56zm13.64 -15.6l6.73 -15.71 6.79 15.71 -13.52 0zm34.06 15.6l6.9 0 0 -13.69 8.64 0 9.65 13.69 8.19 0 -10.61 -14.87c5.44,-1.57 9.32,-5.44 9.32,-11.9l0 -0.11c0,-3.42 -1.18,-6.29 -3.25,-8.47 -2.52,-2.47 -6.4,-3.93 -11.34,-3.93l-17.51 0 0 39.28zm6.9 -19.81l0 -13.19 10.04 0c5.16,0 8.14,2.24 8.14,6.51l0 0.11c0,4.04 -3.14,6.57 -8.08,6.57l-10.1 0zm50.51 19.81l14.65 0c12.35,0 20.88,-8.59 20.88,-19.64l0 -0.11c0,-11.05 -8.53,-19.53 -20.88,-19.53l-14.65 0 0 39.28zm14.65 -33c8.25,0 13.64,5.67 13.64,13.36l0 0.11c0,7.69 -5.39,13.24 -13.64,13.24l-7.74 0 0 -26.71 7.74 0zm29.24 33l29.4 0 0 -6.17 -22.5 0 0 -10.49 19.7 0 0 -6.23 -19.7 0 0 -10.21 22.22 0 0 -6.17 -29.12 0 0 39.28zm73.06 0.67c6.96,0 12.46,-2.81 16.39,-6.12l0 -16.5 -16.72 0 0 6.06 10.05 0 0 7.3c-2.41,1.8 -5.72,2.98 -9.48,2.98 -8.02,0 -13.36,-5.95 -13.36,-14.03l0 -0.11c0,-7.52 5.56,-13.8 12.74,-13.8 4.94,0 7.97,1.57 11,4.15l4.38 -5.22c-4.04,-3.42 -8.31,-5.33 -15.1,-5.33 -11.9,0 -20.26,9.32 -20.26,20.31l0 0.11c0,11.45 8.08,20.2 20.37,20.2zm22 -0.67l7.07 0 4.04 -9.48 18.58 0 3.98 9.48 7.3 0 -17.28 -39.56 -6.4 0 -17.28 39.56zm13.64 -15.6l6.73 -15.71 6.79 15.71 -13.52 0zm4.04 -27.5l5.28 0 7.18 -5.44 -6.17 -2.69 -6.28 8.14zm43.15 43.66c8.25,0 14.03,-4.32 14.03,-11.73l0 -0.11c0,-6.57 -4.32,-9.37 -12.57,-11.5 -7.58,-1.8 -9.37,-3.14 -9.37,-6.17l0 -0.11c0,-2.64 2.36,-4.66 6.4,-4.66 3.59,0 7.07,1.4 10.66,4.04l3.7 -5.22c-4.04,-3.2 -8.47,-4.94 -14.25,-4.94 -7.8,0 -13.41,4.66 -13.41,11.39l0 0.11c0,7.18 4.71,9.76 13.08,11.73 7.3,1.63 8.87,3.25 8.87,6l0 0.11c0,2.92 -2.69,4.94 -6.96,4.94 -4.88,0 -8.59,-1.8 -12.4,-5.11l-4.15 4.94c4.71,4.27 10.33,6.29 16.39,6.29z"/>
  <path class="fil0" d="M188.7 334.12c20.96,-22.61 36.68,-37.9 63.6,-54.03 2.8,-0.78 13.98,-8.38 20.62,-11.49l59.76 -26.7c2.45,-0.93 4.19,-1.4 4.89,-3.11 7.34,-0.78 13.98,-4.04 20.62,-6.52 6.64,-2.48 14.68,-4.04 21.67,-6.21 9.58,-3.31 27,-11.68 34.95,-19.25 7.76,-8.5 12.22,-13.01 17.82,-22.98 8.39,-18.01 12.23,-38.35 7.69,-59.93 -1.75,-8.69 -4.54,-13.2 -6.64,-19.72 -6.98,-19.93 -25.6,-44.31 -41.24,-57.6l-17.47 -13.82 -22.37 -12.73c-6.99,-3.42 -24.81,-9.78 -24.81,-9.78 -7.34,-4.19 -30.75,-8.23 -38.79,-8.85 -17.12,-1.24 -34.25,-2.64 -51.37,0.47l-22.37 4.66c-8.39,2.95 -20.62,8.07 -28.31,12.42 -1.75,0.93 -2.8,1.4 -4.54,2.48 -34.52,26.98 -51.05,39.78 -67.8,83.83l-7.34 26.08c-2.45,8.69 -4.54,27.79 -4.89,36.79 -0.35,8.38 0.35,19.72 -0.35,27.63 -1.4,1.09 -2.1,1.24 -3.84,2.17l-11.53 7.14c-9.44,6.21 -18.52,13.2 -26.56,21.27 -30.5,31.83 -31.87,41.31 -51.02,77.47l-7.34 29.81c-0.7,4.04 -0.7,7.92 -1.05,11.95 -1.05,11.33 -1.05,39.43 1.05,49.21 5.53,25.98 13.09,50.05 29.01,71.88 3.15,4.5 3.49,6.21 9.79,14.75 5.59,7.3 17.47,21.27 24.81,26.08 16.7,15.41 33.21,24.92 53.82,34.31 3.49,1.71 9.78,3.73 14.33,4.19 7.69,0.62 15.73,0.31 21.67,-3.57 16.49,-12.72 16.71,-34.29 10.14,-52.78l-2.45 -10.09c-5.59,-21.73 -9.44,-43.78 -8.04,-66.6 1.86,-24 16.65,-60.01 33.9,-78.87z"/>
 </g>
</svg>
