<?xml version="1.0" encoding="UTF-8"?>
<!DOCTYPE svg PUBLIC "-//W3C//DTD SVG 1.1//EN" "http://www.w3.org/Graphics/SVG/1.1/DTD/svg11.dtd">
<!-- Creator: CorelDRAW -->
<svg xmlns="http://www.w3.org/2000/svg" xml:space="preserve" width="122.254mm" height="48.2547mm" version="1.1" style="shape-rendering:geometricPrecision; text-rendering:geometricPrecision; image-rendering:optimizeQuality; fill-rule:evenodd; clip-rule:evenodd"
viewBox="0 0 2518.57 994.1"
 xmlns:xlink="http://www.w3.org/1999/xlink"
 xmlns:xodm="http://www.corel.com/coreldraw/odm/2003">
 <defs>
  <style type="text/css">
   <![CDATA[
    .fil0 {fill:#FEFEFE;fill-rule:nonzero}
    .fil1 {fill:#373435;fill-rule:nonzero}
   ]]>
  </style>
 </defs>
 <g id="Camada_x0020_1">
  <metadata id="CorelCorpID_0Corel-Layer"/>
  <polygon class="fil0" points="451.61,361.53 408.8,361.53 214.47,692.57 220.86,712.27 "/>
  <polygon class="fil0" points="227.77,733.4 229.73,733.4 530.1,361.53 477.99,361.53 224.21,722.56 "/>
  <polygon class="fil0" points="193.68,662.17 167.23,743.76 81.4,743.76 150.8,794.19 124.28,875.78 193.68,825.35 263.09,875.78 236.63,794.19 306.04,743.76 220.21,743.76 "/>
  <polygon class="fil0" points="239.9,733.4 262,733.4 627.63,361.53 558.66,361.53 "/>
  <path class="fil0" d="M363.09 289.59l-363.09 0c0,0 42.22,28.35 42.22,87.33 0,18.64 1.96,376.78 1.96,425.86 0,49.08 29.43,90.25 60.83,114.81 31.4,24.53 67.73,34.34 103.05,34.34l89.32 0c55.89,0 65.7,42.17 65.7,42.17 0,0 9.81,-42.17 65.77,-42.17l89.25 0c35.39,0 71.66,-9.81 103.05,-34.34 31.47,-24.56 60.83,-65.73 60.83,-114.81 0,-49.08 1.96,-407.23 1.96,-425.86 0,-58.98 42.22,-87.33 42.22,-87.33l-363.09 0z"/>
  <polygon class="fil1" points="530.1,361.53 229.73,733.4 227.77,733.4 224.21,722.56 477.99,361.53 "/>
  <polygon class="fil1" points="408.8,361.53 451.61,361.53 220.86,712.27 214.47,692.57 "/>
  <polygon class="fil1" points="236.63,794.19 263.09,875.78 193.68,825.35 124.28,875.78 150.8,794.19 81.4,743.76 167.23,743.76 193.68,662.17 220.21,743.76 306.04,743.76 "/>
  <polygon class="fil1" points="262,733.4 239.9,733.4 558.66,361.53 627.63,361.53 "/>
  <path class="fil0" d="M453.86 254.99c-14.39,1.64 -28.78,2.84 -43.17,3.71l0 -31.09c0,-0.08 0,-0.08 0,-0.17 14.39,-0.87 28.78,-2.16 43.17,-3.71l0 31.26zm-47.53 3.96c-14.39,0.78 -28.85,1.21 -43.24,1.21l0 -33.67c14.39,0 27.98,0.52 43.24,1.12l0 31.34zm-47.75 1.21c-14.39,0 -28.78,-0.43 -43.1,-1.21l0 -31.34c14.68,-0.34 28.71,-1.12 43.1,-1.12l0 33.67zm202.84 -60.54c-0.87,1.81 -1.82,3.62 -2.69,5.43 -3.34,-0.87 -6.76,-1.64 -10.1,-2.5 -3.92,0.95 -7.92,1.72 -11.85,2.5 2.62,0.6 5.23,1.21 7.85,1.72 1.16,0.25 2.33,0.52 3.42,0.78 0.07,0 0.07,0 0.15,0.08 1.38,-0.34 2.83,-0.68 4.21,-1.03 0.29,-0.09 0.66,-0.17 0.95,-0.17 1.09,-0.26 2.04,-0.52 3.05,-0.78 -0.51,1.21 -0.94,2.33 -1.45,3.53 -0.73,1.72 -1.38,3.52 -2.11,5.25 -1.53,3.88 -3.05,7.84 -4.65,11.72 -0.07,0.09 -0.07,0.26 -0.15,0.34l0 0.09c-1.89,4.57 -3.71,9.13 -5.52,13.6 -4.36,0.95 -8.72,1.9 -13.08,2.84 -1.31,0.26 -2.69,0.52 -4,0.78 -3.49,0.69 -7.12,1.38 -10.61,2.06 -3.13,0.6 -6.25,1.21 -9.3,1.72l0 -31.34 0.07 0 0 -5.17c-1.6,0.26 -3.05,0.52 -4.51,0.69l0 36.6c-14.32,2.41 -28.56,4.48 -42.88,6.11l0 -31.26 0.07 0 0 -5.25c-1.45,0.17 -2.98,0.35 -4.43,0.52l0 4.4c-7.27,-0.87 -14.39,-1.56 -21.58,-2.16l-0.22 0c-0.51,0 -0.94,0 -1.38,0.09 0,0 0,0 0,0.09 -1.09,0.09 -2.18,0.09 -3.2,0.18 -18.82,1.55 -37.36,2.49 -55.96,2.75l-0.44 0c-15.77,0.18 -31.47,0 -47.17,-0.69l-0.15 0c-10.1,-0.44 -20.28,-1.07 -30.38,-1.88 0.29,1.38 0,2.91 -1.09,3.82 -0.29,0.26 -0.66,0.32 -1.02,0.53 0.07,0.05 0.07,0.09 0.15,0.14 0,0.02 -0.07,0.02 -0.07,0.04 2.33,0.18 4.65,0.47 6.98,0.63l0.22 0c4.14,0.43 8.29,0.68 12.43,0.95l0 31.34c-14.39,-0.87 -28.71,-2.15 -43.1,-3.79l0 -30.92c-0.07,-0.06 -0.22,-0.1 -0.36,-0.15 -1.23,-0.49 -2.54,-0.9 -3.78,-1.42 -0.15,-0.05 -0.22,-0.15 -0.29,-0.21l0 32.19c-14.32,-1.64 -28.64,-3.7 -42.81,-6.2l0 -18.51 -0.07 0 0 -17.31c-1.45,-0.25 -2.98,-0.43 -4.43,-0.69l0 35.74c-6.32,-1.12 -12.64,-2.33 -19.04,-3.53 -4.21,-0.94 -8.5,-1.81 -12.72,-2.75 -1.74,-0.35 -3.42,-0.78 -5.16,-1.12 -1.53,-3.79 -3.13,-7.49 -4.51,-11.2 -0.44,-0.77 -0.66,-1.64 -1.02,-2.41 -1.6,-4.05 -3.27,-8.1 -4.87,-12.14 -0.65,-1.64 -1.31,-3.27 -2.04,-4.91 -0.51,-1.29 -1.02,-2.58 -1.53,-3.87 1.02,0.26 2.04,0.43 3.13,0.69 0.22,0.09 0.58,0.18 0.95,0.26 1.45,0.34 2.91,0.68 4.36,1.03 0.29,0.09 0.43,0.09 0.73,0.17 0.87,-0.25 1.82,-0.52 2.62,-0.68 2.25,-0.52 4.51,-1.04 6.76,-1.38 -3.92,-0.78 -7.77,-1.63 -11.63,-2.5 -3.13,0.69 -6.11,1.38 -9.23,2.16 -0.8,-1.56 -1.53,-3.19 -2.33,-4.74 -1.89,-0.43 -3.85,-0.86 -5.74,-1.29 6.54,16.53 13.01,33.15 19.62,49.51 3.42,0.78 6.9,1.56 10.32,2.33 119.7,26.01 243.76,25.23 363.23,-2.33 6.69,-16.7 13.45,-33.75 20.06,-50.63 -2.25,0.52 -4.51,1.12 -6.69,1.55z"/>
  <path class="fil0" d="M173.7 207.46c-1.45,-0.35 -2.91,-0.69 -4.36,-1.03 -0.36,-0.09 -0.73,-0.17 -0.95,-0.26 -1.09,-0.26 -2.11,-0.43 -3.13,-0.69 0.51,1.29 1.02,2.59 1.53,3.87 0.44,-0.08 0.95,-0.25 1.53,-0.34 0.29,-0.09 0.58,-0.18 0.95,-0.18 1.45,-0.34 2.91,-0.68 4.36,-1.03 0.29,-0.09 0.51,-0.09 0.8,-0.18 -0.29,-0.08 -0.43,-0.08 -0.73,-0.17zm0 0c-1.45,-0.35 -2.91,-0.69 -4.36,-1.03 -0.36,-0.09 -0.73,-0.17 -0.95,-0.26 -1.09,-0.26 -2.11,-0.43 -3.13,-0.69 0.51,1.29 1.02,2.59 1.53,3.87 0.44,-0.08 0.95,-0.25 1.53,-0.34 0.29,-0.09 0.58,-0.18 0.95,-0.18 1.45,-0.34 2.91,-0.68 4.36,-1.03 0.29,-0.09 0.51,-0.09 0.8,-0.18 -0.29,-0.08 -0.43,-0.08 -0.73,-0.17zm0 0c-1.45,-0.35 -2.91,-0.69 -4.36,-1.03 -0.36,-0.09 -0.73,-0.17 -0.95,-0.26 -1.09,-0.26 -2.11,-0.43 -3.13,-0.69 0.51,1.29 1.02,2.59 1.53,3.87 0.44,-0.08 0.95,-0.25 1.53,-0.34 0.29,-0.09 0.58,-0.18 0.95,-0.18 1.45,-0.34 2.91,-0.68 4.36,-1.03 0.29,-0.09 0.51,-0.09 0.8,-0.18 -0.29,-0.08 -0.43,-0.08 -0.73,-0.17zm0 0c-1.45,-0.35 -2.91,-0.69 -4.36,-1.03 -0.36,-0.09 -0.73,-0.17 -0.95,-0.26 -1.09,-0.26 -2.11,-0.43 -3.13,-0.69 0.51,1.29 1.02,2.59 1.53,3.87 0.44,-0.08 0.95,-0.25 1.53,-0.34 0.29,-0.09 0.58,-0.18 0.95,-0.18 1.45,-0.34 2.91,-0.68 4.36,-1.03 0.29,-0.09 0.51,-0.09 0.8,-0.18 -0.29,-0.08 -0.43,-0.08 -0.73,-0.17zm0 0c-1.45,-0.35 -2.91,-0.69 -4.36,-1.03 -0.36,-0.09 -0.73,-0.17 -0.95,-0.26 -1.09,-0.26 -2.11,-0.43 -3.13,-0.69 0.51,1.29 1.02,2.59 1.53,3.87 0.44,-0.08 0.95,-0.25 1.53,-0.34 0.29,-0.09 0.58,-0.18 0.95,-0.18 1.45,-0.34 2.91,-0.68 4.36,-1.03 0.29,-0.09 0.51,-0.09 0.8,-0.18 -0.29,-0.08 -0.43,-0.08 -0.73,-0.17zm402.7 -70.79l0 -31.35c0.22,0.09 0.58,0.18 0.87,0.26 9.09,2.5 18.24,5.08 27.33,7.84 -4.51,9.13 -9.09,18.17 -13.66,27.3 -4.8,-1.38 -9.74,-2.68 -14.53,-4.05zm-1.6 36c-7.34,-1.98 -14.9,-3.79 -22.39,-5.6l0 -31.26c0.15,0 0.15,0 0.15,0 2.83,0.69 5.74,1.38 8.57,2.07 9.23,2.24 18.31,4.73 27.47,7.32 -4.58,9.13 -9.23,18.25 -13.81,27.47zm-13.37 26.95c-0.87,1.81 -1.82,3.62 -2.69,5.43 -3.34,-0.87 -6.76,-1.64 -10.1,-2.5 -3.92,-0.86 -7.85,-1.72 -11.77,-2.58 -2.4,-0.52 -4.8,-1.03 -7.12,-1.47l0 -31.34c5.02,1.04 10.25,2.16 15.26,3.28 9.23,2.15 18.46,4.39 27.62,6.72 -3.71,7.49 -7.41,14.9 -11.19,22.47zm-8.5 17.06c-1.53,3.18 -3.13,6.29 -4.72,9.47 -0.07,0.09 -0.07,0.26 -0.15,0.34l0 0.09c-1.81,3.71 -3.63,7.32 -5.52,11.11 -9.23,-2.07 -18.39,-3.96 -27.69,-5.68 -3.13,-0.6 -6.18,-1.21 -9.23,-1.72l0 -31.34c7.7,1.37 15.48,2.84 23.26,4.48 2.62,0.52 5.23,1.03 7.85,1.64 0.07,0 0.07,0 0.07,0 2.62,0.6 5.23,1.21 7.85,1.72 1.16,0.25 2.33,0.52 3.42,0.78 0.07,0 0.07,0 0.15,0.08 1.38,0.26 2.83,0.6 4.21,0.95 0.36,0.09 0.73,0.17 0.95,0.26 0.58,0.09 1.09,0.26 1.6,0.35 0.51,0.17 1.02,0.26 1.53,0.34 -1.24,2.41 -2.33,4.82 -3.56,7.15zm-70.42 -26.53l0 -31.34c14.32,2.15 28.63,4.56 42.81,7.4l0 31.35c-14.17,-2.84 -28.49,-5.34 -42.81,-7.41zm18.6 39.35c-14.17,-2.41 -28.49,-4.48 -42.81,-6.11 0,-0.09 0,-0.09 0,-0.18l0 -31.17c14.32,1.63 28.64,3.7 42.81,6.11l0 31.34zm-65.92 -44.95l0 -31.35c14.32,1.29 28.64,2.93 42.95,4.99l0 31.26c-14.32,-1.98 -28.63,-3.61 -42.95,-4.91zm18.68 38.32c-7.27,-0.87 -14.39,-1.56 -21.58,-2.16l-0.22 0c-7.05,-0.6 -14.24,-1.12 -21.37,-1.55l0 -31.34c14.46,0.87 28.78,2.07 43.17,3.71l0 31.35zm-66.35 -41.17l0 -31.34c14.39,0.43 28.78,1.29 43.17,2.5l0 31.26c-14.39,-1.21 -28.78,-1.98 -43.17,-2.41zm18.82 37.2c-14.39,-0.78 -28.78,-1.21 -43.24,-1.21l0 -31.34c14.46,0 28.85,0.43 43.24,1.21l0 31.34zm-66.43 -37.38l0 -31.35c14.39,-0.34 28.78,-0.34 43.17,0l0 31.35c-14.39,-0.34 -28.78,-0.34 -43.17,0zm18.68 36.17c-14.39,0 -28.78,0.43 -43.1,1.21l0 -31.27c14.32,-0.86 28.71,-1.29 43.1,-1.29l0 31.34zm-66.28 -33.58l0 -31.34c14.24,-1.21 28.63,-1.98 43.02,-2.41l0 31.26c-14.39,0.52 -28.78,1.29 -43.02,2.5zm18.68 35.04c-7.48,0.43 -14.9,1.03 -22.31,1.72l-20.78 1.9 0 -31.17c14.32,-1.64 28.71,-2.84 43.1,-3.71l0 31.26zm-66.13 -29.71l0 -31.34c14.32,-1.98 28.56,-3.7 42.95,-4.91l0 31.26c-14.39,1.29 -28.64,2.93 -42.95,4.99zm18.6 34.02c-14.32,1.64 -28.49,3.7 -42.81,6.2l-0.07 0 0 -31.35c14.24,-2.41 28.56,-4.48 42.88,-6.2l0 31.34zm-47.31 6.97c-12.35,2.16 -24.71,4.65 -36.99,7.41 -1.45,-3.01 -3.05,-6.02 -4.43,-9.04 -0.44,-0.68 -0.73,-1.46 -1.09,-2.15 -1.67,-3.27 -3.27,-6.54 -4.8,-9.82 -1.24,-2.32 -2.47,-4.73 -3.56,-7.06 0.51,-0.18 1.02,-0.26 1.53,-0.44 0.44,-0.08 0.95,-0.25 1.53,-0.34 0.29,-0.09 0.58,-0.18 0.95,-0.18 1.45,-0.34 2.91,-0.68 4.36,-1.03 0.29,-0.09 0.51,-0.09 0.8,-0.18 0.87,-0.25 1.82,-0.52 2.62,-0.68 2.25,-0.52 4.51,-1.04 6.76,-1.38 10.76,-2.41 21.51,-4.56 32.34,-6.46l0 31.34zm-55.52 -29.96c-3.78,-7.75 -7.63,-15.41 -11.48,-23.08 14.68,-3.87 29.29,-7.32 44.11,-10.33l0 31.35c-7.05,1.46 -14.1,2.92 -21.07,4.64 -3.13,0.69 -6.11,1.38 -9.23,2.16 -0.8,-1.56 -1.53,-3.19 -2.33,-4.74zm-27.55 -55.11c12.06,-3.36 24.13,-6.55 36.19,-9.39l0 31.26c-7.56,1.81 -14.9,3.71 -22.31,5.68 -4.65,-9.21 -9.23,-18.42 -13.88,-27.55zm-12.57 -25.06c-0.07,-0.26 -0.14,-0.52 -0.29,-0.78 -1.02,-1.9 -2.04,-3.87 -2.98,-5.86 9.74,-3.02 19.48,-5.77 29.36,-8.44l0 31.34c-5.23,1.38 -10.54,2.84 -15.7,4.39 -3.49,-6.89 -6.98,-13.78 -10.39,-20.66zm30.45 -16.02c0.14,-0.09 0.29,-0.26 0.43,-0.35 13.88,-3.61 27.84,-6.8 41.86,-9.73l0 31.35c-14.17,2.93 -28.2,6.2 -42.3,9.9l0 -31.17zm65.19 21.96l0 31.34c-14.17,2.5 -28.42,5.34 -42.52,8.61l0 -31.26c14.1,-3.27 28.35,-6.2 42.52,-8.7zm-18.46 -32.89c14.17,-2.84 28.42,-5.34 42.66,-7.41l0 31.35c-14.24,2.06 -28.49,4.56 -42.66,7.4l0 -31.34zm42.66 65.36l0 31.35c-14.24,2.07 -28.49,4.56 -42.66,7.4l0 -31.34c14.17,-2.84 28.42,-5.25 42.66,-7.41zm-19.77 -1.89l0 -31.35c14.24,-2.4 28.56,-4.48 42.88,-6.2l0 31.34c-14.32,1.64 -28.64,3.71 -42.88,6.21zm24.27 -71.56c14.32,-1.98 28.56,-3.62 42.95,-4.91l0 31.34c-14.39,1.29 -28.64,2.93 -42.95,4.91l0 -31.34zm66.13 29.8l0 31.26c-14.39,0.86 -28.78,2.15 -43.1,3.79l0 -31.34c14.32,-1.64 28.71,-2.84 43.1,-3.7zm-18.68 -35.14c14.24,-1.12 28.63,-1.98 43.02,-2.41l0 31.35c-14.39,0.43 -28.78,1.29 -43.02,2.4l0 -31.34zm66.28 33.58l0 31.34c-14.39,0 -28.78,0.44 -43.1,1.21l0 -31.26c14.32,-0.77 28.71,-1.21 43.1,-1.29zm-18.68 -36.16c14.39,-0.35 28.78,-0.35 43.17,0l0 31.34c-14.39,-0.34 -28.78,-0.34 -43.17,0l0 -31.34zm66.43 37.37l0 31.34c-14.39,-0.77 -28.78,-1.21 -43.24,-1.21l0 -31.34c14.46,0.09 28.85,0.44 43.24,1.21zm-18.82 -37.2c14.39,0.43 28.78,1.29 43.17,2.49l0 31.35c-14.39,-1.21 -28.78,-2.06 -43.17,-2.49l0 -31.35zm66.35 41.16l0 31.35c-14.39,-1.64 -28.71,-2.84 -43.17,-3.7l0 -31.34c14.46,0.86 28.78,2.06 43.17,3.7zm-18.68 -38.31c14.32,1.29 28.64,2.93 42.95,4.99l0 31.35c-14.32,-2.06 -28.63,-3.71 -42.95,-4.99l0 -31.34zm65.92 45.04l0 31.26c-14.17,-2.41 -28.49,-4.48 -42.81,-6.11l0 -31.35c14.32,1.72 28.64,3.7 42.81,6.2zm-18.53 -39.44c14.25,2.15 28.56,4.65 42.73,7.49l0 31.35c-14.17,-2.84 -28.49,-5.34 -42.73,-7.49l0 -31.35zm65.55 48.82l0 29.46c-0.36,0.6 -0.58,1.12 -0.87,1.64 -13.88,-3.19 -27.69,-5.95 -41.64,-8.45l0 -31.34c14.17,2.59 28.42,5.43 42.52,8.7zm-18.39 -40.47c14.1,2.93 28.2,6.2 42.23,9.9l0 31.34c-14.03,-3.71 -28.13,-6.98 -42.23,-9.9l0 -31.34zm73.4 8.95c-2.47,-0.77 -4.94,-1.46 -7.41,-2.15 -8.87,-2.67 -17.73,-5.08 -26.6,-7.41 -2.47,-0.6 -4.94,-1.21 -7.49,-1.81 -10.03,-2.58 -20.13,-4.82 -30.3,-6.89 -2.47,-0.6 -5.02,-1.12 -7.49,-1.64 -9.01,-1.8 -18.1,-3.44 -27.18,-4.91 -2.54,-0.43 -5.09,-0.87 -7.7,-1.21 -10.25,-1.63 -20.5,-3.02 -30.74,-4.22 -2.54,-0.34 -5.16,-0.6 -7.63,-0.86 -9.23,-1.03 -18.39,-1.81 -27.62,-2.5 -2.54,-0.25 -5.16,-0.43 -7.7,-0.52 -10.32,-0.69 -20.71,-1.21 -31.03,-1.46 -2.47,-0.09 -5.09,-0.17 -7.63,-0.17 -9.23,-0.26 -18.46,-0.26 -27.76,0 -2.54,-0.09 -5.09,0 -7.63,0.09 -10.32,0.26 -20.79,0.69 -31.11,1.29 -2.62,0.17 -5.16,0.34 -7.63,0.52 -9.23,0.69 -18.39,1.46 -27.62,2.41 -2.47,0.25 -5.01,0.52 -7.63,0.86 -10.32,1.12 -20.64,2.5 -30.89,4.05 -2.54,0.43 -5.01,0.78 -7.49,1.21 -9.16,1.46 -18.24,3.09 -27.33,4.91 -2.47,0.44 -5.09,0.95 -7.56,1.56 -10.1,1.98 -20.28,4.3 -30.31,6.71 -2.54,0.6 -5.01,1.21 -7.56,1.89 -8.86,2.25 -17.81,4.65 -26.67,7.33 -2.47,0.68 -4.87,1.37 -7.41,2.15 -2.4,0.69 -4.72,1.37 -7.12,2.15 -3.63,1.12 -7.27,2.24 -10.83,3.44 23.11,45.81 46.66,92.66 70.35,140.62l0.07 0c3.42,-0.86 6.9,-1.63 10.32,-2.33 0.73,-0.17 1.45,-0.34 2.18,-0.43 3.34,-0.77 6.69,-1.46 10.1,-2.06 6.32,-1.38 12.72,-2.59 19.04,-3.62 1.45,-0.34 3.05,-0.6 4.51,-0.77 14.17,-2.5 28.49,-4.57 42.81,-6.21 1.45,-0.26 2.98,-0.43 4.43,-0.52 14.32,-1.72 28.71,-2.93 43.1,-3.7 1.45,-0.18 2.98,-0.26 4.51,-0.35 14.32,-0.86 28.71,-1.2 43.1,-1.29l4.51 0c14.39,0 28.85,0.43 43.24,1.21 1.45,0.08 2.91,0.17 4.36,0.25 14.39,0.87 28.78,2.06 43.17,3.79 1.45,0.09 2.91,0.26 4.36,0.52 14.39,1.55 28.71,3.61 42.88,6.11 1.45,0.18 2.91,0.43 4.43,0.77 6.61,1.13 13.3,2.33 19.91,3.71 1.53,0.34 2.98,0.6 4.51,0.95 6.03,1.21 12.06,2.59 18.1,3.96l0.07 0c23.69,-47.96 47.09,-94.81 70.35,-140.62 -5.09,-1.63 -10.25,-3.27 -15.34,-4.82zm-429.44 104.2c-1.45,-0.35 -2.91,-0.69 -4.36,-1.03 -0.36,-0.09 -0.73,-0.17 -0.95,-0.26 -1.09,-0.26 -2.11,-0.43 -3.13,-0.69 0.51,1.29 1.02,2.59 1.53,3.87 0.44,-0.08 0.95,-0.25 1.53,-0.34 0.29,-0.09 0.58,-0.18 0.95,-0.18 1.45,-0.34 2.91,-0.68 4.36,-1.03 0.29,-0.09 0.51,-0.09 0.8,-0.18 -0.29,-0.08 -0.43,-0.08 -0.73,-0.17zm0 0c-1.45,-0.35 -2.91,-0.69 -4.36,-1.03 -0.36,-0.09 -0.73,-0.17 -0.95,-0.26 -1.09,-0.26 -2.11,-0.43 -3.13,-0.69 0.51,1.29 1.02,2.59 1.53,3.87 0.44,-0.08 0.95,-0.25 1.53,-0.34 0.29,-0.09 0.58,-0.18 0.95,-0.18 1.45,-0.34 2.91,-0.68 4.36,-1.03 0.29,-0.09 0.51,-0.09 0.8,-0.18 -0.29,-0.08 -0.43,-0.08 -0.73,-0.17zm0 0c-1.45,-0.35 -2.91,-0.69 -4.36,-1.03 -0.36,-0.09 -0.73,-0.17 -0.95,-0.26 -1.09,-0.26 -2.11,-0.43 -3.13,-0.69 0.51,1.29 1.02,2.59 1.53,3.87 0.44,-0.08 0.95,-0.25 1.53,-0.34 0.29,-0.09 0.58,-0.18 0.95,-0.18 1.45,-0.34 2.91,-0.68 4.36,-1.03 0.29,-0.09 0.51,-0.09 0.8,-0.18 -0.29,-0.08 -0.43,-0.08 -0.73,-0.17zm0 0c-1.45,-0.35 -2.91,-0.69 -4.36,-1.03 -0.36,-0.09 -0.73,-0.17 -0.95,-0.26 -1.09,-0.26 -2.11,-0.43 -3.13,-0.69 0.51,1.29 1.02,2.59 1.53,3.87 0.44,-0.08 0.95,-0.25 1.53,-0.34 0.29,-0.09 0.58,-0.18 0.95,-0.18 1.45,-0.34 2.91,-0.68 4.36,-1.03 0.29,-0.09 0.51,-0.09 0.8,-0.18 -0.29,-0.08 -0.43,-0.08 -0.73,-0.17z"/>
  <path class="fil0" d="M611.06 75.28c-13.95,-4.4 -28.2,-7.67 -42.44,-11.45l7.41 -30.83c14.75,3.96 29.51,7.32 44.04,11.88l-9.01 30.4zm-41.28 -51.67l-10.61 46.07 7.41 1.64 -4.94 20.58 -0.51 2.24 7.41 1.9 0.58 -2.33 5.09 -20.41 27.4 7.23 -5.89 20.58 -0.58 1.98 7.41 2.24 0.58 -2.07 5.96 -20.41 7.34 2.15 13.73 -45.2c-19.84,-6.29 -40.12,-11.37 -60.39,-16.19z"/>
  <path class="fil0" d="M536.78 56.76c-14.39,-2.5 -28.78,-5.6 -43.31,-7.49l4.72 -31.34c15.04,1.98 29.87,5.17 44.84,7.75l-6.25 31.08zm-45.64 -47.7l-6.69 46.85 7.63 1.03 -3.13 20.32 -0.44 2.84 7.7 1.12 0.44 -2.75 3.13 -20.41 27.91 4.99 -3.85 20.32 -0.51 2.68 7.49 1.37 0.51 -2.41 4.14 -20.57 7.49 1.72 9.74 -46.33c-20.42,-4.22 -40.92,-8.01 -61.56,-10.76z"/>
  <path class="fil0" d="M461.06 44.97c-14.54,-1.56 -29.07,-3.02 -43.75,-3.71l2.04 -31.69c15.12,0.77 30.16,2.33 45.28,3.96l-3.56 31.43zm-18.39 -41.51c-10.39,-0.95 -20.79,-1.46 -31.18,-2.15l-2.54 47.19 7.63 0.52 -1.31 20.15 -0.22 3.19 7.7 0.52 0.22 -3.19 1.38 -20.15c9.52,0.43 18.9,1.46 28.27,2.49l-2.04 20.15 -0.36 3.1 7.63 0.77 0.36 -3.02 2.25 -20.23 7.56 0.78 5.67 -46.93 -31.03 -3.19z"/>
  <path class="fil0" d="M384.67 39.8c-14.61,-0.6 -29.29,-0.26 -43.9,-0.09l-0.87 -31.61c15.26,-0.17 30.38,-0.6 45.57,0l-0.8 31.69zm-53.2 -39.35l1.6 47.28c2.54,-0.18 5.09,-0.09 7.63,-0.18l0.51 20.07 0.07 3.36 7.63 -0.09 -0.07 -3.36 -0.29 -20.07c9.45,0 18.9,-0.43 28.42,0l-0.36 20.07 -0.07 3.36 7.63 0.17 0.07 -3.36 0.51 -20.07 7.63 0.18 1.6 -47.28c-20.86,-0.78 -41.65,-0.6 -62.5,-0.09z"/>
  <path class="fil0" d="M264.32 44.97l-3.56 -31.52c15.19,-1.47 30.23,-3.02 45.42,-3.88l1.96 31.6c-14.68,0.87 -29.22,2.33 -43.82,3.79zm44.55 3.96l7.63 -0.35 -2.54 -47.28c-10.39,0.43 -20.79,1.21 -31.18,2.24 -10.39,0.95 -20.79,1.72 -31.03,3.19l5.67 46.93 7.56 -0.95 2.25 19.98 0.36 3.36c2.54,-0.43 5.09,-0.69 7.63,-0.86l-0.36 -3.36 -2.03 -19.9 28.12 -2.58 1.53 20.07 0.22 3.36 7.56 -0.43 -0.15 -3.44 -1.24 -19.98z"/>
  <path class="fil0" d="M188.67 56.94l-6.25 -31.09c14.83,-3.36 29.87,-5.33 44.84,-8.01l4.72 31.35c-14.46,2.59 -29,4.48 -43.31,7.75zm44.7 -0.09c2.54,-0.43 5.01,-0.69 7.63,-1.03l-6.69 -46.85c-20.64,3.1 -41.21,6.45 -61.56,10.94l9.74 46.24 7.49 -1.56 4 19.81 0.66 3.18 7.48 -1.55 -0.58 -3.19 -3.78 -19.8c9.23,-1.98 18.6,-3.27 27.91,-4.91l3.2 19.81 0.51 3.36 7.49 -1.29 -0.51 -3.27 -2.98 -19.89z"/>
  <path class="fil0" d="M135.47 69.25l-21.08 6.03 -8.94 -30.4 21.87 -6.29 22.09 -5.43 7.41 30.74 -21.37 5.34zm23.4 2.24l7.41 -1.9 -10.68 -45.98 -30.3 7.49 -30.02 8.61 13.66 45.29 7.41 -2.15 5.67 19.64 0.87 2.84 7.41 -2.15 -0.87 -2.84 -5.6 -19.64c9.09,-2.75 18.24,-5.17 27.4,-7.32l4.87 19.63 0.8 3.1 7.49 -1.9 -0.73 -3.1 -4.8 -19.64z"/>
  <polygon class="fil0" points="181.62,241.49 255.38,231.96 341.14,220.92 528.28,238.98 530.75,247.51 509.24,253.53 401.83,264.56 328.64,263.56 191.14,249.52 "/>
  <path class="fil0" d="M850.6 349.18c0,-11.7 -3.63,-21.19 -10.83,-28.45 -7.34,-7.27 -19.99,-11.79 -38.08,-13.57 -1.74,0 -3.05,-0.97 -4,-2.92 -0.87,-1.94 -1.31,-3.99 -1.31,-6.11 0,-2.13 0.43,-4.08 1.31,-5.85 0.94,-1.77 2.4,-2.66 4.58,-2.66 4.21,0 10.97,0 20.2,0 9.16,0 18.6,0.26 28.13,0.79 9.59,0.54 18.31,1.33 26.09,2.39 7.77,1.07 12.43,2.49 13.81,4.26l214.4 254.75c4.21,4.61 6.32,3.72 6.32,-2.66l0 -130.3c0,-5.67 0,-12.58 0,-20.74 0,-8.51 -0.15,-16.93 -0.51,-25.26 -0.36,-8.33 -0.8,-16.22 -1.31,-23.66 -0.58,-7.45 -1.53,-13.29 -2.98,-17.55 -1.74,-5.32 -3.49,-9.48 -5.31,-12.51 -1.74,-3 -4.14,-5.31 -7.12,-6.9 -3.05,-1.6 -6.76,-2.67 -11.19,-3.19 -4.43,-0.54 -9.88,-1.15 -16.21,-1.87 -1.82,0 -3.13,-0.97 -4,-2.92 -0.94,-1.94 -1.38,-3.99 -1.38,-6.11 0,-2.13 0.36,-4.08 1.09,-5.85 0.73,-1.77 2.11,-2.66 4.29,-2.66 8.5,0 17.59,0.53 27.4,1.59 9.74,1.07 19.55,1.59 29.51,1.59 9.16,0 18.31,-0.52 27.4,-1.59 9.01,-1.06 19.19,-1.59 30.52,-1.59 2.18,0 3.78,0.89 4.8,2.66 1.09,1.77 1.6,3.72 1.6,5.85 0,2.12 -0.51,4.17 -1.6,6.11 -1.02,1.96 -2.62,2.92 -4.8,2.92 -6.39,0.72 -11.41,1.25 -15.12,1.6 -3.71,0.36 -6.91,1.24 -9.59,2.66 -2.69,1.42 -5.09,3.64 -7.2,6.65 -2.11,3.01 -4.43,7.53 -6.9,13.56 -1.74,4.26 -3.2,10.1 -4.21,17.55 -1.09,7.44 -1.89,15.42 -2.4,23.93 -0.58,8.5 -0.8,17.01 -0.8,25.53 0,8.5 0,15.95 0,22.33l0 230.29c0,1.06 -1.02,1.94 -2.98,2.65 -1.96,0.71 -4.21,1.16 -6.9,1.33 -2.62,0.17 -5.23,0.09 -7.7,-0.26 -2.47,-0.36 -4.07,-1.07 -4.8,-2.13l-228.64 -271.24c-2.91,-3.18 -5.01,-4.69 -6.39,-4.52 -1.45,0.19 -2.18,2.58 -2.18,7.18l0 193.59c0,12.76 1.02,22.69 2.98,29.78 1.89,7.1 4.94,12.33 9.01,15.68 4.07,3.38 9.16,5.68 15.19,6.92 6.03,1.25 13.08,2.39 21.22,3.46 2.18,0.36 3.78,1.42 4.8,3.19 1.09,1.78 1.53,3.72 1.38,5.85 -0.22,2.13 -0.8,4.08 -1.89,5.85 -1.09,1.77 -2.69,2.66 -4.8,2.66 -7.77,0 -16.42,-0.62 -25.8,-1.87 -9.38,-1.24 -20.49,-1.85 -33.21,-1.85 -13.52,0 -25.44,0.62 -35.9,1.85 -10.47,1.24 -19.26,1.87 -26.31,1.87 -1.82,0 -3.2,-0.89 -4.29,-2.66 -1.09,-1.77 -1.67,-3.72 -1.89,-5.85 -0.15,-2.13 0.29,-4.07 1.38,-5.85 1.02,-1.77 2.62,-2.83 4.8,-3.19 9.16,-1.07 16.86,-2.21 23.11,-3.46 6.18,-1.24 11.19,-3.54 14.9,-6.92 3.71,-3.36 6.4,-8.58 8,-15.68 1.53,-7.09 2.33,-17.02 2.33,-29.78l0 -228.69z"/>
  <path class="fil0" d="M1386.73 502.34c4.94,0 8.29,-0.79 10.1,-2.39 1.74,-1.59 1.74,-4.52 0,-8.77l-46.29 -124.45c-0.73,-1.77 -2.11,-2.67 -4.21,-2.67 -2.18,0 -3.56,0.89 -4.29,2.67l-48.4 124.45c-1.74,4.61 -1.96,7.62 -0.51,9.03 1.38,1.43 4.07,2.13 8,2.13l85.61 0zm-91.5 20.75c-4.94,0 -8.5,0.79 -10.61,2.39 -2.11,1.59 -4.07,4.35 -5.89,8.24l-23.91 62.75c-1.74,5.32 -2.69,9.4 -2.69,12.23 0,4.61 1.16,8.43 3.49,11.44 2.33,3.01 5.38,5.41 9.3,7.18 3.92,1.77 8.36,3.18 13.3,4.25 4.94,1.06 10.1,1.77 15.41,2.13 2.47,0 4.29,0.97 5.3,2.93 1.09,1.95 1.6,3.98 1.6,6.11 0,2.13 -0.51,4.17 -1.6,6.11 -1.02,1.95 -2.83,2.92 -5.3,2.92 -8.5,0 -18.24,-0.71 -29.21,-2.12 -10.97,-1.41 -21.44,-2.12 -31.4,-2.12 -9.23,0 -18.1,0.71 -26.6,2.12 -8.5,1.41 -17.73,2.12 -27.62,2.12 -1.82,0 -3.34,-0.89 -4.58,-2.65 -1.24,-1.77 -1.89,-3.72 -2.11,-5.85 -0.15,-2.13 0.22,-4.17 1.09,-6.12 0.87,-1.94 2.54,-3.1 5.01,-3.45l8 -1.07c5.3,-1.06 10.17,-2.39 14.61,-3.98 4.43,-1.6 8.5,-4.16 12.28,-7.72 3.71,-3.54 7.34,-8.24 10.9,-14.09 3.49,-5.85 7.05,-13.38 10.61,-22.6l120.21 -302.62c1.02,-2.83 3.85,-4.26 8.5,-4.26 4.94,0 8.86,1.43 11.7,4.26 8.87,22.69 18.31,46.98 28.42,72.86 10.17,25.89 20.49,52.22 31.11,78.98 10.68,26.77 21.29,53.37 31.98,79.77 10.61,26.42 20.71,51.33 30.31,74.73 4.21,10.29 8.43,18.26 12.5,23.94 4.07,5.67 8.14,9.92 12.21,12.76 4.07,2.84 8.21,4.79 12.5,5.85 4.29,1.07 8.87,2.13 13.81,3.2 2.18,0.36 3.63,1.51 4.51,3.45 0.95,1.95 1.38,3.99 1.38,6.12 0,2.13 -0.43,4.08 -1.38,5.85 -0.87,1.77 -2.18,2.65 -3.92,2.65 -11.41,0 -22.31,-0.71 -32.7,-2.12 -10.47,-1.41 -22.31,-2.12 -35.39,-2.12 -14.9,0 -28.93,0.71 -42.01,2.12 -13.15,1.41 -25.73,2.12 -37.79,2.12 -2.47,0 -4.36,-0.97 -5.6,-2.92 -1.23,-1.94 -1.82,-4.16 -1.82,-6.65 0,-2.12 0.51,-3.98 1.6,-5.57 1.02,-1.61 2.83,-2.57 5.3,-2.93 12.06,-1.42 20.93,-3.54 26.6,-6.38 5.67,-2.83 8.5,-8.68 8.5,-17.55 0,-2.49 -0.29,-5.33 -0.8,-8.51 -0.51,-3.19 -1.67,-7.53 -3.49,-13.03 -1.74,-5.49 -4.21,-12.58 -7.41,-21.27 -3.2,-8.69 -7.48,-19.76 -12.79,-33.24 -1.74,-4.61 -4.14,-7.53 -7.19,-8.78 -2.98,-1.24 -7.85,-1.85 -14.61,-1.85l-93.61 0z"/>
  <path class="fil0" d="M1715.15 579.46c0,11.7 0.58,20.84 1.6,27.39 1.09,6.57 3.49,11.62 7.2,15.15 3.71,3.55 8.94,6.12 15.7,7.72 6.76,1.59 15.77,2.92 27.11,3.99 2.11,0.36 3.85,1.51 5.09,3.45 1.24,1.95 1.82,3.99 1.82,6.12 0,2.13 -0.58,4.08 -1.82,5.85 -1.24,1.77 -3.13,2.65 -5.6,2.65 -14.17,0 -27.76,-0.71 -40.7,-2.12 -12.94,-1.41 -25.8,-2.12 -38.59,-2.12 -13.45,0 -27.33,0.71 -41.72,2.12 -14.39,1.41 -27.4,2.12 -39.1,2.12 -2.11,0 -3.71,-0.89 -4.8,-2.65 -1.02,-1.77 -1.6,-3.72 -1.6,-5.85 0,-2.13 0.58,-4.17 1.6,-6.12 1.09,-1.94 2.69,-3.1 4.8,-3.45 10.97,-1.07 19.77,-2.4 26.31,-3.99 6.61,-1.6 11.7,-4.16 15.48,-7.72 3.71,-3.53 6.18,-8.58 7.41,-15.15 1.23,-6.56 1.89,-15.69 1.89,-27.39l0 -236.13c0,-13.12 -3.34,-21.36 -9.88,-24.73 -6.54,-3.37 -17.66,-5.05 -33.21,-5.05 -13.15,0 -23.91,0.97 -32.49,2.92 -8.5,1.96 -15.48,5.5 -21,10.63 -5.45,5.15 -9.88,12.15 -13.3,21.01 -3.34,8.87 -6.47,20.39 -9.3,34.57 -0.29,2.13 -1.45,3.55 -3.42,4.26 -1.96,0.71 -3.92,0.97 -5.89,0.79 -1.96,-0.18 -3.71,-0.79 -5.3,-1.86 -1.6,-1.06 -2.4,-2.31 -2.4,-3.72 1.45,-13.12 2.25,-26.5 2.4,-40.15 0.22,-13.65 -0.58,-27.21 -2.4,-40.69 0,-3.9 2.47,-6.56 7.49,-7.97 4.94,-1.42 10.39,-2.13 16.5,-2.13l284.53 0c6.69,0 12.28,0.62 16.71,1.86 4.43,1.25 6.69,3.82 6.69,7.71 -0.73,4.26 -1.38,9.49 -1.89,15.69 -0.51,6.21 -0.8,13.03 -0.8,20.47 0,7.45 0.29,15.08 0.8,22.87 0.51,7.81 1.16,15.25 1.89,22.34 0,1.42 -0.95,2.75 -2.69,3.99 -1.74,1.24 -3.71,1.95 -5.82,2.12 -2.18,0.19 -4.21,-0.08 -6.18,-0.8 -1.89,-0.7 -3.05,-2.13 -3.42,-4.25 -2.11,-14.18 -5.01,-25.79 -8.5,-34.83 -3.56,-9.04 -8.28,-16.13 -14.1,-21.28 -5.89,-5.13 -13.01,-8.68 -21.58,-10.63 -8.5,-1.95 -18.6,-2.92 -30.31,-2.92 -15.92,0 -27.47,1.68 -34.52,5.05 -7.12,3.37 -10.68,11.61 -10.68,24.73l0 236.13z"/>
  <path class="fil0" d="M2031.95 502.34c4.94,0 8.29,-0.79 10.1,-2.39 1.74,-1.59 1.74,-4.52 0,-8.77l-46.29 -124.45c-0.73,-1.77 -2.11,-2.67 -4.29,-2.67 -2.11,0 -3.49,0.89 -4.21,2.67l-48.4 124.45c-1.82,4.61 -1.96,7.62 -0.51,9.03 1.38,1.43 4.07,2.13 7.92,2.13l85.68 0zm-91.5 20.75c-4.94,0 -8.5,0.79 -10.61,2.39 -2.18,1.59 -4.14,4.35 -5.89,8.24l-23.91 62.75c-1.82,5.32 -2.69,9.4 -2.69,12.23 0,4.61 1.16,8.43 3.49,11.44 2.25,3.01 5.38,5.41 9.3,7.18 3.85,1.77 8.28,3.18 13.3,4.25 4.94,1.06 10.1,1.77 15.41,2.13 2.47,0 4.29,0.97 5.31,2.93 1.09,1.95 1.6,3.98 1.6,6.11 0,2.13 -0.51,4.17 -1.6,6.11 -1.02,1.95 -2.83,2.92 -5.31,2.92 -8.5,0 -18.24,-0.71 -29.21,-2.12 -11.05,-1.41 -21.51,-2.12 -31.4,-2.12 -9.23,0 -18.1,0.71 -26.6,2.12 -8.5,1.41 -17.73,2.12 -27.69,2.12 -1.74,0 -3.27,-0.89 -4.51,-2.65 -1.24,-1.77 -1.96,-3.72 -2.11,-5.85 -0.22,-2.13 0.14,-4.17 1.02,-6.12 0.94,-1.94 2.62,-3.1 5.09,-3.45l8 -1.07c5.3,-1.06 10.17,-2.39 14.61,-3.98 4.43,-1.6 8.5,-4.16 12.21,-7.72 3.71,-3.54 7.34,-8.24 10.9,-14.09 3.56,-5.85 7.12,-13.38 10.68,-22.6l120.21 -302.62c1.02,-2.83 3.85,-4.26 8.5,-4.26 4.94,0 8.87,1.43 11.7,4.26 8.87,22.69 18.31,46.98 28.42,72.86 10.1,25.89 20.49,52.22 31.11,78.98 10.68,26.77 21.29,53.37 31.9,79.77 10.68,26.42 20.78,51.33 30.31,74.73 4.29,10.29 8.43,18.26 12.5,23.94 4.07,5.67 8.21,9.92 12.28,12.76 4.07,2.84 8.21,4.79 12.5,5.85 4.21,1.07 8.87,2.13 13.81,3.2 2.11,0.36 3.63,1.51 4.51,3.45 0.87,1.95 1.31,3.99 1.31,6.12 0,2.13 -0.43,4.08 -1.31,5.85 -0.87,1.77 -2.18,2.65 -4,2.65 -11.34,0 -22.24,-0.71 -32.7,-2.12 -10.47,-1.41 -22.24,-2.12 -35.32,-2.12 -14.9,0 -28.93,0.71 -42.08,2.12 -13.08,1.41 -25.65,2.12 -37.72,2.12 -2.47,0 -4.36,-0.97 -5.6,-2.92 -1.24,-1.94 -1.89,-4.16 -1.89,-6.65 0,-2.12 0.58,-3.98 1.6,-5.57 1.09,-1.61 2.83,-2.57 5.38,-2.93 11.99,-1.42 20.86,-3.54 26.53,-6.38 5.67,-2.83 8.58,-8.68 8.58,-17.55 0,-2.49 -0.29,-5.33 -0.8,-8.51 -0.58,-3.19 -1.74,-7.53 -3.49,-13.03 -1.74,-5.49 -4.29,-12.58 -7.41,-21.27 -3.2,-8.69 -7.48,-19.76 -12.79,-33.24 -1.82,-4.61 -4.14,-7.53 -7.2,-8.78 -2.98,-1.24 -7.85,-1.85 -14.61,-1.85l-93.61 0z"/>
  <path class="fil0" d="M2280.21 370.98c0,-10.99 -0.58,-20.38 -1.89,-28.19 -1.24,-7.8 -3.63,-14.17 -7.12,-19.14 -3.56,-4.96 -8.65,-8.77 -15.19,-11.43 -6.54,-2.67 -15.34,-4.34 -26.31,-5.06 -2.11,0 -3.71,-0.97 -4.8,-2.92 -1.09,-1.94 -1.6,-3.99 -1.6,-6.11 0,-2.13 0.51,-4.08 1.6,-5.85 1.09,-1.77 2.69,-2.66 4.8,-2.66 11.34,0 24.27,0.53 38.81,1.59 14.54,1.07 28.2,1.59 40.99,1.59 7.41,0 14.39,-0.17 21,-0.52 6.54,-0.36 12.94,-0.71 19.11,-1.07 6.18,-0.35 12.5,-0.7 18.9,-1.06 6.39,-0.36 13.3,-0.53 20.71,-0.53 2.11,0 3.63,0.89 4.51,2.66 0.95,1.77 1.24,3.72 1.09,5.85 -0.14,2.12 -0.8,4.17 -1.89,6.11 -1.02,1.96 -2.47,2.92 -4.21,2.92 -10.97,0.72 -19.84,2.22 -26.6,4.52 -6.76,2.32 -11.85,5.85 -15.41,10.64 -3.56,4.78 -5.89,11.08 -6.9,18.88 -1.09,7.81 -1.6,17.73 -1.6,29.78l0 185.08c0,11.35 0.51,20.83 1.6,28.45 1.02,7.63 2.98,14 5.81,19.14 2.83,5.14 6.76,9.14 11.7,11.97 4.94,2.84 11.19,5.31 18.6,7.44 5.01,1.06 10.54,1.86 16.79,2.39 6.18,0.54 12.64,0.8 19.4,0.8 8.5,0 16.5,-0.35 23.91,-1.06 7.48,-0.7 13.15,-1.77 17.01,-3.2 7.12,-2.47 13.23,-5.13 18.39,-7.97 5.16,-2.83 9.45,-6.56 13.01,-11.17 3.56,-4.6 6.47,-10.37 8.79,-17.29 2.33,-6.91 4.14,-15.68 5.6,-26.32 0.36,-2.13 1.6,-3.53 3.71,-4.25 2.11,-0.7 4.43,-1.06 6.9,-1.06 2.47,0 4.72,0.53 6.69,1.59 1.89,1.07 2.69,2.48 2.4,4.26 -1.82,14.88 -3.42,28.81 -4.8,41.75 -1.45,12.94 -1.96,26.15 -1.6,39.62 0,1.06 -0.73,2.57 -2.18,4.52 -1.38,1.96 -4.72,2.93 -10.1,2.93l-193.03 0c-13.81,0 -27.11,0.44 -39.9,1.33 -12.79,0.88 -25.36,1.68 -37.79,2.39 -2.47,0 -4.29,-0.89 -5.52,-2.66 -1.24,-1.77 -1.89,-3.73 -1.89,-5.85 0,-2.12 0.66,-4.16 1.89,-6.12 1.23,-1.94 3.05,-3.1 5.52,-3.45 11.05,-1.41 19.91,-2.93 26.6,-4.52 6.76,-1.6 11.92,-4.07 15.48,-7.45 3.49,-3.36 5.89,-8.32 7.12,-14.89 1.31,-6.56 1.89,-15.68 1.89,-27.38l0 -208.48 0 -0.53z"/>
  <path class="fil0" d="M857.28 853.43c0,1.45 0.44,2.34 1.24,2.7 0.8,0.36 2.33,0.54 4.43,0.54 8.79,0 16.21,-0.68 22.17,-2.03 5.89,-1.35 10.68,-3.6 14.24,-6.74 3.63,-3.15 6.18,-7.24 7.7,-12.27 1.53,-5.04 2.33,-11.34 2.33,-18.89 0,-14.21 -2.62,-24.24 -7.85,-30.09 -5.23,-5.84 -14.17,-8.77 -26.96,-8.77 -7.05,0 -11.63,0.9 -13.88,2.7 -2.25,1.8 -3.42,5.49 -3.42,11.06l0 61.79zm0 58.55c0,6.12 0.66,11.02 1.89,14.7 1.31,3.69 3.2,6.57 5.81,8.63 2.62,2.07 5.81,3.56 9.74,4.45 3.85,0.9 8.36,1.53 13.59,1.89 1.31,0 2.18,0.49 2.69,1.48 0.58,0.99 0.87,2.12 0.87,3.37 0,1.08 -0.36,2.07 -0.95,2.97 -0.65,0.89 -1.6,1.34 -2.91,1.34 -9.67,0 -18.02,-0.36 -24.93,-1.08 -6.91,-0.72 -13.59,-1.08 -20.06,-1.08 -6.9,0 -13.59,0.36 -20.28,1.08 -6.69,0.71 -13.15,1.08 -19.4,1.08 -1.09,0 -1.89,-0.45 -2.47,-1.34 -0.51,-0.9 -0.8,-1.89 -0.95,-2.97 -0.07,-1.08 0.15,-2.12 0.73,-3.1 0.51,-0.99 1.38,-1.57 2.69,-1.75 5.01,-0.54 9.16,-1.26 12.43,-2.16 3.2,-0.9 5.74,-2.34 7.48,-4.32 1.82,-1.98 3.05,-4.59 3.71,-7.83 0.58,-3.23 0.94,-7.55 0.94,-12.95l0 -100.65c0,-3.95 -0.14,-7.91 -0.29,-11.87 -0.22,-3.95 -0.8,-7.59 -1.74,-10.93 -1.02,-3.32 -2.47,-6.16 -4.36,-8.5 -1.89,-2.34 -4.43,-3.86 -7.63,-4.59 -2.04,-0.36 -4.07,-0.76 -6.25,-1.21 -2.18,-0.45 -4.21,-0.76 -6.18,-0.94 -1.09,0 -1.89,-0.45 -2.47,-1.35 -0.51,-0.9 -0.8,-1.89 -0.8,-2.96 0,-1.08 0.29,-2.07 0.8,-2.97 0.58,-0.89 1.38,-1.34 2.47,-1.34 6.1,0 11.56,0.27 16.43,0.81 4.87,0.54 10.54,0.81 17.01,0.81 10.83,-0.18 19.77,-0.5 26.89,-0.94 7.05,-0.45 13.88,-0.68 20.35,-0.68 7.2,0 14.25,0.76 21.15,2.29 6.98,1.53 13.08,4.14 18.39,7.83 5.3,3.69 9.59,8.5 12.79,14.43 3.27,5.94 4.87,13.22 4.87,21.85 0,10.08 -1.96,18.45 -5.96,25.1 -3.92,6.66 -9.38,12.06 -16.28,16.19 -6.98,4.14 -15.12,7.15 -24.42,9.04 -9.38,1.89 -19.48,3.01 -30.23,3.37 -1.82,0 -3.13,0.27 -3.92,0.81 -0.8,0.54 -1.24,2.07 -1.24,4.59l0 39.39z"/>
  <path class="fil0" d="M1016.74 845.33c0,4.68 1.31,7.43 3.92,8.23 2.62,0.81 6.54,1.21 11.77,1.21 6.98,0 12.86,-0.68 17.66,-2.02 4.8,-1.35 8.58,-3.6 11.48,-6.75 2.83,-3.15 4.87,-7.19 6.03,-12.14 1.16,-4.94 1.74,-11.01 1.74,-18.21 0,-6.83 -0.58,-12.63 -1.89,-17.4 -1.24,-4.77 -3.27,-8.63 -6.03,-11.61 -2.83,-2.96 -6.47,-5.08 -10.9,-6.34 -4.51,-1.26 -10.03,-1.89 -16.5,-1.89 -6.98,0 -11.63,0.9 -13.88,2.7 -2.25,1.8 -3.42,5.49 -3.42,11.07l0 53.15zm-29.36 -32.1c0,-3.96 -0.15,-7.83 -0.44,-11.6 -0.29,-3.78 -0.87,-7.29 -1.74,-10.53 -0.87,-3.23 -2.33,-6.02 -4.14,-8.36 -1.89,-2.33 -4.51,-3.95 -7.7,-4.86 -2.04,-0.54 -4.07,-0.99 -6.25,-1.35 -2.11,-0.36 -4.21,-0.62 -6.18,-0.81 -1.09,0 -1.89,-0.45 -2.47,-1.35 -0.51,-0.9 -0.8,-1.89 -0.8,-2.96 0,-1.08 0.29,-2.07 0.8,-2.97 0.58,-0.89 1.38,-1.34 2.47,-1.34 6.1,0 11.63,0.17 16.42,0.54 4.87,0.36 10.54,0.54 17.01,0.54 10.83,-0.18 19.77,-0.4 26.89,-0.68 7.05,-0.27 13.88,-0.4 20.35,-0.4 7.19,0 14.32,0.85 21.29,2.56 7.05,1.72 13.3,4.46 18.75,8.23 5.52,3.78 9.88,8.73 13.23,14.84 3.34,6.11 5.02,13.49 5.02,22.12 0,6.84 -1.02,12.77 -3.13,17.81 -2.04,5.04 -4.87,9.35 -8.5,12.95 -3.56,3.6 -7.85,6.52 -12.79,8.76 -4.94,2.25 -10.32,4 -16.06,5.26 -1.24,0.36 -1.89,0.99 -1.89,1.89 0,0.72 0.65,1.44 1.89,2.16 8.43,4.14 14.97,8.73 19.55,13.77 4.58,5.04 8.14,10.25 10.54,15.65 2.4,5.39 4.21,10.93 5.23,16.59 1.09,5.67 2.25,11.2 3.56,16.6 0.87,4.13 2.32,7.14 4.43,9.03 2.04,1.89 4.14,2.83 6.32,2.83 2.18,0 4.21,-0.89 6.25,-2.69 1.96,-1.8 3.49,-4.49 4.58,-8.1 0.36,-1.44 1.09,-2.38 2.11,-2.83 1.09,-0.44 2.11,-0.54 3.13,-0.27 1.02,0.27 1.89,0.81 2.69,1.62 0.8,0.81 1.16,1.66 0.95,2.56 -0.51,4.5 -1.82,8.37 -3.78,11.6 -1.96,3.24 -4.36,5.89 -7.12,7.96 -2.83,2.07 -5.96,3.6 -9.45,4.59 -3.49,0.99 -6.98,1.49 -10.39,1.49 -5.74,0 -10.97,-1.26 -15.62,-3.78 -4.72,-2.51 -7.85,-6.11 -9.45,-10.79 -1.09,-3.06 -2.11,-6.38 -3.13,-9.99 -1.02,-3.6 -1.96,-7.24 -2.83,-10.93 -0.87,-3.68 -1.82,-7.28 -2.69,-10.79 -0.95,-3.5 -1.74,-6.61 -2.47,-9.31 -3.2,-11.51 -7.41,-19.78 -12.5,-24.82 -5.16,-5.03 -12.28,-7.56 -21.44,-7.56 -3.05,0 -5.67,0.63 -7.85,1.89 -2.18,1.26 -3.27,3.78 -3.27,7.56l0 36.42c0,6.12 0.65,11.02 1.89,14.7 1.31,3.69 3.2,6.57 5.67,8.63 2.54,2.07 5.67,3.56 9.3,4.45 3.71,0.9 8,1.53 12.86,1.89 1.09,0 1.89,0.49 2.54,1.48 0.66,0.99 0.95,2.12 0.95,3.37 0,1.08 -0.29,2.07 -0.95,2.97 -0.65,0.89 -1.6,1.34 -2.83,1.34 -9.01,0 -16.93,-0.36 -23.76,-1.08 -6.83,-0.72 -13.45,-1.08 -19.92,-1.08 -6.83,0 -13.59,0.36 -20.28,1.08 -6.61,0.71 -13.08,1.08 -19.4,1.08 -1.09,0 -1.89,-0.45 -2.47,-1.34 -0.51,-0.9 -0.8,-1.89 -0.94,-2.97 -0.07,-1.08 0.14,-2.12 0.73,-3.1 0.51,-0.99 1.45,-1.57 2.69,-1.75 5.01,-0.54 9.16,-1.26 12.43,-2.16 3.2,-0.9 5.74,-2.34 7.56,-4.32 1.74,-1.98 2.98,-4.59 3.63,-7.83 0.58,-3.23 0.95,-7.55 0.95,-12.95l0 -101.18z"/>
  <path class="fil0" d="M1279.02 767.89c1.45,0 2.83,0.18 4.21,0.54 1.31,0.36 1.82,1.8 1.45,4.32 -0.36,1.98 -0.51,4.23 -0.51,6.74 0,2.52 0,5.04 0,7.56 0,8.1 0.22,15.65 0.8,22.67 0,0.72 -0.44,1.31 -1.24,1.75 -0.8,0.45 -1.74,0.72 -2.83,0.81 -1.09,0.09 -2.11,-0.04 -3.13,-0.41 -0.95,-0.36 -1.53,-1.08 -1.74,-2.16 -1.24,-7.01 -2.47,-12.5 -3.78,-16.46 -1.24,-3.95 -2.98,-6.97 -5.23,-9.04 -2.25,-2.06 -5.31,-3.37 -9.16,-3.91 -3.92,-0.55 -8.94,-0.9 -15.26,-1.08l-16.21 0c-4.65,0 -8.43,0.09 -11.19,0.27 -2.76,0.19 -5.01,0.86 -6.61,2.03 -1.6,1.17 -2.69,3.02 -3.2,5.53 -0.58,2.52 -0.87,6.03 -0.87,10.53l0 47.22c0,2.52 0.51,4.1 1.38,4.72 0.87,0.63 1.82,0.94 2.69,0.94 8.29,0 14.83,-0.36 19.55,-1.08 4.8,-0.71 8.36,-2.02 10.83,-3.91 2.4,-1.89 4.07,-4.36 4.87,-7.42 0.8,-3.05 1.45,-7.01 1.96,-11.87 0.22,-1.08 0.73,-1.9 1.67,-2.44 0.87,-0.54 1.89,-0.81 2.98,-0.81 1.02,0 2.04,0.27 2.91,0.81 0.95,0.54 1.38,1.35 1.38,2.44 0,2.88 -0.07,5.44 -0.29,7.68 -0.14,2.25 -0.36,4.51 -0.51,6.75 -0.22,2.25 -0.36,4.59 -0.58,7.01 -0.14,2.43 -0.22,5.26 -0.22,8.5 0,5.39 0.22,10.3 0.8,14.7 0.51,4.41 0.8,9.76 0.8,16.05 0,0.9 -0.44,1.58 -1.38,2.02 -0.87,0.46 -1.89,0.64 -2.91,0.55 -1.09,-0.09 -2.11,-0.36 -2.98,-0.81 -0.95,-0.44 -1.45,-1.21 -1.67,-2.29 -0.51,-5.22 -1.16,-9.44 -1.96,-12.68 -0.8,-3.24 -2.47,-5.71 -4.87,-7.42 -2.47,-1.71 -6.03,-2.88 -10.83,-3.51 -4.72,-0.63 -11.26,-0.95 -19.55,-0.95 -0.87,0 -1.82,0.32 -2.69,0.95 -0.87,0.63 -1.38,1.94 -1.38,3.92l0 35.34c0,5.76 0.43,10.66 1.23,14.71 0.8,4.05 2.04,7.38 3.63,9.98 1.67,2.61 3.63,4.68 5.96,6.21 2.33,1.53 5.09,2.66 8.36,3.37 2.54,0.55 5.38,0.95 8.5,1.21 3.13,0.27 6.4,0.41 9.88,0.41 4.29,0 8.36,-0.18 12.14,-0.54 3.78,-0.36 6.61,-0.9 8.57,-1.62 3.63,-1.26 6.76,-2.6 9.3,-4.05 2.62,-1.44 4.87,-3.32 6.61,-5.66 1.82,-2.34 3.34,-5.26 4.51,-8.77 1.16,-3.51 2.11,-7.96 2.83,-13.36 0.15,-1.08 0.8,-1.79 1.89,-2.16 1.09,-0.36 2.25,-0.54 3.49,-0.54 1.24,0 2.4,0.27 3.34,0.81 1.02,0.54 1.38,1.26 1.23,2.16 -0.87,7.56 -1.67,14.62 -2.4,21.19 -0.73,6.56 -1.02,13.26 -0.8,20.1 0,0.54 -0.36,1.3 -1.09,2.29 -0.73,1 -2.47,1.48 -5.16,1.48l-97.97 0c-6.83,0 -13.52,0.18 -20.06,0.54 -6.61,0.36 -12.5,0.71 -17.66,1.08 -1.45,0 -2.54,-0.4 -3.27,-1.21 -0.73,-0.81 -1.16,-1.79 -1.38,-2.96 -0.15,-1.17 0.14,-2.25 0.87,-3.24 0.66,-0.99 1.89,-1.57 3.49,-1.75 4.29,-0.54 7.99,-1.3 11.05,-2.29 3.05,-0.98 5.6,-2.43 7.56,-4.32 1.96,-1.89 3.49,-4.27 4.43,-7.15 1.02,-2.87 1.52,-6.56 1.52,-11.06l0 -103.88c0,-3.95 -0.14,-7.83 -0.43,-11.6 -0.22,-3.78 -0.87,-7.29 -1.74,-10.52 -0.87,-3.24 -2.33,-6.03 -4.14,-8.37 -1.89,-2.34 -4.51,-3.95 -7.7,-4.85 -2.04,-0.55 -4.07,-0.99 -6.25,-1.35 -2.11,-0.36 -4.21,-0.63 -6.18,-0.81 -1.09,0 -1.89,-0.45 -2.47,-1.35 -0.51,-0.9 -0.8,-1.89 -0.8,-2.96 0,-1.08 0.29,-2.07 0.8,-2.97 0.58,-0.9 1.38,-1.35 2.47,-1.35 6.11,0 11.63,0.18 16.43,0.54 4.87,0.36 10.54,0.54 17.01,0.54l96.88 0z"/>
  <path class="fil0" d="M1447.7 767.89c1.38,0 2.83,0.18 4.14,0.54 1.38,0.36 1.82,1.8 1.53,4.32 -0.58,5.22 -0.73,11.24 -0.58,18.08 0.22,6.84 0.43,13.13 0.8,18.89 0,0.72 -0.36,1.31 -1.16,1.75 -0.87,0.45 -1.82,0.72 -2.83,0.81 -1.09,0.09 -2.18,-0.09 -3.13,-0.55 -1.02,-0.44 -1.6,-1.12 -1.74,-2.02 -1.31,-7.01 -2.54,-12.5 -3.78,-16.46 -1.31,-3.95 -3.05,-6.97 -5.3,-9.04 -2.25,-2.06 -5.3,-3.37 -9.16,-3.91 -3.85,-0.55 -8.94,-0.9 -15.26,-1.08l-16.13 0c-4.72,0 -8.43,0.09 -11.26,0.27 -2.76,0.19 -4.94,0.86 -6.54,2.03 -1.67,1.17 -2.76,3.02 -3.27,5.53 -0.51,2.52 -0.8,6.03 -0.8,10.53l0 47.22c0,2.52 0.44,4.1 1.31,4.72 0.95,0.63 1.82,0.94 2.76,0.94 8.21,0 14.75,-0.36 19.55,-1.08 4.72,-0.71 8.36,-2.02 10.76,-3.91 2.47,-1.89 4.07,-4.36 4.87,-7.42 0.8,-3.05 1.45,-7.01 2.04,-11.87 0.15,-1.08 0.73,-1.9 1.6,-2.44 0.95,-0.54 1.89,-0.81 2.98,-0.81 1.09,0 2.03,0.27 2.98,0.81 0.87,0.54 1.31,1.35 1.31,2.44 0,2.88 -0.07,5.44 -0.22,7.68 -0.22,2.25 -0.36,4.51 -0.58,6.75 -0.15,2.25 -0.36,4.59 -0.51,7.01 -0.22,2.43 -0.29,5.26 -0.29,8.5 0,5.39 0.29,10.3 0.8,14.7 0.58,4.41 0.8,9.76 0.8,16.05 0,0.9 -0.44,1.58 -1.31,2.02 -0.95,0.46 -1.89,0.64 -2.98,0.55 -1.09,-0.09 -2.04,-0.36 -2.98,-0.81 -0.87,-0.44 -1.45,-1.21 -1.6,-2.29 -0.58,-5.22 -1.24,-9.44 -2.04,-12.68 -0.8,-3.24 -2.4,-5.71 -4.87,-7.42 -2.4,-1.71 -6.03,-2.88 -10.76,-3.51 -4.8,-0.63 -11.34,-0.95 -19.55,-0.95 -0.95,0 -1.82,0.32 -2.76,0.95 -0.87,0.63 -1.31,1.94 -1.31,3.92l0 45.33c0,6.12 0.51,11.02 1.45,14.7 1.02,3.69 2.69,6.57 5.16,8.63 2.4,2.07 5.6,3.51 9.59,4.32 3.92,0.81 8.87,1.49 14.83,2.03 1.24,0 2.18,0.49 2.69,1.48 0.51,0.99 0.8,2.12 0.8,3.37 0,1.08 -0.29,2.07 -0.94,2.97 -0.66,0.89 -1.6,1.34 -2.83,1.34 -9.74,0 -18.02,-0.36 -24.93,-1.08 -6.98,-0.72 -13.66,-1.08 -20.13,-1.08 -6.83,0 -13.59,0.36 -20.21,1.08 -6.69,0.71 -13.15,1.08 -19.48,1.08 -1.09,0 -1.89,-0.45 -2.4,-1.34 -0.58,-0.9 -0.87,-1.89 -0.95,-2.97 -0.07,-1.08 0.15,-2.12 0.66,-3.1 0.58,-0.99 1.45,-1.57 2.69,-1.75 5.09,-0.54 9.23,-1.26 12.43,-2.16 3.27,-0.9 5.74,-2.34 7.56,-4.32 1.82,-1.98 2.98,-4.59 3.63,-7.83 0.66,-3.23 0.95,-7.55 0.95,-12.95l0 -101.46c0,-3.95 -0.15,-7.83 -0.36,-11.6 -0.29,-3.78 -0.87,-7.29 -1.81,-10.52 -0.87,-3.24 -2.25,-6.03 -4.14,-8.37 -1.89,-2.34 -4.43,-3.95 -7.7,-4.85 -1.96,-0.55 -4.07,-0.99 -6.18,-1.35 -2.18,-0.36 -4.21,-0.63 -6.25,-0.81 -1.09,0 -1.89,-0.45 -2.4,-1.35 -0.51,-0.9 -0.8,-1.89 -0.8,-2.96 0,-1.08 0.29,-2.07 0.8,-2.97 0.51,-0.9 1.31,-1.35 2.4,-1.35 6.1,0 11.63,0.18 16.5,0.54 4.87,0.36 10.54,0.54 17.01,0.54l96.88 0z"/>
  <path class="fil0" d="M1605.27 767.89c1.45,0 2.83,0.18 4.14,0.54 1.38,0.36 1.89,1.8 1.53,4.32 -0.36,1.98 -0.58,4.23 -0.58,6.74 0,2.52 0,5.04 0,7.56 0,8.1 0.29,15.65 0.8,22.67 0,0.72 -0.36,1.31 -1.16,1.75 -0.8,0.45 -1.74,0.72 -2.83,0.81 -1.09,0.09 -2.11,-0.04 -3.13,-0.41 -1.02,-0.36 -1.6,-1.08 -1.74,-2.16 -1.24,-7.01 -2.54,-12.5 -3.78,-16.46 -1.23,-3.95 -3.05,-6.97 -5.23,-9.04 -2.25,-2.06 -5.3,-3.37 -9.23,-3.91 -3.85,-0.55 -8.94,-0.9 -15.19,-1.08l-16.21 0c-4.72,0 -8.43,0.09 -11.19,0.27 -2.83,0.19 -5.01,0.86 -6.61,2.03 -1.67,1.17 -2.69,3.02 -3.27,5.53 -0.51,2.52 -0.8,6.03 -0.8,10.53l0 47.22c0,2.52 0.43,4.1 1.38,4.72 0.87,0.63 1.74,0.94 2.69,0.94 8.29,0 14.75,-0.36 19.55,-1.08 4.72,-0.71 8.36,-2.02 10.76,-3.91 2.47,-1.89 4.07,-4.36 4.87,-7.42 0.8,-3.05 1.52,-7.01 2.03,-11.87 0.22,-1.08 0.73,-1.9 1.6,-2.44 0.95,-0.54 1.89,-0.81 2.98,-0.81 1.09,0 2.11,0.27 2.98,0.81 0.87,0.54 1.38,1.35 1.38,2.44 0,2.88 -0.15,5.44 -0.29,7.68 -0.22,2.25 -0.36,4.51 -0.51,6.75 -0.22,2.25 -0.36,4.59 -0.58,7.01 -0.14,2.43 -0.29,5.26 -0.29,8.5 0,5.39 0.29,10.3 0.87,14.7 0.51,4.41 0.8,9.76 0.8,16.05 0,0.9 -0.51,1.58 -1.38,2.02 -0.87,0.46 -1.89,0.64 -2.98,0.55 -1.09,-0.09 -2.04,-0.36 -2.98,-0.81 -0.87,-0.44 -1.38,-1.21 -1.6,-2.29 -0.51,-5.22 -1.23,-9.44 -2.03,-12.68 -0.8,-3.24 -2.4,-5.71 -4.87,-7.42 -2.4,-1.71 -6.03,-2.88 -10.76,-3.51 -4.8,-0.63 -11.26,-0.95 -19.55,-0.95 -0.94,0 -1.82,0.32 -2.69,0.95 -0.95,0.63 -1.38,1.94 -1.38,3.92l0 35.34c0,5.76 0.43,10.66 1.23,14.71 0.8,4.05 2.04,7.38 3.63,9.98 1.6,2.61 3.56,4.68 5.96,6.21 2.33,1.53 5.09,2.66 8.36,3.37 2.47,0.55 5.3,0.95 8.5,1.21 3.13,0.27 6.4,0.41 9.81,0.41 4.36,0 8.36,-0.18 12.14,-0.54 3.78,-0.36 6.69,-0.9 8.65,-1.62 3.63,-1.26 6.69,-2.6 9.3,-4.05 2.62,-1.44 4.8,-3.32 6.61,-5.66 1.82,-2.34 3.27,-5.26 4.43,-8.77 1.16,-3.51 2.11,-7.96 2.83,-13.36 0.22,-1.08 0.8,-1.79 1.89,-2.16 1.09,-0.36 2.25,-0.54 3.56,-0.54 1.24,0 2.33,0.27 3.34,0.81 1.02,0.54 1.38,1.26 1.23,2.16 -0.94,7.56 -1.74,14.62 -2.47,21.19 -0.73,6.56 -0.95,13.26 -0.8,20.1 0,0.54 -0.36,1.3 -1.09,2.29 -0.73,1 -2.4,1.48 -5.09,1.48l-97.97 0c-6.83,0 -13.52,0.18 -20.13,0.54 -6.54,0.36 -12.43,0.71 -17.66,1.08 -1.45,0 -2.47,-0.4 -3.2,-1.21 -0.73,-0.81 -1.16,-1.79 -1.38,-2.96 -0.15,-1.17 0.07,-2.25 0.8,-3.24 0.73,-0.99 1.89,-1.57 3.56,-1.75 4.29,-0.54 8,-1.3 11.05,-2.29 3.05,-0.98 5.52,-2.43 7.56,-4.32 1.96,-1.89 3.42,-4.27 4.43,-7.15 1.02,-2.87 1.45,-6.56 1.45,-11.06l0 -103.88c0,-3.95 -0.07,-7.83 -0.36,-11.6 -0.29,-3.78 -0.87,-7.29 -1.74,-10.52 -0.95,-3.24 -2.33,-6.03 -4.21,-8.37 -1.89,-2.34 -4.43,-3.95 -7.7,-4.85 -1.96,-0.55 -4,-0.99 -6.18,-1.35 -2.18,-0.36 -4.21,-0.63 -6.18,-0.81 -1.09,0 -1.89,-0.45 -2.47,-1.35 -0.51,-0.9 -0.8,-1.89 -0.8,-2.96 0,-1.08 0.29,-2.07 0.8,-2.97 0.58,-0.9 1.38,-1.35 2.47,-1.35 6.11,0 11.56,0.18 16.43,0.54 4.87,0.36 10.54,0.54 17.01,0.54l96.88 0z"/>
  <path class="fil0" d="M1669.22 808.37c0,-5.57 -0.36,-10.34 -0.95,-14.3 -0.65,-3.95 -1.89,-7.19 -3.63,-9.71 -1.82,-2.52 -4.43,-4.46 -7.7,-5.8 -3.34,-1.35 -7.78,-2.2 -13.37,-2.56 -1.09,0 -1.89,-0.49 -2.4,-1.49 -0.58,-0.98 -0.87,-2.02 -0.87,-3.1 0,-1.08 0.29,-2.07 0.87,-2.97 0.51,-0.89 1.31,-1.34 2.4,-1.34 5.74,0 12.28,0.27 19.69,0.81 7.34,0.54 14.32,0.81 20.78,0.81 3.78,0 7.34,-0.09 10.68,-0.28 3.27,-0.17 6.54,-0.36 9.67,-0.54 3.13,-0.17 6.32,-0.36 9.59,-0.54 3.27,-0.18 6.76,-0.27 10.54,-0.27 1.09,0 1.82,0.45 2.25,1.34 0.43,0.9 0.65,1.89 0.58,2.97 -0.15,1.08 -0.44,2.12 -0.95,3.1 -0.58,1 -1.31,1.49 -2.18,1.49 -5.6,0.36 -10.1,1.13 -13.52,2.3 -3.42,1.17 -6.03,2.96 -7.77,5.39 -1.82,2.43 -2.98,5.62 -3.49,9.58 -0.58,3.96 -0.87,9 -0.87,15.11l0 105.77c0,5.94 0.36,10.57 1.09,13.9 0.73,3.33 2.04,5.89 3.92,7.69 1.89,1.8 4.51,3.1 8,3.91 3.42,0.81 7.77,1.49 13.15,2.03 1.09,0.18 1.96,0.76 2.62,1.75 0.58,0.99 0.95,2.03 0.95,3.1 0,1.08 -0.36,2.07 -0.95,2.97 -0.66,0.89 -1.6,1.34 -2.83,1.34 -7.19,0 -14.1,-0.36 -20.64,-1.08 -6.61,-0.72 -13.08,-1.08 -19.55,-1.08 -6.91,0 -13.96,0.36 -21.22,1.08 -7.27,0.71 -13.88,1.08 -19.84,1.08 -1.09,0 -1.89,-0.45 -2.4,-1.34 -0.58,-0.9 -0.8,-1.89 -0.8,-2.97 0,-1.08 0.22,-2.12 0.8,-3.1 0.51,-0.99 1.31,-1.57 2.4,-1.75 5.6,-0.54 10.03,-1.21 13.37,-2.03 3.34,-0.81 5.96,-2.11 7.85,-3.91 1.89,-1.79 3.13,-4.36 3.78,-7.69 0.58,-3.33 0.95,-7.96 0.95,-13.9l0 -105.77z"/>
  <path class="fil0" d="M1843.21 914.14c0,5.94 0.29,10.57 0.8,13.9 0.58,3.33 1.82,5.89 3.71,7.69 1.89,1.8 4.51,3.1 7.92,3.91 3.42,0.81 8,1.49 13.74,2.03 1.09,0.18 1.96,0.76 2.62,1.75 0.58,0.99 0.94,2.03 0.94,3.1 0,1.08 -0.36,2.07 -0.94,2.97 -0.66,0.89 -1.6,1.34 -2.83,1.34 -7.2,0 -14.1,-0.36 -20.64,-1.08 -6.61,-0.72 -13.08,-1.08 -19.55,-1.08 -6.83,0 -13.95,0.36 -21.22,1.08 -7.27,0.71 -13.88,1.08 -19.84,1.08 -1.09,0 -1.89,-0.45 -2.4,-1.34 -0.58,-0.9 -0.8,-1.89 -0.8,-2.97 0,-1.08 0.22,-2.12 0.8,-3.1 0.51,-0.99 1.31,-1.57 2.4,-1.75 5.6,-0.54 10.03,-1.21 13.37,-2.03 3.34,-0.81 5.96,-2.11 7.85,-3.91 1.89,-1.79 3.13,-4.36 3.78,-7.69 0.58,-3.33 0.95,-7.96 0.95,-13.9l0 -119.81c0,-6.65 -1.67,-10.84 -5.02,-12.54 -3.34,-1.71 -8.94,-2.56 -16.86,-2.56 -6.69,0 -12.14,0.5 -16.5,1.48 -4.29,1 -7.85,2.79 -10.61,5.4 -2.83,2.61 -5.09,6.16 -6.76,10.66 -1.74,4.49 -3.27,10.34 -4.72,17.54 -0.14,1.08 -0.8,1.79 -1.74,2.16 -1.02,0.36 -1.96,0.5 -2.98,0.41 -1.02,-0.09 -1.89,-0.41 -2.69,-0.95 -0.8,-0.54 -1.24,-1.17 -1.24,-1.89 0.73,-6.65 1.16,-13.44 1.24,-20.38 0.07,-6.92 -0.29,-13.8 -1.24,-20.63 0,-1.98 1.24,-3.33 3.78,-4.06 2.54,-0.71 5.3,-1.08 8.36,-1.08l144.41 0c3.42,0 6.25,0.31 8.5,0.95 2.18,0.63 3.34,1.93 3.34,3.91 -0.36,2.16 -0.66,4.82 -0.95,7.96 -0.29,3.15 -0.43,6.61 -0.43,10.39 0,3.78 0.14,7.65 0.43,11.61 0.29,3.95 0.58,7.73 0.95,11.33 0,0.72 -0.44,1.39 -1.38,2.02 -0.87,0.63 -1.89,0.99 -2.91,1.08 -1.09,0.09 -2.18,-0.04 -3.13,-0.41 -1.02,-0.36 -1.6,-1.08 -1.74,-2.16 -1.09,-7.19 -2.54,-13.09 -4.36,-17.67 -1.74,-4.59 -4.14,-8.18 -7.12,-10.79 -2.98,-2.61 -6.61,-4.4 -10.9,-5.4 -4.36,-0.98 -9.45,-1.48 -15.41,-1.48 -8.07,0 -13.96,0.86 -17.52,2.56 -3.63,1.71 -5.45,5.89 -5.45,12.54l0 119.81z"/>
  <path class="fil0" d="M2104.19 877.98c0,11.69 -1.31,22.17 -3.92,31.43 -2.62,9.27 -6.76,17.09 -12.43,23.47 -5.67,6.39 -13.08,11.29 -22.24,14.71 -9.23,3.42 -20.35,5.12 -33.5,5.12 -12.57,0 -23.47,-1.26 -32.78,-3.78 -9.23,-2.51 -16.93,-6.52 -22.89,-12.01 -6.03,-5.49 -10.54,-12.59 -13.37,-21.32 -2.91,-8.72 -4.36,-19.29 -4.36,-31.7l0 -75.55c0,-5.57 -0.29,-10.34 -0.94,-14.3 -0.58,-3.95 -1.82,-7.19 -3.63,-9.71 -1.74,-2.52 -4.36,-4.46 -7.7,-5.8 -3.27,-1.35 -7.78,-2.2 -13.3,-2.56 -1.09,0 -1.89,-0.49 -2.47,-1.49 -0.51,-0.98 -0.8,-2.02 -0.8,-3.1 0,-1.08 0.29,-2.07 0.8,-2.97 0.58,-0.89 1.38,-1.34 2.47,-1.34 5.74,0 12.28,0.31 19.7,0.94 7.34,0.63 14.24,0.94 20.78,0.94 3.78,0 7.27,-0.09 10.61,-0.26 3.34,-0.18 6.61,-0.41 9.74,-0.68 3.13,-0.27 6.32,-0.49 9.59,-0.68 3.2,-0.18 6.69,-0.27 10.54,-0.27 1.02,0 1.82,0.45 2.25,1.34 0.44,0.9 0.66,1.89 0.51,2.97 -0.07,1.08 -0.36,2.12 -0.94,3.1 -0.51,1 -1.24,1.49 -2.11,1.49 -5.6,0.36 -10.1,1.13 -13.52,2.3 -3.42,1.17 -6.03,2.96 -7.85,5.39 -1.74,2.43 -2.91,5.62 -3.49,9.58 -0.51,3.96 -0.8,9 -0.8,15.11l0 73.67c0,7.55 1.02,14.75 2.98,21.58 1.96,6.84 5.01,12.82 9.01,17.95 4.07,5.12 9.16,9.22 15.26,12.27 6.1,3.06 13.3,4.59 21.58,4.59 17.44,0 30.74,-4.8 39.97,-14.43 9.16,-9.62 13.74,-24.86 13.74,-45.74l0 -45.6c0,-2.88 0,-6.39 0,-10.52 0,-4.32 -0.07,-8.59 -0.29,-12.82 -0.14,-4.22 -0.43,-8.27 -0.8,-12.14 -0.36,-3.87 -0.87,-6.88 -1.6,-9.03 -0.94,-3.06 -1.89,-5.36 -2.83,-6.88 -1.02,-1.53 -2.25,-2.65 -3.63,-3.37 -1.45,-0.72 -3.27,-1.12 -5.45,-1.21 -2.11,-0.09 -4.8,-0.31 -8.07,-0.68 -0.87,0 -1.6,-0.49 -2.04,-1.49 -0.44,-0.98 -0.65,-2.02 -0.65,-3.1 0,-1.08 0.14,-2.07 0.51,-2.97 0.36,-0.89 1.09,-1.34 2.18,-1.34 4.29,0 8.94,0.31 13.73,0.94 4.87,0.63 9.81,0.94 14.9,0.94 4.65,0 9.3,-0.31 14.03,-0.94 4.65,-0.63 9.88,-0.94 15.63,-0.94 1.09,0 1.89,0.45 2.4,1.34 0.58,0.9 0.87,1.89 0.87,2.97 0,1.08 -0.29,2.12 -0.87,3.1 -0.51,1 -1.31,1.49 -2.4,1.49 -3.27,0.36 -5.82,0.58 -7.7,0.68 -1.89,0.09 -3.49,0.49 -4.72,1.21 -1.24,0.72 -2.4,1.85 -3.34,3.37 -1.02,1.53 -2.11,3.82 -3.42,6.88 -0.87,2.15 -1.52,5.12 -1.96,8.9 -0.51,3.77 -0.8,7.78 -0.95,12 -0.22,4.23 -0.29,8.5 -0.14,12.82 0.07,4.32 0.14,8.09 0.14,11.33l0 44.79z"/>
  <path class="fil0" d="M2200.99 845.33c0,4.68 1.31,7.43 3.92,8.23 2.62,0.81 6.54,1.21 11.77,1.21 6.98,0 12.86,-0.68 17.66,-2.02 4.72,-1.35 8.58,-3.6 11.48,-6.75 2.83,-3.15 4.87,-7.19 6.03,-12.14 1.16,-4.94 1.74,-11.01 1.74,-18.21 0,-6.83 -0.58,-12.63 -1.89,-17.4 -1.24,-4.77 -3.27,-8.63 -6.03,-11.61 -2.83,-2.96 -6.47,-5.08 -10.97,-6.34 -4.43,-1.26 -9.96,-1.89 -16.43,-1.89 -7.05,0 -11.63,0.9 -13.88,2.7 -2.25,1.8 -3.42,5.49 -3.42,11.07l0 53.15zm-29.36 -32.1c0,-3.96 -0.15,-7.83 -0.44,-11.6 -0.29,-3.78 -0.87,-7.29 -1.74,-10.53 -0.87,-3.23 -2.33,-6.02 -4.21,-8.36 -1.89,-2.33 -4.43,-3.95 -7.63,-4.86 -2.03,-0.54 -4.07,-0.99 -6.25,-1.35 -2.11,-0.36 -4.22,-0.62 -6.18,-0.81 -1.09,0 -1.89,-0.45 -2.47,-1.35 -0.51,-0.9 -0.8,-1.89 -0.8,-2.96 0,-1.08 0.29,-2.07 0.8,-2.97 0.58,-0.89 1.38,-1.34 2.47,-1.34 6.1,0 11.56,0.17 16.43,0.54 4.87,0.36 10.54,0.54 17.01,0.54 10.83,-0.18 19.77,-0.4 26.89,-0.68 7.05,-0.27 13.88,-0.4 20.35,-0.4 7.2,0 14.32,0.85 21.3,2.56 7.05,1.72 13.3,4.46 18.75,8.23 5.52,3.78 9.88,8.73 13.23,14.84 3.34,6.11 5.01,13.49 5.01,22.12 0,6.84 -1.02,12.77 -3.13,17.81 -2.04,5.04 -4.87,9.35 -8.5,12.95 -3.56,3.6 -7.85,6.52 -12.79,8.76 -4.94,2.25 -10.32,4 -16.06,5.26 -1.23,0.36 -1.89,0.99 -1.89,1.89 0,0.72 0.66,1.44 1.89,2.16 8.43,4.14 14.97,8.73 19.55,13.77 4.58,5.04 8.07,10.25 10.54,15.65 2.4,5.39 4.14,10.93 5.23,16.59 1.09,5.67 2.25,11.2 3.56,16.6 0.87,4.13 2.33,7.14 4.43,9.03 2.04,1.89 4.14,2.83 6.32,2.83 2.18,0 4.21,-0.89 6.18,-2.69 2.03,-1.8 3.56,-4.49 4.65,-8.1 0.36,-1.44 1.02,-2.38 2.11,-2.83 1.09,-0.44 2.11,-0.54 3.13,-0.27 1.02,0.27 1.89,0.81 2.69,1.62 0.8,0.81 1.16,1.66 0.94,2.56 -0.51,4.5 -1.82,8.37 -3.78,11.6 -1.96,3.24 -4.36,5.89 -7.12,7.96 -2.83,2.07 -5.96,3.6 -9.45,4.59 -3.49,0.99 -6.98,1.49 -10.39,1.49 -5.74,0 -10.97,-1.26 -15.63,-3.78 -4.72,-2.51 -7.85,-6.11 -9.45,-10.79 -1.09,-3.06 -2.18,-6.38 -3.13,-9.99 -1.02,-3.6 -1.96,-7.24 -2.83,-10.93 -0.87,-3.68 -1.82,-7.28 -2.69,-10.79 -0.95,-3.5 -1.74,-6.61 -2.47,-9.31 -3.2,-11.51 -7.41,-19.78 -12.5,-24.82 -5.16,-5.03 -12.28,-7.56 -21.44,-7.56 -3.13,0 -5.67,0.63 -7.85,1.89 -2.18,1.26 -3.27,3.78 -3.27,7.56l0 36.42c0,6.12 0.66,11.02 1.89,14.7 1.31,3.69 3.2,6.57 5.67,8.63 2.54,2.07 5.67,3.56 9.3,4.45 3.71,0.9 7.99,1.53 12.86,1.89 1.09,0 1.89,0.49 2.54,1.48 0.65,0.99 0.94,2.12 0.94,3.37 0,1.08 -0.29,2.07 -0.94,2.97 -0.66,0.89 -1.6,1.34 -2.83,1.34 -9.01,0 -16.93,-0.36 -23.77,-1.08 -6.83,-0.72 -13.44,-1.08 -19.91,-1.08 -6.91,0 -13.59,0.36 -20.28,1.08 -6.61,0.71 -13.15,1.08 -19.4,1.08 -1.09,0 -1.89,-0.45 -2.47,-1.34 -0.51,-0.9 -0.8,-1.89 -0.95,-2.97 -0.07,-1.08 0.15,-2.12 0.73,-3.1 0.51,-0.99 1.38,-1.57 2.69,-1.75 5.01,-0.54 9.16,-1.26 12.43,-2.16 3.2,-0.9 5.74,-2.34 7.56,-4.32 1.74,-1.98 2.98,-4.59 3.63,-7.83 0.58,-3.23 0.95,-7.55 0.95,-12.95l0 -101.18z"/>
  <path class="fil0" d="M2433.05 875.01c2.54,0 4.21,-0.4 5.16,-1.21 0.87,-0.81 0.87,-2.29 0,-4.45l-23.47 -63.14c-0.36,-0.89 -1.09,-1.35 -2.18,-1.35 -1.09,0 -1.82,0.46 -2.18,1.35l-24.49 63.14c-0.95,2.34 -1.02,3.87 -0.29,4.59 0.73,0.72 2.04,1.08 4,1.08l43.46 0zm-46.37 10.52c-2.54,0 -4.36,0.41 -5.45,1.22 -1.02,0.81 -2.04,2.2 -2.91,4.18l-12.21 31.84c-0.87,2.69 -1.31,4.77 -1.31,6.21 0,2.34 0.58,4.27 1.74,5.8 1.16,1.53 2.76,2.75 4.72,3.64 1.96,0.91 4.21,1.62 6.76,2.16 2.47,0.54 5.09,0.9 7.85,1.08 1.24,0 2.11,0.49 2.69,1.48 0.51,0.99 0.8,2.03 0.8,3.1 0,1.08 -0.29,2.12 -0.8,3.1 -0.58,0.99 -1.45,1.48 -2.69,1.48 -4.36,0 -9.3,-0.36 -14.9,-1.08 -5.52,-0.72 -10.83,-1.08 -15.92,-1.08 -4.65,0 -9.16,0.36 -13.44,1.08 -4.36,0.71 -9.01,1.08 -14.03,1.08 -0.94,0 -1.67,-0.45 -2.33,-1.34 -0.65,-0.9 -1.02,-1.89 -1.09,-2.97 -0.07,-1.08 0.07,-2.12 0.58,-3.1 0.44,-0.99 1.31,-1.57 2.54,-1.75l4.07 -0.54c2.69,-0.54 5.16,-1.21 7.41,-2.03 2.25,-0.81 4.29,-2.11 6.18,-3.91 1.89,-1.79 3.71,-4.19 5.52,-7.15 1.82,-2.97 3.63,-6.79 5.38,-11.47l60.98 -153.53c0.58,-1.44 2.04,-2.16 4.36,-2.16 2.54,0 4.51,0.72 5.96,2.16 4.43,11.51 9.3,23.84 14.39,36.96 5.16,13.13 10.39,26.49 15.77,40.07 5.45,13.59 10.83,27.08 16.21,40.48 5.38,13.4 10.54,26.04 15.41,37.91 2.11,5.22 4.29,9.27 6.32,12.14 2.04,2.88 4.14,5.04 6.18,6.47 2.11,1.44 4.21,2.43 6.39,2.97 2.11,0.54 4.43,1.08 6.98,1.62 1.09,0.18 1.89,0.76 2.33,1.75 0.43,0.99 0.65,2.03 0.65,3.1 0,1.08 -0.22,2.07 -0.65,2.97 -0.44,0.89 -1.16,1.34 -2.04,1.34 -5.74,0 -11.26,-0.36 -16.57,-1.08 -5.3,-0.72 -11.34,-1.08 -17.95,-1.08 -7.56,0 -14.68,0.36 -21.37,1.08 -6.61,0.71 -13.01,1.08 -19.11,1.08 -1.31,0 -2.25,-0.49 -2.83,-1.48 -0.65,-0.99 -0.94,-2.12 -0.94,-3.37 0,-1.08 0.29,-2.03 0.8,-2.83 0.51,-0.81 1.45,-1.3 2.69,-1.48 6.1,-0.72 10.61,-1.79 13.52,-3.24 2.83,-1.43 4.29,-4.4 4.29,-8.9 0,-1.26 -0.14,-2.69 -0.36,-4.32 -0.29,-1.62 -0.87,-3.82 -1.82,-6.61 -0.87,-2.78 -2.11,-6.38 -3.78,-10.79 -1.6,-4.4 -3.78,-10.02 -6.47,-16.86 -0.87,-2.33 -2.11,-3.82 -3.63,-4.45 -1.53,-0.63 -4,-0.95 -7.41,-0.95l-47.46 0z"/>
 </g>
</svg>
