<?xml version="1.0" encoding="UTF-8"?>
<!DOCTYPE svg PUBLIC "-//W3C//DTD SVG 1.1//EN" "http://www.w3.org/Graphics/SVG/1.1/DTD/svg11.dtd">
<!-- Creator: CorelDRAW -->
<svg xmlns="http://www.w3.org/2000/svg" xml:space="preserve" width="253.287mm" height="41.5312mm" version="1.1" style="shape-rendering:geometricPrecision; text-rendering:geometricPrecision; image-rendering:optimizeQuality; fill-rule:evenodd; clip-rule:evenodd"
viewBox="0 0 4226.55 693.02"
 xmlns:xlink="http://www.w3.org/1999/xlink"
 xmlns:xodm="http://www.corel.com/coreldraw/odm/2003">
 <defs>
  <style type="text/css">
   <![CDATA[
    .fil0 {fill:white;fill-rule:nonzero}
   ]]>
  </style>
 </defs>
 <g id="Camada_x0020_1">
  <metadata id="CorelCorpID_0Corel-Layer"/>
  <path class="fil0" d="M67.11 132.32l42.45 0c12.75,0 22.34,-3.35 28.78,-10.04 6.44,-6.69 9.65,-16.03 9.65,-28.01 0,-11.98 -3.25,-21.39 -9.75,-28.2 -6.5,-6.82 -16.06,-10.23 -28.68,-10.23l-42.45 0 0 76.49zm36.33 51.81l-36.33 0 0 98.28 -67.11 0 0 -278.4 109.56 0c16.07,0 30.59,1.83 43.59,5.45 13.01,3.64 24.1,8.98 33.28,16.06 9.17,7.07 16.21,15.84 21.12,26.29 4.9,10.45 7.36,22.56 7.36,36.33 0,10.71 -1.14,20.24 -3.44,28.58 -2.29,8.35 -5.57,15.69 -9.84,21.99 -4.28,6.31 -9.41,11.8 -15.39,16.44 -5.99,4.66 -12.62,8.69 -19.89,12.14l58.13 112.24 0 2.87 -71.9 0 -49.13 -98.28z"/>
  <polygon class="fil0" points="326.95,282.41 260.04,282.41 260.04,4.01 326.95,4.01 "/>
  <path class="fil0" d="M541.11 137.29c0,-27.67 -4.62,-48.67 -13.87,-63.01 -9.24,-14.34 -22.47,-21.52 -39.68,-21.52 -17.97,0 -31.38,7.18 -40.24,21.52 -8.87,14.34 -13.3,35.34 -13.3,63.01l0 11.65c0,27.29 4.53,48.25 13.58,62.91 9.04,14.66 22.49,21.98 40.34,21.98 17.08,0 30.22,-7.29 39.39,-21.89 9.18,-14.59 13.77,-35.59 13.77,-63l0 -11.65zm68.25 11.65c0,21.3 -3,40.41 -8.98,57.36 -5.99,16.96 -14.37,31.35 -25.14,43.22 -10.78,11.86 -23.59,20.95 -38.43,27.25 -14.85,6.3 -31.14,9.46 -48.86,9.46 -17.98,0 -34.45,-3.16 -49.42,-9.46 -14.98,-6.3 -27.86,-15.39 -38.62,-27.25 -10.77,-11.86 -19.16,-26.26 -25.15,-43.22 -5.99,-16.95 -8.98,-36.06 -8.98,-57.36l0 -11.28c0,-21.27 2.97,-40.39 8.89,-57.35 5.93,-16.95 14.28,-31.36 25.04,-43.21 10.77,-11.85 23.62,-20.96 38.53,-27.34 14.91,-6.38 31.36,-9.56 49.32,-9.56 17.71,0 34.04,3.18 48.96,9.56 14.91,6.37 27.75,15.49 38.52,27.34 10.77,11.86 19.18,26.26 25.24,43.21 6.05,16.96 9.08,36.08 9.08,57.35l0 11.28z"/>
  <path class="fil0" d="M969.39 248c-3.57,3.95 -8.54,8.16 -14.91,12.61 -6.37,4.46 -14.15,8.61 -23.32,12.43 -9.18,3.83 -19.8,6.98 -31.84,9.47 -12.05,2.49 -25.59,3.72 -40.64,3.72 -18.61,0 -35.43,-3 -50.47,-8.98 -15.05,-5.99 -27.92,-14.73 -38.62,-26.19 -10.71,-11.47 -18.96,-25.6 -24.76,-42.36 -5.8,-16.75 -8.7,-35.97 -8.7,-57.64l0 -15.48c0,-21.68 2.93,-40.93 8.8,-57.75 5.86,-16.83 14.06,-31.01 24.56,-42.54 10.51,-11.53 23.05,-20.3 37.57,-26.3 14.53,-5.99 30.47,-8.99 47.8,-8.99 19.25,0 35.76,2.34 49.53,6.98 13.76,4.66 25.23,11.18 34.41,19.6 9.18,8.42 16.18,18.43 21.03,30.03 4.84,11.59 7.96,24.34 9.36,38.23l-64.62 0c-1.02,-6.88 -2.58,-13 -4.69,-18.35 -2.11,-5.36 -5.03,-9.88 -8.79,-13.57 -3.76,-3.7 -8.42,-6.51 -13.96,-8.41 -5.55,-1.91 -12.21,-2.87 -19.98,-2.87 -8.03,0 -15.34,1.73 -21.89,5.16 -6.57,3.44 -12.14,8.64 -16.74,15.58 -4.58,6.95 -8.12,15.65 -10.61,26.09 -2.49,10.46 -3.73,22.69 -3.73,36.71l0 15.88c0,27.79 4.75,48.66 14.25,62.62 9.49,13.96 24.44,20.94 44.83,20.94 5.36,0 10.14,-0.35 14.34,-1.06 4.21,-0.7 7.91,-1.62 11.1,-2.77 3.18,-1.14 5.89,-2.42 8.12,-3.82 2.23,-1.41 4.04,-2.75 5.45,-4.02l0 -43.21 -46.65 0 0 -46.08 113.76 0 0 114.34z"/>
  <path class="fil0" d="M1075.52 132.32l42.45 0c12.75,0 22.34,-3.35 28.77,-10.04 6.43,-6.69 9.65,-16.03 9.65,-28.01 0,-11.98 -3.24,-21.39 -9.75,-28.2 -6.5,-6.82 -16.06,-10.23 -28.67,-10.23l-42.45 0 0 76.49zm36.33 51.81l-36.33 0 0 98.28 -67.11 0 0 -278.4 109.56 0c16.06,0 30.59,1.83 43.59,5.45 13.01,3.64 24.1,8.98 33.28,16.06 9.17,7.07 16.22,15.84 21.13,26.29 4.9,10.45 7.36,22.56 7.36,36.33 0,10.71 -1.14,20.24 -3.44,28.58 -2.29,8.35 -5.58,15.69 -9.84,21.99 -4.27,6.31 -9.41,11.8 -15.39,16.44 -6,4.66 -12.63,8.69 -19.89,12.14l58.13 112.24 0 2.87 -71.9 0 -49.13 -98.28z"/>
  <path class="fil0" d="M1346.07 178.59l59.84 0 -30.02 -96.55 -29.82 96.55zm75.9 51.82l-91.96 0 -16.06 52 -71.7 0 102.11 -278.4 63.09 0 102.88 278.4 -72.09 0 -16.25 -52z"/>
  <polygon class="fil0" points="1763.08,282.41 1696.36,282.41 1597.7,109.18 1597.7,282.41 1530.58,282.41 1530.58,4.01 1597.7,4.01 1696.16,177.25 1696.16,4.01 1763.08,4.01 "/>
  <path class="fil0" d="M1872.64 55.84l0 174.95 23.32 0c19.25,0 34.04,-6.85 44.37,-20.56 10.32,-13.7 15.48,-34.07 15.48,-61.09l0 -12.05c0,-26.89 -5.16,-47.16 -15.48,-60.81 -10.33,-13.63 -25.37,-20.45 -45.12,-20.45l-22.57 0zm-67.11 226.58l0 -278.4 89.68 0c18.85,0 36.2,3.26 52,9.76 15.81,6.5 29.42,15.65 40.82,27.44 11.41,11.79 20.3,25.88 26.68,42.25 6.37,16.38 9.55,34.39 9.55,54.02l0 11.66c0,19.77 -3.18,37.8 -9.55,54.11 -6.38,16.32 -15.27,30.34 -26.68,42.07 -11.41,11.73 -24.95,20.84 -40.62,27.34 -15.68,6.5 -32.84,9.75 -51.45,9.75l-90.43 0z"/>
  <polygon class="fil0" points="2231.34,164.44 2125.8,164.44 2125.8,230.79 2250.46,230.79 2250.46,282.41 2058.69,282.41 2058.69,4.01 2250.85,4.01 2250.85,55.84 2125.8,55.84 2125.8,114.53 2231.34,114.53 "/>
  <path class="fil0" d="M2442.43 55.84l0 174.95 23.33 0c19.24,0 34.03,-6.85 44.36,-20.56 10.32,-13.7 15.49,-34.07 15.49,-61.09l0 -12.05c0,-26.89 -5.16,-47.16 -15.49,-60.81 -10.33,-13.63 -25.37,-20.45 -45.12,-20.45l-22.57 0zm-67.11 226.58l0 -278.4 89.68 0c18.86,0 36.2,3.26 52,9.76 15.81,6.5 29.42,15.65 40.82,27.44 11.41,11.79 20.3,25.88 26.68,42.25 6.38,16.38 9.56,34.39 9.56,54.02l0 11.66c0,19.77 -3.18,37.8 -9.56,54.11 -6.38,16.32 -15.27,30.34 -26.68,42.07 -11.4,11.73 -24.95,20.84 -40.62,27.34 -15.68,6.5 -32.83,9.75 -51.44,9.75l-90.44 0z"/>
  <path class="fil0" d="M2795.97 137.29c0,-27.67 -4.62,-48.67 -13.87,-63.01 -9.24,-14.34 -22.46,-21.52 -39.68,-21.52 -17.97,0 -31.38,7.18 -40.24,21.52 -8.87,14.34 -13.3,35.34 -13.3,63.01l0 11.65c0,27.29 4.53,48.25 13.58,62.91 9.05,14.66 22.49,21.98 40.34,21.98 17.08,0 30.21,-7.29 39.39,-21.89 9.17,-14.59 13.76,-35.59 13.76,-63l0 -11.65zm68.25 11.65c0,21.3 -3,40.41 -8.98,57.36 -6,16.96 -14.38,31.35 -25.15,43.22 -10.78,11.86 -23.59,20.95 -38.43,27.25 -14.85,6.3 -31.13,9.46 -48.85,9.46 -17.98,0 -34.44,-3.16 -49.42,-9.46 -14.98,-6.3 -27.86,-15.39 -38.63,-27.25 -10.77,-11.86 -19.16,-26.26 -25.14,-43.22 -6,-16.95 -8.99,-36.06 -8.99,-57.36l0 -11.28c0,-21.27 2.96,-40.39 8.89,-57.35 5.92,-16.95 14.27,-31.36 25.04,-43.21 10.77,-11.85 23.62,-20.96 38.53,-27.34 14.91,-6.38 31.36,-9.56 49.32,-9.56 17.72,0 34.04,3.18 48.95,9.56 14.91,6.37 27.76,15.49 38.52,27.34 10.77,11.86 19.18,26.26 25.24,43.21 6.06,16.96 9.08,36.08 9.08,57.35l0 11.28z"/>
  <polygon class="fil0" points="3228.85,282.41 3162.12,282.41 3063.46,109.18 3063.46,282.41 2996.35,282.41 2996.35,4.01 3063.46,4.01 3161.93,177.25 3161.93,4.01 3228.85,4.01 "/>
  <path class="fil0" d="M3438.8 137.29c0,-27.67 -4.62,-48.67 -13.88,-63.01 -9.24,-14.34 -22.46,-21.52 -39.67,-21.52 -17.97,0 -31.38,7.18 -40.24,21.52 -8.87,14.34 -13.3,35.34 -13.3,63.01l0 11.65c0,27.29 4.53,48.25 13.58,62.91 9.05,14.66 22.49,21.98 40.34,21.98 17.08,0 30.22,-7.29 39.39,-21.89 9.18,-14.59 13.77,-35.59 13.77,-63l0 -11.65zm68.25 11.65c0,21.3 -2.99,40.41 -8.98,57.36 -5.99,16.96 -14.37,31.35 -25.14,43.22 -10.78,11.86 -23.58,20.95 -38.43,27.25 -14.85,6.3 -31.13,9.46 -48.85,9.46 -17.97,0 -34.44,-3.16 -49.42,-9.46 -14.98,-6.3 -27.85,-15.39 -38.62,-27.25 -10.77,-11.86 -19.15,-26.26 -25.14,-43.22 -6,-16.95 -8.98,-36.06 -8.98,-57.36l0 -11.28c0,-21.27 2.96,-40.39 8.89,-57.35 5.93,-16.95 14.28,-31.36 25.04,-43.21 10.77,-11.85 23.62,-20.96 38.53,-27.34 14.9,-6.38 31.35,-9.56 49.32,-9.56 17.71,0 34.03,3.18 48.95,9.56 14.92,6.37 27.75,15.49 38.52,27.34 10.77,11.86 19.18,26.26 25.24,43.21 6.05,16.96 9.08,36.08 9.08,57.35l0 11.28z"/>
  <path class="fil0" d="M3608.77 132.32l42.44 0c12.75,0 22.34,-3.35 28.78,-10.04 6.43,-6.69 9.65,-16.03 9.65,-28.01 0,-11.98 -3.25,-21.39 -9.75,-28.2 -6.5,-6.82 -16.06,-10.23 -28.68,-10.23l-42.44 0 0 76.49zm36.33 51.81l-36.33 0 0 98.28 -67.11 0 0 -278.4 109.56 0c16.06,0 30.59,1.83 43.59,5.45 13.01,3.64 24.1,8.98 33.27,16.06 9.18,7.07 16.22,15.84 21.13,26.29 4.9,10.45 7.36,22.56 7.36,36.33 0,10.71 -1.15,20.24 -3.44,28.58 -2.29,8.35 -5.58,15.69 -9.84,21.99 -4.28,6.31 -9.4,11.8 -15.39,16.44 -5.99,4.66 -12.62,8.69 -19.89,12.14l58.13 112.24 0 2.87 -71.89 0 -49.13 -98.28z"/>
  <polygon class="fil0" points="4006.09,55.84 3922.53,55.84 3922.53,282.41 3855.42,282.41 3855.42,55.84 3773.39,55.84 3773.39,4.01 4006.09,4.01 "/>
  <polygon class="fil0" points="4207.05,164.44 4101.5,164.44 4101.5,230.79 4226.16,230.79 4226.16,282.41 4034.39,282.41 4034.39,4.01 4226.55,4.01 4226.55,55.84 4101.5,55.84 4101.5,114.53 4207.05,114.53 "/>
  <path class="fil0" d="M143.48 667.58c-1.67,2.37 -4.19,5.06 -7.57,8.04 -3.38,2.99 -7.77,5.75 -13.16,8.3 -5.39,2.55 -11.89,4.71 -19.49,6.46 -7.59,1.76 -16.38,2.64 -26.38,2.64 -11.32,0 -21.68,-2.06 -31.08,-6.14 -9.38,-4.08 -17.48,-9.93 -24.28,-17.54 -6.8,-7.59 -12.1,-16.81 -15.87,-27.62 -3.77,-10.81 -5.66,-22.93 -5.66,-36.38l0 -23.33c0,-13.19 1.71,-25.08 5.13,-35.72 3.43,-10.63 8.37,-19.68 14.81,-27.15 6.46,-7.47 14.24,-13.22 23.37,-17.27 9.13,-4.03 19.44,-6.06 30.93,-6.06 10.62,0 20.01,1.42 28.17,4.28 8.16,2.87 15.09,6.83 20.8,11.93 5.71,5.09 10.22,11.1 13.56,17.99 3.33,6.9 5.53,14.4 6.58,22.49l-16.19 0c-0.96,-5.72 -2.63,-11.16 -5.01,-16.35 -2.37,-5.18 -5.66,-9.74 -9.87,-13.64 -4.21,-3.9 -9.41,-7.03 -15.6,-9.35 -6.18,-2.33 -13.62,-3.5 -22.31,-3.5 -9.39,0 -17.68,1.74 -24.88,5.2 -7.2,3.47 -13.27,8.35 -18.24,14.64 -4.96,6.28 -8.71,13.86 -11.25,22.74 -2.55,8.88 -3.82,18.71 -3.82,29.53l0 23.59c0,11.25 1.45,21.43 4.35,30.52 2.89,9.1 7,16.85 12.3,23.27 5.31,6.42 11.7,11.39 19.16,14.89 7.46,3.52 15.75,5.28 24.89,5.28 7.36,0 13.86,-0.55 19.48,-1.65 5.61,-1.1 10.49,-2.48 14.61,-4.16 4.12,-1.67 7.52,-3.47 10.19,-5.4 2.68,-1.94 4.72,-3.78 6.12,-5.53l0 -49.57 -51.46 0 0 -13.71 67.66 0 0 68.29z"/>
  <path class="fil0" d="M411.91 584c0,-11.33 -1.31,-21.58 -3.94,-30.71 -2.63,-9.14 -6.45,-16.89 -11.45,-23.27 -5,-6.37 -11.15,-11.28 -18.43,-14.76 -7.28,-3.48 -15.53,-5.21 -24.75,-5.21 -9.04,0 -17.18,1.73 -24.42,5.21 -7.24,3.47 -13.38,8.39 -18.43,14.76 -5.04,6.38 -8.91,14.13 -11.58,23.27 -2.68,9.14 -4.01,19.38 -4.01,30.71l0 20.83c0,11.42 1.36,21.7 4.08,30.85 2.72,9.14 6.62,16.92 11.71,23.33 5.09,6.42 11.26,11.33 18.5,14.76 7.24,3.43 15.38,5.15 24.42,5.15 9.3,0 17.57,-1.71 24.81,-5.15 7.24,-3.43 13.33,-8.34 18.29,-14.76 4.96,-6.41 8.73,-14.19 11.32,-23.33 2.58,-9.15 3.88,-19.43 3.88,-30.85l0 -20.83zm16.2 20.83c0,13.45 -1.75,25.6 -5.26,36.45 -3.51,10.86 -8.5,20.1 -14.95,27.76 -6.44,7.64 -14.28,13.55 -23.5,17.72 -9.21,4.17 -19.48,6.27 -30.8,6.27 -11.24,0 -21.43,-2.1 -30.61,-6.27 -9.17,-4.17 -17.05,-10.08 -23.63,-17.72 -6.58,-7.65 -11.67,-16.9 -15.27,-27.76 -3.6,-10.85 -5.39,-23 -5.39,-36.45l0 -20.57c0,-13.45 1.8,-25.62 5.39,-36.51 3.6,-10.89 8.64,-20.19 15.14,-27.89 6.5,-7.69 14.32,-13.61 23.5,-17.8 9.17,-4.17 19.37,-6.25 30.6,-6.25 11.32,0 21.59,2.08 30.8,6.25 9.21,4.19 17.09,10.11 23.63,17.8 6.54,7.69 11.56,17 15.07,27.89 3.51,10.89 5.26,23.06 5.26,36.51l0 20.57z"/>
  <polygon class="fil0" points="620.86,666.66 621.91,670.74 623.09,666.66 683.38,498.45 701.15,498.45 629.81,690.39 614.28,690.39 542.93,498.45 560.57,498.45 "/>
  <polygon class="fil0" points="932.21,598.37 842.56,598.37 842.56,676.68 945.63,676.68 945.63,690.39 826.37,690.39 826.37,498.45 944.97,498.45 944.97,512.29 842.56,512.29 842.56,584.66 932.21,584.66 "/>
  <path class="fil0" d="M1092.71 596.66l49.62 0c7.46,0 14.02,-1.14 19.68,-3.43 5.66,-2.29 10.37,-5.33 14.15,-9.16 3.78,-3.82 6.61,-8.26 8.5,-13.32 1.88,-5.05 2.83,-10.3 2.83,-15.75 0,-6.59 -1.05,-12.52 -3.16,-17.8 -2.11,-5.27 -5.24,-9.75 -9.41,-13.44 -4.18,-3.7 -9.28,-6.53 -15.33,-8.51 -6.06,-1.98 -13.03,-2.97 -20.94,-2.97l-45.93 0 0 84.37zm55.68 13.85l-55.68 0 0 79.88 -16.33 0 0 -191.93 62.26 0c10.01,0 19.03,1.22 27.06,3.68 8.02,2.47 14.86,6.09 20.53,10.88 5.66,4.78 10.01,10.7 13.03,17.73 3.03,7.03 4.54,15.12 4.54,24.25 0,6.33 -0.97,12.29 -2.9,17.86 -1.93,5.58 -4.65,10.61 -8.15,15.09 -3.51,4.49 -7.71,8.36 -12.57,11.61 -4.87,3.25 -10.25,5.76 -16.12,7.51l47.91 81.6 0 1.72 -17.25 0 -46.33 -79.88z"/>
  <polygon class="fil0" points="1487.64,690.39 1471.45,690.39 1361.27,526.13 1361.27,690.39 1344.95,690.39 1344.95,498.45 1361.27,498.45 1471.58,662.84 1471.58,498.45 1487.64,498.45 "/>
  <path class="fil0" d="M1758.84 584c0,-11.33 -1.32,-21.58 -3.95,-30.71 -2.63,-9.14 -6.45,-16.89 -11.45,-23.27 -5,-6.37 -11.15,-11.28 -18.43,-14.76 -7.28,-3.48 -15.53,-5.21 -24.75,-5.21 -9.04,0 -17.18,1.73 -24.41,5.21 -7.24,3.47 -13.39,8.39 -18.43,14.76 -5.05,6.38 -8.91,14.13 -11.59,23.27 -2.68,9.14 -4.02,19.38 -4.02,30.71l0 20.83c0,11.42 1.36,21.7 4.08,30.85 2.72,9.14 6.63,16.92 11.71,23.33 5.09,6.42 11.26,11.33 18.5,14.76 7.24,3.43 15.38,5.15 24.41,5.15 9.3,0 17.57,-1.71 24.82,-5.15 7.24,-3.43 13.33,-8.34 18.3,-14.76 4.95,-6.41 8.72,-14.19 11.32,-23.33 2.58,-9.15 3.88,-19.43 3.88,-30.85l0 -20.83zm16.19 20.83c0,13.45 -1.76,25.6 -5.27,36.45 -3.52,10.86 -8.49,20.1 -14.94,27.76 -6.45,7.64 -14.28,13.55 -23.5,17.72 -9.21,4.17 -19.48,6.27 -30.8,6.27 -11.24,0 -21.43,-2.1 -30.61,-6.27 -9.17,-4.17 -17.05,-10.08 -23.63,-17.72 -6.58,-7.65 -11.67,-16.9 -15.27,-27.76 -3.6,-10.85 -5.4,-23 -5.4,-36.45l0 -20.57c0,-13.45 1.8,-25.62 5.4,-36.51 3.6,-10.89 8.65,-20.19 15.14,-27.89 6.5,-7.69 14.32,-13.61 23.49,-17.8 9.17,-4.17 19.37,-6.25 30.61,-6.25 11.32,0 21.59,2.08 30.8,6.25 9.21,4.19 17.1,10.11 23.63,17.8 6.54,7.69 11.56,17 15.08,27.89 3.51,10.89 5.27,23.06 5.27,36.51l0 20.57z"/>
  <path class="fil0" d="M2091.68 512.29l0 164.38 36.33 0c10.27,0 19.52,-1.78 27.77,-5.35 8.25,-3.55 15.27,-8.57 21.07,-15.02 5.79,-6.46 10.24,-14.2 13.35,-23.2 3.11,-9.01 4.67,-18.96 4.67,-29.86l0 -17.92c0,-11.09 -1.57,-21.11 -4.74,-30.12 -3.15,-9.01 -7.61,-16.68 -13.35,-23 -5.75,-6.33 -12.66,-11.23 -20.74,-14.7 -8.07,-3.47 -17.07,-5.21 -26.98,-5.21l-37.39 0zm-16.19 178.09l0 -191.93 53.57 0c11.93,0 22.93,2.07 32.98,6.2 10.04,4.13 18.68,10.02 25.93,17.66 7.24,7.64 12.87,16.83 16.91,27.56 4.03,10.72 6.06,22.67 6.06,35.85l0 17.52c0,13.19 -2.02,25.14 -6.06,35.85 -4.04,10.72 -9.7,19.89 -16.98,27.49 -7.29,7.6 -16.02,13.47 -26.2,17.6 -10.18,4.13 -21.41,6.2 -33.7,6.2l-52.52 0z"/>
  <path class="fil0" d="M2474.51 584c0,-11.33 -1.32,-21.58 -3.95,-30.71 -2.63,-9.14 -6.45,-16.89 -11.44,-23.27 -5.01,-6.37 -11.16,-11.28 -18.43,-14.76 -7.28,-3.48 -15.53,-5.21 -24.75,-5.21 -9.04,0 -17.18,1.73 -24.42,5.21 -7.23,3.47 -13.38,8.39 -18.43,14.76 -5.05,6.38 -8.91,14.13 -11.59,23.27 -2.67,9.14 -4.01,19.38 -4.01,30.71l0 20.83c0,11.42 1.37,21.7 4.09,30.85 2.72,9.14 6.62,16.92 11.71,23.33 5.09,6.42 11.26,11.33 18.5,14.76 7.24,3.43 15.38,5.15 24.42,5.15 9.3,0 17.57,-1.71 24.82,-5.15 7.24,-3.43 13.33,-8.34 18.29,-14.76 4.95,-6.41 8.73,-14.19 11.32,-23.33 2.58,-9.15 3.88,-19.43 3.88,-30.85l0 -20.83zm16.19 20.83c0,13.45 -1.75,25.6 -5.26,36.45 -3.51,10.86 -8.5,20.1 -14.95,27.76 -6.45,7.64 -14.28,13.55 -23.49,17.72 -9.21,4.17 -19.48,6.27 -30.8,6.27 -11.24,0 -21.43,-2.1 -30.61,-6.27 -9.17,-4.17 -17.05,-10.08 -23.63,-17.72 -6.58,-7.65 -11.67,-16.9 -15.27,-27.76 -3.6,-10.85 -5.4,-23 -5.4,-36.45l0 -20.57c0,-13.45 1.8,-25.62 5.4,-36.51 3.6,-10.89 8.64,-20.19 15.14,-27.89 6.49,-7.69 14.32,-13.61 23.5,-17.8 9.17,-4.17 19.37,-6.25 30.61,-6.25 11.32,0 21.59,2.08 30.8,6.25 9.22,4.19 17.1,10.11 23.63,17.8 6.54,7.69 11.56,17 15.08,27.89 3.51,10.89 5.26,23.06 5.26,36.51l0 20.57z"/>
  <polygon class="fil0" points="2897,598.37 2807.34,598.37 2807.34,676.68 2910.42,676.68 2910.42,690.39 2791.15,690.39 2791.15,498.45 2909.77,498.45 2909.77,512.29 2807.34,512.29 2807.34,584.66 2897,584.66 "/>
  <path class="fil0" d="M3150.04 643.18c0,-5.27 -0.86,-9.95 -2.58,-14.03 -1.71,-4.09 -4.6,-7.82 -8.68,-11.21 -4.07,-3.38 -9.46,-6.48 -16.12,-9.29 -6.67,-2.82 -15,-5.63 -25.01,-8.45 -9.65,-2.72 -18.35,-5.69 -26.06,-8.89 -7.73,-3.21 -14.29,-6.97 -19.68,-11.27 -5.4,-4.3 -9.57,-9.27 -12.51,-14.9 -2.94,-5.63 -4.41,-12.21 -4.41,-19.77 0,-7.39 1.58,-14.1 4.74,-20.17 3.16,-6.06 7.59,-11.27 13.3,-15.61 5.71,-4.36 12.5,-7.74 20.4,-10.15 7.89,-2.41 16.54,-3.63 25.94,-3.63 10.08,0 19.19,1.5 27.31,4.49 8.12,2.98 15.02,7.08 20.74,12.26 5.7,5.19 10.08,11.25 13.16,18.19 3.07,6.94 4.6,14.41 4.6,22.41l-16.32 0c0,-6.24 -1.1,-12.02 -3.29,-17.34 -2.2,-5.31 -5.4,-9.9 -9.61,-13.77 -4.21,-3.87 -9.38,-6.9 -15.53,-9.1 -6.14,-2.19 -13.17,-3.29 -21.06,-3.29 -7.9,0 -14.86,0.95 -20.87,2.83 -6.02,1.89 -11.01,4.44 -15.01,7.65 -3.99,3.21 -7.03,6.96 -9.08,11.27 -2.07,4.31 -3.1,8.88 -3.1,13.71 0,4.56 0.86,8.78 2.57,12.65 1.71,3.87 4.58,7.46 8.62,10.75 4.04,3.3 9.35,6.37 15.93,9.22 6.58,2.85 14.69,5.56 24.34,8.11 10.1,2.82 19.09,5.89 27,9.22 7.89,3.34 14.55,7.28 20,11.8 5.44,4.53 9.56,9.73 12.37,15.62 2.81,5.89 4.21,12.71 4.21,20.43 0,7.83 -1.64,14.83 -4.93,21.03 -3.3,6.2 -7.85,11.46 -13.7,15.75 -5.83,4.31 -12.79,7.6 -20.86,9.89 -8.07,2.29 -16.85,3.43 -26.32,3.43 -5.72,0 -11.43,-0.49 -17.18,-1.45 -5.76,-0.97 -11.28,-2.44 -16.6,-4.42 -5.3,-1.98 -10.26,-4.51 -14.87,-7.58 -4.6,-3.07 -8.61,-6.74 -11.98,-11 -3.37,-4.27 -6.05,-9.14 -8.03,-14.64 -1.97,-5.49 -2.96,-11.62 -2.96,-18.39l16.19 0c0,8.09 1.66,14.92 5,20.5 3.34,5.57 7.63,10.08 12.9,13.5 5.26,3.43 11.19,5.92 17.77,7.45 6.58,1.54 13.16,2.31 19.75,2.31 7.46,0 14.24,-0.86 20.33,-2.57 6.1,-1.72 11.32,-4.16 15.66,-7.32 4.34,-3.17 7.68,-6.97 10,-11.4 2.33,-4.43 3.5,-9.37 3.5,-14.83z"/>
  <polygon class="fil0" points="3428.34,512.29 3362.66,512.29 3362.66,690.39 3346.47,690.39 3346.47,512.29 3280.91,512.29 3280.91,498.45 3428.34,498.45 "/>
  <path class="fil0" d="M3567.38 622.76l76.88 0 -38.43 -104.53 -38.45 104.53zm82.01 13.84l-87.01 0 -19.75 53.79 -16.98 0 72.53 -191.93 15.41 0 72.52 191.93 -16.85 0 -19.87 -53.79z"/>
  <path class="fil0" d="M3827.52 512.29l0 164.38 36.33 0c10.27,0 19.52,-1.78 27.78,-5.35 8.25,-3.55 15.26,-8.57 21.06,-15.02 5.79,-6.46 10.24,-14.2 13.36,-23.2 3.11,-9.01 4.67,-18.96 4.67,-29.86l0 -17.92c0,-11.09 -1.58,-21.11 -4.74,-30.12 -3.16,-9.01 -7.61,-16.68 -13.36,-23 -5.75,-6.33 -12.66,-11.23 -20.73,-14.7 -8.08,-3.47 -17.07,-5.21 -26.98,-5.21l-37.39 0zm-16.19 178.09l0 -191.93 53.57 0c11.93,0 22.93,2.07 32.98,6.2 10.04,4.13 18.69,10.02 25.93,17.66 7.24,7.64 12.88,16.83 16.91,27.56 4.04,10.72 6.06,22.67 6.06,35.85l0 17.52c0,13.19 -2.02,25.14 -6.06,35.85 -4.03,10.72 -9.7,19.89 -16.97,27.49 -7.3,7.6 -16.02,13.47 -26.21,17.6 -10.17,4.13 -21.41,6.2 -33.7,6.2l-52.52 0z"/>
  <path class="fil0" d="M4210.35 584c0,-11.33 -1.31,-21.58 -3.94,-30.71 -2.63,-9.14 -6.45,-16.89 -11.45,-23.27 -5.01,-6.37 -11.15,-11.28 -18.43,-14.76 -7.28,-3.48 -15.54,-5.21 -24.75,-5.21 -9.03,0 -17.18,1.73 -24.42,5.21 -7.24,3.47 -13.38,8.39 -18.43,14.76 -5.05,6.38 -8.91,14.13 -11.59,23.27 -2.68,9.14 -4.02,19.38 -4.02,30.71l0 20.83c0,11.42 1.37,21.7 4.09,30.85 2.71,9.14 6.62,16.92 11.71,23.33 5.09,6.42 11.26,11.33 18.5,14.76 7.24,3.43 15.38,5.15 24.42,5.15 9.3,0 17.57,-1.71 24.82,-5.15 7.24,-3.43 13.33,-8.34 18.29,-14.76 4.96,-6.41 8.74,-14.19 11.33,-23.33 2.58,-9.15 3.87,-19.43 3.87,-30.85l0 -20.83zm16.2 20.83c0,13.45 -1.76,25.6 -5.27,36.45 -3.51,10.86 -8.49,20.1 -14.95,27.76 -6.44,7.64 -14.27,13.55 -23.49,17.72 -9.21,4.17 -19.48,6.27 -30.8,6.27 -11.23,0 -21.43,-2.1 -30.61,-6.27 -9.17,-4.17 -17.05,-10.08 -23.63,-17.72 -6.58,-7.65 -11.67,-16.9 -15.27,-27.76 -3.59,-10.85 -5.4,-23 -5.4,-36.45l0 -20.57c0,-13.45 1.81,-25.62 5.4,-36.51 3.6,-10.89 8.65,-20.19 15.14,-27.89 6.5,-7.69 14.32,-13.61 23.49,-17.8 9.17,-4.17 19.37,-6.25 30.61,-6.25 11.32,0 21.59,2.08 30.8,6.25 9.22,4.19 17.1,10.11 23.63,17.8 6.54,7.69 11.56,17 15.07,27.89 3.51,10.89 5.27,23.06 5.27,36.51l0 20.57z"/>
  <polygon class="fil0" points="4226.55,409.47 3169.91,409.47 3169.91,357.97 4226.55,357.97 "/>
  <polygon class="fil0" points="4226.55,409.47 3169.91,409.47 3169.91,357.97 4226.55,357.97 "/>
  <polygon class="fil0" points="3169.91,409.47 2113.27,409.47 2113.27,357.97 3169.91,357.97 "/>
  <polygon class="fil0" points="2113.27,409.47 1056.64,409.47 1056.64,357.97 2113.27,357.97 "/>
  <polygon class="fil0" points="2113.27,409.47 1056.64,409.47 1056.64,357.97 2113.27,357.97 "/>
  <polygon class="fil0" points="1056.64,409.47 -0,409.47 -0,357.97 1056.64,357.97 "/>
 </g>
</svg>
