<?xml version="1.0" encoding="UTF-8"?>
<!DOCTYPE svg PUBLIC "-//W3C//DTD SVG 1.1//EN" "http://www.w3.org/Graphics/SVG/1.1/DTD/svg11.dtd">
<!-- Creator: CorelDRAW -->
<svg xmlns="http://www.w3.org/2000/svg" xml:space="preserve" width="622px" height="939px" version="1.1" style="shape-rendering:geometricPrecision; text-rendering:geometricPrecision; image-rendering:optimizeQuality; fill-rule:evenodd; clip-rule:evenodd"
viewBox="0 0 84340 127320"
 xmlns:xlink="http://www.w3.org/1999/xlink"
 xmlns:xodm="http://www.corel.com/coreldraw/odm/2003">
 <defs>
  <style type="text/css">
   <![CDATA[
    .str0 {stroke:black;stroke-width:320;stroke-miterlimit:22.9256}
    .fil0 {fill:none}
    .fil7 {fill:black}
    .fil1 {fill:black}
    .fil10 {fill:blue}
    .fil11 {fill:lime}
    .fil8 {fill:#DA2419}
    .fil2 {fill:#DA2419}
    .fil3 {fill:#E6E6E6}
    .fil5 {fill:fuchsia}
    .fil9 {fill:#FFCC00}
    .fil6 {fill:white}
    .fil4 {fill:white}
   ]]>
  </style>
 </defs>
 <g id="Camada_x0020_1">
  <metadata id="CorelCorpID_0Corel-Layer"/>
  <rect class="fil0 str0" x="160" y="160" width="84020" height="127000"/>
  <rect class="fil1 str0" x="160" y="160" width="84020" height="13200"/>
  <rect class="fil2 str0" x="160" y="13360" width="84020" height="7280"/>
  <rect class="fil3" x="160" y="20980" width="84020" height="320"/>
  <rect class="fil4" x="9620" y="14450" width="5430" height="1160" rx="240" ry="240"/>
  <rect class="fil4" x="9620" y="16380" width="5430" height="1160" rx="240" ry="240"/>
  <rect class="fil4" x="9620" y="18240" width="5430" height="1160" rx="240" ry="240"/>
  <rect class="fil5" x="5750" y="3350" width="23970" height="7800"/>
  <g id="_2868823803648">
   <polygon class="fil1" points="63560,20640 84180,580 84180,160 78810,160 57770,20640 "/>
   <polygon class="fil1" points="72630,20640 84180,9400 84180,3760 66840,20640 "/>
  </g>
  <g id="_2868823805856">
   <g>
    <path class="fil6" d="M33450 11200c-100,-50 -190,-110 -270,-180 -190,-160 -350,-380 -450,-620 -220,-490 -210,-1040 -20,-1540 -50,-300 -50,-530 40,-870l490 -1910 2590 2590c830,-630 1760,-1130 2750,-1490l0 0c50,-20 100,-30 150,-50 450,-160 920,-280 1390,-380l810 -160c250,-550 850,-890 1480,-780 460,70 840,380 1020,780l810 160c1230,250 2410,710 3470,1360 150,-180 290,-370 410,-570l500 -840 900 380c1220,510 2120,1430 2640,2640l380 910 -850 500c-190,110 -380,250 -560,390 1040,1670 1590,3590 1590,5570 0,2310 -760,4540 -2150,6370l100 100 10 450c20,700 -400,1240 -1030,1440 -60,860 -410,1840 -830,2550l-1500 2540 -300 -1570c-1320,970 -3030,1750 -4510,2210l-330 100 -330 -100c-1480,-460 -3180,-1240 -4500,-2210l-310 1570 -1500 -2540c-420,-710 -760,-1690 -820,-2550 -620,-180 -1040,-710 -1050,-1400l0 -480 100 -100c-2100,-2780 -2720,-6440 -1600,-9760l400 -1160 80 40c230,-480 500,-950 800,-1390zm13400 3140l-790 790c0,0 10,10 10,10 110,-10 220,-20 330,-30 320,-10 620,40 880,140 -120,-320 -260,-620 -430,-910zm-9360 -30c-180,300 -330,620 -440,950 270,-110 570,-160 910,-150 110,10 230,20 340,40 0,-10 0,-20 10,-20l-820 -820z"/>
   </g>
   <path class="fil7" d="M49900 23500l280 270 0 250c20,570 -370,950 -930,1000l-90 10 0 150c0,830 -350,1860 -770,2570l-830 1410 -210 -1100c-1370,1230 -3450,2170 -4980,2640l-190 60 -180 -60c-1540,-470 -3610,-1410 -4980,-2640l-210 1100 -840 -1410c-420,-710 -770,-1740 -770,-2570l0 -150 -80 -10c-560,-30 -940,-410 -950,-980l0 -260 270 -270c-2180,-2630 -2940,-6270 -1790,-9640l220 -640 40 20c330,-800 760,-1560 1290,-2250l-30 -20 320 -370 0 0c-250,290 -690,290 -990,30 -130,-110 -240,-270 -320,-440 -180,-420 -140,-880 50,-1280 -70,-310 -80,-460 10,-810l270 -1060 2270 2290c890,-730 1890,-1290 2970,-1690l10 0c40,-20 90,-30 130,-50 430,-150 880,-270 1330,-360l670 -130 10 30c130,-20 270,-40 410,-50 40,-510 510,-880 1020,-790 400,60 690,400 730,800 140,10 280,20 420,40l10 -30 660 130c1340,270 2580,800 3660,1530 260,-310 550,-660 740,-980l270 -460 510 210c1090,460 1910,1280 2370,2380l210 500 -470 280c-310,180 -660,470 -970,720 1110,1630 1750,3580 1750,5670 0,2410 -860,4650 -2320,6410zm-5500 -900c0,0 0,0 10,0l-10 0 0 0zm1330 -750c0,0 10,-10 10,-10l-10 -10c0,10 0,20 0,20zm1260 -1280l100 -120c160,-230 300,-470 420,-710l190 -500c150,-390 260,-790 330,-1180 -150,410 -430,770 -740,1160 -240,320 -480,620 -700,950l400 400zm1110 -3640c-40,-1170 -420,-2310 -1090,-3260 -100,40 -200,70 -300,110l-1270 1260c130,210 240,430 330,670 220,-50 440,-90 650,-100 870,-30 1420,470 1670,1290l10 30zm-4800 -5680c-60,-10 -130,-20 -190,-30l0 30 190 0zm-2030 -40c-90,10 -180,30 -260,40l260 0c0,-10 0,-30 0,-40zm-3860 2320c-740,990 -1170,2220 -1180,3520 10,-30 10,-60 20,-80l0 -40 10 -30c260,-820 800,-1320 1680,-1290 210,10 430,50 650,100 90,-230 210,-460 340,-670l-1520 -1510zm-1110 4440c140,960 520,1850 1070,2610l410 -400c-230,-330 -470,-640 -720,-960 -330,-420 -620,-800 -760,-1250zm2310 3880c10,0 10,0 20,10 0,-10 0,-20 -10,-30l-10 20zm1340 750c0,0 10,10 10,10l-10 -10 0 0zm4230 -8800l630 -620c-30,0 -50,0 -80,0 -170,0 -340,-40 -490,-120 -340,150 -690,250 -1050,310 350,100 690,250 990,430zm-520 6840c-100,40 -200,70 -300,110l20 730c70,-280 170,-570 280,-840zm-2680 890l20 -780c-100,-40 -200,-80 -300,-120 110,290 210,590 280,900zm-760 -7750c290,-180 620,-310 960,-410 -360,-60 -720,-160 -1050,-310 -150,80 -320,120 -500,120 0,0 -10,0 -10,0l600 600z"/>
   <path class="fil8" d="M43880 8400l0 -10c4080,790 7160,4390 7160,8700 0,4210 -2940,7730 -6880,8630 -10,0 -20,0 -20,0 -40,10 -80,20 -120,30 -2070,450 -4310,160 -6290,-990 -3740,-2150 -5310,-6610 -3950,-10540l0 0 10 0 10 0c370,-1090 950,-2080 1690,-2930l-10 0 -10 -10c1050,-1210 2380,-2080 3840,-2570 380,-130 770,-240 1180,-320l0 0 0 10c1110,-220 2260,-220 3390,0zm-1160 5510c1280,210 2310,1190 2600,2450 -170,50 -330,110 -500,160 0,-10 0,-10 0,-20 50,-200 -140,-390 -340,-370 -300,-740 -950,-1290 -1740,-1470l-20 -750zm-1450 2470c470,100 1260,110 1830,0 90,-20 160,70 160,170l0 820c0,90 -80,200 -160,170 -480,-180 -1500,-140 -1830,0 -80,40 -170,-80 -170,-170l0 -820c0,-100 80,-190 170,-170zm-1270 710l250 -10c0,40 10,70 30,90 30,30 70,50 110,50 40,0 70,-10 90,-30 20,-20 30,-40 30,-60 0,-20 -10,-40 -30,-60 -20,-10 -60,-30 -130,-50 -110,-20 -190,-50 -240,-100 -50,-40 -80,-90 -80,-160 0,-40 20,-80 40,-120 30,-40 60,-70 110,-90 50,-20 120,-30 210,-30 110,0 190,20 240,60 60,40 90,100 100,190l-240 10c-10,-40 -20,-60 -40,-80 -20,-20 -50,-30 -90,-30 -30,0 -50,10 -60,20 -20,20 -30,30 -30,50 0,10 10,20 20,30 10,20 40,30 90,40 110,20 190,40 240,70 50,20 90,60 110,90 20,40 30,80 30,130 0,50 -10,100 -40,140 -30,50 -70,80 -130,110 -50,20 -120,30 -200,30 -140,0 -240,-30 -290,-80 -60,-50 -90,-120 -100,-210zm2380 -60l230 60c-20,70 -40,120 -80,160 -30,50 -70,80 -120,100 -50,20 -110,30 -180,30 -90,0 -170,-10 -230,-40 -50,-20 -100,-70 -150,-140 -40,-60 -60,-150 -60,-250 0,-140 40,-250 110,-320 80,-70 180,-110 310,-110 110,0 190,20 250,60 60,40 110,110 140,200l-230 50c-10,-30 -20,-50 -30,-60 -10,-20 -30,-30 -50,-40 -20,-10 -40,-20 -70,-20 -60,0 -100,30 -130,70 -30,40 -40,90 -40,170 0,90 10,150 40,190 30,30 70,50 120,50 50,0 90,-20 110,-40 30,-30 50,-70 60,-120zm1160 -500l250 0 310 460 0 -460 240 0 0 840 -240 0 -310 -460 0 460 -250 0 0 -840zm-230 -20l1170 -250c120,-30 250,100 220,210 -90,330 -90,680 0,1050 30,110 -130,280 -220,220 -380,-240 -770,-310 -1170,-290 0,-10 0,-10 0,-20l0 -870c0,-20 0,-30 0,-50zm1450 1110c600,-120 870,-470 1630,-430 650,60 920,340 780,840 -20,-450 -280,-690 -770,-720l0 0c20,220 -190,490 -470,840 -210,270 -540,690 -880,1200l810 800c350,-570 730,-1040 940,-1310 470,-600 830,-1040 700,-1760 -420,-1340 -1490,-790 -2770,-400 -50,270 -30,540 30,820 10,40 10,80 0,120zm-120 2400c-370,660 -680,1430 -760,2230l730 -780 370 900c60,-530 250,-1050 490,-1540l-830 -810zm-1420 -2430c400,120 810,200 1220,190 0,0 10,0 10,-10 -360,-230 -740,-300 -1150,-280 -10,40 -40,80 -80,100zm-2150 -1080l-1180 -250c-110,-30 -240,100 -210,210 80,330 90,680 0,1050 -30,110 120,280 220,220 370,-240 760,-310 1160,-290 0,-10 0,-10 0,-20l0 -870c0,-20 10,-30 10,-50zm-1470 1110c-600,-120 -880,-470 -1630,-430 -660,60 -920,340 -790,840 30,-450 290,-690 770,-720 -20,220 200,490 470,840 220,280 560,700 900,1220l-810 790c-360,-570 -740,-1050 -960,-1320 -470,-600 -820,-1040 -690,-1760 410,-1340 1480,-790 2770,-400 40,270 30,540 -40,820 -10,40 -10,80 10,120zm120 2400c360,670 670,1430 760,2230l-730 -780 -380 900c-50,-520 -240,-1040 -480,-1530l830 -820zm1430 -2430c-400,120 -800,200 -1210,190 -10,0 -10,0 -10,-10 350,-230 740,-300 1150,-280 10,40 40,80 70,100zm480 -2930c-790,180 -1440,730 -1750,1470 -190,-20 -380,180 -330,370 10,10 10,20 10,30 -170,-60 -340,-110 -520,-170 290,-1260 1320,-2240 2610,-2450l-20 750zm3740 2880c-190,1340 -1190,2410 -2490,2690l-20 -750c790,-220 1420,-820 1680,-1590 90,-20 160,-60 210,-140l40 0c210,-50 390,-120 580,-210zm-3880 2690c-1300,-280 -2300,-1350 -2490,-2680 180,80 360,150 570,200l60 10c40,50 120,90 190,120 260,770 890,1380 1690,1600l-20 750zm380 -8350l-1820 0c-80,-150 -240,-250 -420,-250 -250,0 -460,200 -460,460 0,260 210,470 460,470 180,0 330,-100 410,-240 390,220 980,450 1790,510l-90 3370 -980 -990c-150,110 -280,240 -400,380l720 720c60,-50 140,-70 220,-60 180,40 390,80 580,80 220,20 440,10 660,0 20,0 40,0 60,0l0 0 30 -10 0 0c150,-10 290,-40 440,-70 80,-10 160,10 210,60l730 -720c-110,-130 -240,-250 -370,-360l-1020 1010 -80 -3410c800,-60 1400,-290 1790,-510 80,140 230,240 400,240 260,0 470,-210 470,-470 0,-260 -210,-460 -470,-460 -180,0 -330,100 -410,250l-1830 0 -10 -1090c-200,-10 -390,-10 -590,0 0,550 -10,970 -20,1090zm-170 6000l-140 5500c410,40 830,30 1250,-10l-140 -5490 1020 1020c140,-110 260,-240 370,-380l-780 -780c-200,-80 -390,-140 -620,-180l0 0 -10 0c-100,-10 -210,-20 -330,-20l0 0c-20,0 -40,0 -60,0 -60,0 -140,0 -220,0 -470,0 -640,80 -920,190l-800 800c100,140 220,260 360,370l1020 -1020zm-230 8860c-50,510 -510,880 -1020,810 -1580,-230 -2760,-740 -3450,-1110l560 -130c-810,-290 -1730,-1130 -1730,-1130 0,1090 680,2250 680,2250l140 -710c1470,2150 5530,3390 5530,3390 0,0 4070,-1240 5540,-3390l140 710c0,0 680,-1160 680,-2250 0,0 -920,840 -1730,1130l560 130c-700,370 -1870,880 -3460,1110 -510,70 -970,-300 -1020,-810 -470,30 -950,40 -1420,0zm970 -19320l0 -260c-10,-120 -90,-230 -210,-250 -160,-20 -290,90 -300,240 0,50 0,140 -10,270 180,0 350,0 520,0zm-7280 16980c-250,-20 -360,-150 -370,-370l340 -330c110,130 240,250 360,370l-330 330zm14400 -370c0,210 -100,350 -370,370l-320 -320c120,-120 250,-250 370,-370l320 320zm-3070 -2330l-2100 -2090c140,-120 260,-250 380,-390l2090 2100c-120,140 -240,260 -370,380zm-6840 -6820l-2090 -2090c120,-140 260,-270 400,-390l2090 2100c-140,120 -270,240 -400,380zm-4470 -4460l-890 -890c-100,100 -260,490 -270,670 -60,100 -590,-400 -180,-1100 100,-310 -130,-320 0,-830l1740 1740c-140,130 -270,270 -400,410zm2330 10910l2100 -2100c110,140 230,260 360,380l-2090 2090c-130,-120 -250,-240 -370,-370zm6840 -6810l1640 -1640c90,-220 170,-440 240,-640 280,230 540,490 770,770 -200,70 -420,150 -640,240l-1640 1640c-120,-130 -240,-260 -370,-370zm3730 -5100c530,-630 860,-1070 1000,-1310 950,400 1640,1110 2040,2050 -240,140 -670,470 -1300,990 -500,-650 -1080,-1230 -1740,-1730zm-2030 150l490 300c100,60 170,120 210,180 50,60 70,130 80,200 10,70 0,150 -20,220 -20,80 -50,150 -100,230 -70,110 -140,190 -200,240 -60,40 -130,70 -200,90 -70,10 -140,10 -200,-10 -90,-20 -160,-50 -220,-90l-480 -300 640 -1060zm190 440l-360 580 80 50c70,40 120,70 160,70 40,0 80,-10 120,-40 40,-30 90,-80 140,-170 70,-110 100,-200 80,-260 -10,-70 -60,-130 -140,-180l-80 -50zm1450 660l730 720 -180 190 -460 -450 -140 140 430 420 -180 180 -430 -410 -170 170 470 460 -190 210 -750 -740 870 -890zm2080 2740l140 330 -470 690 640 -260 140 340 -1160 470 -130 -340 460 -690 -640 260 -130 -340 1150 -460zm-270 2870l-60 -430 -210 -40 -50 -390 1300 310 50 420 -1170 620 -60 -400 200 -90zm260 -110l420 -200 -460 -70 40 270zm820 990l-100 1160 -310 -20 40 -400 -940 -80 40 -380 930 80 40 -390 300 30zm-1470 2230l130 -410 -180 -130 120 -370 1050 820 -130 410 -1330 60 120 -380 220 0zm280 10l470 0 -390 -260 -80 260zm240 1460l-200 330 -800 -490 -320 510 -260 -160 520 -840 1060 650zm-13810 300l-190 -310c40,-40 80,-70 90,-110 30,-60 20,-120 -10,-180 -30,-50 -60,-80 -90,-100 -40,-10 -70,-10 -100,0 -30,20 -50,50 -60,80 -10,40 0,110 30,210 40,170 60,300 30,390 -20,90 -70,160 -160,210 -50,30 -110,40 -180,30 -70,0 -140,-30 -200,-80 -60,-50 -130,-130 -190,-250 -70,-140 -100,-260 -90,-360 10,-100 70,-190 180,-270l190 310c-50,40 -70,80 -80,120 -10,30 0,80 30,130 20,40 40,60 70,70 30,10 50,10 70,0 20,-10 30,-30 40,-50 10,-20 0,-70 -20,-130 -50,-170 -70,-290 -70,-370 0,-90 10,-150 40,-210 40,-50 80,-100 140,-130 70,-40 150,-50 230,-50 80,10 150,40 220,100 70,50 130,130 190,240 100,180 130,330 100,440 -40,110 -110,200 -210,270zm-1590 -1360l-170 -620c-30,-140 -30,-240 20,-330 50,-80 130,-140 250,-170 120,-40 220,-20 310,30 90,50 150,160 190,310l60 200 440 -120 100 370 -1200 330zm410 -510l-20 -90c-20,-80 -50,-120 -80,-150 -30,-20 -70,-30 -110,-10 -30,10 -60,30 -80,60 -20,30 -20,80 0,150l30 110 260 -70zm-190 -1320c-200,10 -360,-40 -480,-140 -120,-110 -180,-270 -190,-470 -10,-210 40,-370 140,-490 110,-110 260,-180 460,-180 150,-10 270,10 360,50 100,50 170,120 230,210 60,90 90,200 90,340 10,140 -10,260 -50,350 -40,90 -110,170 -200,230 -90,60 -210,100 -360,100zm-20 -380c130,-10 220,-30 270,-80 50,-50 80,-120 80,-200 -10,-80 -40,-140 -90,-190 -60,-40 -160,-60 -300,-50 -110,0 -200,30 -250,80 -50,50 -80,120 -70,200 0,80 30,140 90,180 60,50 150,70 270,60zm660 -1500l-1210 -270 140 -630c30,-110 60,-200 90,-260 30,-50 80,-90 140,-120 70,-20 140,-30 210,-10 70,10 130,40 170,80 40,40 70,90 90,150 10,30 20,80 20,140 30,-40 50,-70 70,-90 10,-10 40,-20 70,-40 40,-20 70,-30 90,-40l390 -100 -90 420 -420 120c-50,10 -90,30 -110,50 -20,20 -40,50 -50,80l0 40 490 110 -90 370zm-630 -540l30 -150c10,-20 10,-60 10,-110 0,-20 -10,-50 -20,-70 -20,-20 -40,-30 -70,-40 -40,-10 -70,0 -100,20 -30,20 -50,60 -60,130l-40 170 250 50zm-100 -1530l500 -1060 270 130 -160 350 850 400 -170 350 -850 -400 -160 360 -280 -130zm3090 -2890l330 -140c40,90 60,170 70,250 0,80 -20,160 -50,230 -30,70 -90,140 -180,210 -100,90 -200,140 -290,170 -90,30 -190,20 -310,-20 -110,-30 -210,-110 -310,-230 -130,-150 -190,-310 -180,-470 10,-150 90,-290 250,-420 120,-100 230,-160 340,-170 110,-10 230,20 340,100l-210 270c-30,-20 -60,-30 -80,-40 -30,0 -70,0 -100,0 -40,10 -70,30 -100,50 -70,60 -90,130 -80,210 0,60 40,140 110,220 90,110 170,170 230,180 70,10 130,-10 190,-60 50,-40 80,-90 90,-150 0,-60 -20,-120 -60,-190zm490 -1230l340 -170 430 830 530 -270 140 270 -880 450 -560 -1110zm2430 -890l380 -90 170 720c20,80 20,150 20,210 -10,70 -30,140 -70,200 -40,60 -80,100 -120,130 -70,50 -150,80 -260,110 -60,10 -120,20 -190,30 -70,10 -140,10 -190,-10 -50,-10 -100,-30 -150,-70 -50,-30 -90,-80 -120,-120 -40,-70 -60,-140 -80,-200l-170 -720 370 -90 180 740c10,70 50,110 90,140 50,30 100,40 170,20 60,-10 110,-40 130,-90 30,-40 40,-100 20,-170l-180 -740zm1300 -190l720 20c120,0 210,30 270,90 60,60 100,140 90,230 0,70 -20,130 -70,180 -30,40 -80,70 -140,90 90,20 160,60 200,110 40,50 60,120 60,200 0,60 -20,120 -50,170 -30,50 -70,90 -130,120 -30,20 -80,30 -140,40 -90,10 -150,10 -180,10l-660 -10 30 -1250zm370 500l170 0c60,0 100,0 130,-20 20,-20 30,-50 30,-90 10,-40 -10,-70 -30,-90 -20,-20 -60,-30 -120,-30l-170 -10 -10 240zm-10 490l200 0c70,0 110,-10 140,-30 30,-20 40,-50 40,-90 0,-40 -10,-70 -40,-90 -20,-30 -70,-40 -140,-40l-190 0 -10 250zm-1090 14190l-340 1220 -330 -90 220 -800c-70,30 -130,50 -190,60 -60,10 -130,20 -210,20l70 -270c130,-10 230,-30 300,-60 80,-40 150,-90 200,-160l280 80zm60 1050l350 -20c10,50 20,80 40,100 20,30 40,40 80,40 50,0 100,-20 130,-70 30,-40 50,-130 70,-260 -40,40 -90,70 -130,80 -50,20 -100,20 -150,20 -120,-10 -210,-60 -280,-140 -70,-90 -100,-190 -90,-310 10,-80 30,-160 80,-220 40,-60 100,-110 170,-140 70,-30 160,-40 260,-30 130,10 220,40 290,80 80,50 130,120 170,220 40,100 50,220 40,370 -20,230 -80,390 -180,480 -100,100 -240,140 -410,130 -90,-10 -170,-20 -230,-50 -50,-30 -100,-70 -130,-110 -40,-50 -60,-110 -80,-170zm680 -510c10,-70 -10,-120 -40,-160 -30,-40 -70,-60 -120,-70 -40,0 -80,10 -110,50 -40,30 -60,80 -60,150 -10,70 10,120 30,160 30,40 70,60 120,60 50,10 90,-10 120,-40 40,-30 60,-80 60,-150zm1190 -430l20 1270 -350 0 -10 -820c-60,40 -110,70 -170,100 -50,30 -110,60 -190,80l-10 -280c120,-40 210,-90 270,-140 70,-60 120,-120 150,-200l290 -10zm240 -40l800 -180 70 270 -550 120 20 190c30,-30 70,-50 100,-60 30,-20 70,-40 110,-40 120,-30 220,-20 320,40 90,50 150,140 170,250 20,80 20,160 0,240 -20,80 -70,150 -130,200 -60,60 -150,100 -260,120 -80,20 -150,30 -210,30 -60,0 -110,-20 -160,-40 -50,-20 -90,-40 -120,-80 -40,-30 -70,-70 -100,-120l330 -120c30,50 60,90 90,110 40,20 80,30 120,20 50,-10 80,-40 100,-80 30,-50 30,-100 10,-170 -10,-70 -40,-120 -80,-150 -40,-30 -80,-30 -140,-20 -30,10 -60,20 -80,40 -20,20 -40,50 -60,80l-300 30 -50 -680zm90 -490l0 0c130,-20 260,-50 390,-70 1420,-320 2730,-1110 3680,-2290l20 10c420,-530 770,-1120 1020,-1750l-30 -20c1160,-2970 10,-6420 -2840,-8060 -1660,-960 -3570,-1110 -5270,-570 -2640,850 -4560,3330 -4560,6260 0,3280 2410,6000 5560,6490l0 10c680,110 1360,100 2030,-10zm830 -15730c4310,860 7570,4670 7570,9240 0,4530 -3210,8320 -7480,9210 -2200,470 -4570,160 -6670,-1050 -3960,-2290 -5630,-7010 -4210,-11180 0,10 10,10 20,10 400,-1180 1030,-2260 1830,-3190l-10 -10c1070,-1220 2410,-2110 3880,-2640l10 0c40,-20 80,-30 120,-50 410,-140 820,-250 1250,-340l0 10c1200,-240 2460,-240 3680,10l10 -20zm-780 18230l0 0c270,-40 540,-80 810,-140 40,-10 90,-20 130,-30l20 0c2020,-470 3890,-1640 5200,-3400l10 10c430,-560 790,-1180 1080,-1840l-30 -20c1790,-4150 230,-9090 -3790,-11410 -2320,-1330 -4980,-1530 -7340,-760l-10 0c-30,10 -70,30 -110,40 -3540,1230 -6090,4590 -6090,8560 0,4630 3490,8460 7990,8990l0 10c710,80 1430,80 2130,-10z"/>
   <path class="fil9" d="M39640 3110c140,150 270,300 410,460 210,-40 410,-90 610,-130 -100,180 -200,360 -310,540 110,180 210,360 310,540 -200,-40 -410,-80 -610,-120 -140,150 -280,300 -420,450 -20,-200 -40,-410 -70,-610 -180,-90 -370,-170 -560,-260 190,-90 380,-170 570,-260 20,-200 40,-410 70,-610zm2530 -630l280 620 690 80 -510 470 140 670 -600 -340 -600 340 130 -670 -500 -470 680 -80 290 -620zm2530 630c-140,150 -280,300 -420,460 -200,-40 -400,-90 -600,-130 100,180 200,360 300,540 -100,180 -200,360 -300,540 200,-40 400,-80 600,-120 140,150 280,300 420,450 30,-200 50,-410 70,-610 190,-90 380,-170 560,-260 -180,-90 -370,-170 -560,-260 -20,-200 -50,-410 -70,-610zm3300 2270l-360 170 -320 -210 50 390 -310 240 390 70 140 370 190 -350 390 -20 -280 -280 110 -380zm-1370 -1180c-130,110 -250,210 -380,320 -160,-60 -310,-110 -470,-170 60,160 120,310 180,460 -100,130 -200,270 -300,400 160,-10 330,-20 490,-30 100,130 190,270 280,410 40,-160 90,-320 130,-480 160,-50 320,-100 470,-140 -130,-90 -270,-180 -410,-270 0,-170 10,-330 10,-500zm-10290 1180l350 170 330 -210 -50 390 300 240 -380 70 -140 370 -190 -350 -390 -20 270 -280 -100 -380zm1370 -1180c120,110 250,210 380,320 150,-60 310,-110 470,-170 -60,160 -120,310 -180,460 100,130 200,270 300,400 -170,-10 -330,-20 -500,-30 -90,130 -180,270 -280,410 -40,-160 -80,-320 -120,-480 -160,-50 -320,-100 -480,-140 140,-90 280,-180 420,-270 -10,-170 -10,-330 -10,-500z"/>
  </g>
  <rect class="fil10" x="57370" y="3010" width="23970" height="7800"/>
  <rect class="fil11" x="67470" y="15170" width="13880" height="4700"/>
 </g>
</svg>
