<?xml version="1.0" encoding="UTF-8"?>
<!DOCTYPE svg PUBLIC "-//W3C//DTD SVG 1.1//EN" "http://www.w3.org/Graphics/SVG/1.1/DTD/svg11.dtd">
<!-- Creator: CorelDRAW -->
<svg xmlns="http://www.w3.org/2000/svg" xml:space="preserve" width="701px" height="948px" version="1.1" style="shape-rendering:geometricPrecision; text-rendering:geometricPrecision; image-rendering:optimizeQuality; fill-rule:evenodd; clip-rule:evenodd"
viewBox="0 0 1988510 2689970"
 xmlns:xlink="http://www.w3.org/1999/xlink"
 xmlns:xodm="http://www.corel.com/coreldraw/odm/2003">
 <defs>
  <style type="text/css">
   <![CDATA[
    .fil1 {fill:#FFD700}
    .fil0 {fill:#DC2626}
   ]]>
  </style>
 </defs>
 <g id="Camada_x0020_1">
  <metadata id="CorelCorpID_0Corel-Layer"/>
  <path class="fil0" d="M1174320 401850l550 -1240c430070,83500 754790,462080 754790,916570 0,444150 -310130,815770 -725630,910370 -680,160 -1360,300 -2030,460 -4080,920 -8160,1830 -12250,2700 -218650,47280 -454900,16660 -663900,-104010 -393590,-227250 -559100,-697750 -416380,-1111950l40 0 1590 170 1000 100c39170,-114550 99970,-219060 177540,-308660l-150 -210 -1030 -1420c110410,-127060 250770,-218830 404080,-270830 40280,-13830 81790,-25030 124350,-33290l10 30 150 320c116770,-22440 238100,-22740 357270,890zm-122140 580310c135570,22620 243960,125500 274650,258160 -17810,5680 -35570,11600 -53330,17160 150,-600 300,-1200 460,-1790 5340,-20850 -14840,-41760 -35590,-39320 -32280,-77550 -100660,-136290 -184170,-155230l-2020 -78980zm-152530 260300c49610,10720 132900,12250 192460,0 9550,-1960 17730,7980 17730,17730l0 87070c0,9750 -8580,21110 -17730,17720 -50350,-18640 -158040,-14620 -192460,0 -8970,3820 -17720,-7970 -17720,-17720l0 -87070c0,-9750 8190,-19790 17720,-17730zm-133690 75320l25850 -1620c550,4180 1700,7380 3430,9560 2810,3550 6810,5330 12020,5330 3870,0 6870,-900 8960,-2730 2110,-1820 3160,-3940 3160,-6340 0,-2270 -990,-4330 -2970,-6130 -1990,-1810 -6630,-3490 -13910,-5110 -11940,-2670 -20440,-6230 -25520,-10690 -5130,-4430 -7700,-10090 -7700,-16990 0,-4510 1320,-8780 3940,-12790 2630,-4050 6570,-7210 11840,-9500 5270,-2300 12490,-3450 21660,-3450 11270,0 19840,2090 25750,6300 5910,4180 9420,10850 10540,20000l-25600 1520c-680,-4000 -2110,-6920 -4290,-8720 -2190,-1830 -5210,-2730 -9040,-2730 -3160,0 -5560,680 -7160,2010 -1600,1330 -2400,2980 -2400,4900 0,1400 650,2650 1940,3780 1260,1170 4290,2230 9090,3240 11900,2570 20420,5170 25540,7790 5160,2630 8910,5870 11250,9770 2340,3880 3510,8230 3510,13050 0,5640 -1570,10850 -4680,15630 -3140,4760 -7490,8390 -13110,10850 -5600,2460 -12660,3700 -21190,3700 -14980,0 -25360,-2900 -31120,-8660 -5770,-5770 -9030,-13090 -9790,-21970zm250510 -6920l23880 7200c-1610,6690 -4130,12290 -7590,16770 -3450,4490 -7720,7870 -12850,10150 -5110,2280 -11610,3430 -19510,3430 -9600,0 -17410,-1400 -23510,-4170 -6070,-2790 -11300,-7690 -15710,-14690 -4410,-6990 -6630,-15980 -6630,-26890 0,-14570 3880,-25770 11630,-33610 7780,-7810 18750,-11730 32950,-11730 11100,0 19840,2240 26200,6730 6340,4490 11080,11380 14150,20700l-24000 5310c-840,-2660 -1720,-4610 -2640,-5850 -1550,-2070 -3410,-3670 -5610,-4780 -2210,-1120 -4670,-1680 -7400,-1680 -6200,0 -10930,2480 -14220,7430 -2480,3670 -3730,9460 -3730,17310 0,9770 1470,16440 4450,20070 2970,3610 7140,5410 12510,5410 5220,0 9150,-1450 11820,-4390 2670,-2910 4600,-7160 5810,-12720zm122950 -52060l25420 0 33050 48660 0 -48660 25720 0 0 88130 -25720 0 -32870 -48400 0 48400 -25600 0 0 -88130zm-25160 -1990l124260 -26920c12080,-2620 25540,10500 22470,22480 -8920,34820 -9460,71500 0,110410 2920,12010 -12990,29820 -23370,23100 -39160,-25360 -80440,-32630 -122810,-30670 50,-540 70,-1090 70,-1640l0 -92000c0,-1650 -220,-3240 -620,-4760zm153210 116780c62970,-13050 92190,-49370 171670,-44910 69230,5910 96860,35140 82880,87710 -2930,-47090 -30080,-72400 -81450,-75930l0 0c2140,23590 -20150,51850 -49410,88920 -22670,28730 -57600,72360 -92960,126020l84870 84880c37510,-60030 77160,-109390 99990,-138310 49500,-62730 86800,-110010 72870,-185170 -43370,-141180 -156100,-83210 -291980,-42400 -4500,28690 -2880,57440 4090,86140 1060,4340 710,8810 -570,13050zm-12330 252830c-38760,70230 -71660,151040 -80710,235000l76850 -82420 39850 94830c5930,-55030 25930,-110360 51420,-161570l-87410 -85840zm-149830 -256520c42210,12610 84790,21340 128170,20010 420,-20 850,-40 1270,-70 -37750,-24370 -78040,-31870 -121070,-29690 -1570,4140 -4560,7590 -8370,9750zm-226900 -113090l-124260 -26920c-12080,-2620 -25540,10500 -22480,22480 8930,34820 9460,71500 0,110410 -2910,12010 13000,29820 23370,23100 39160,-25360 80450,-32630 122820,-30670 -50,-540 -70,-1090 -70,-1640l0 -92000c0,-1650 220,-3240 620,-4760zm-155370 116780c-62970,-13050 -92190,-49370 -171670,-44910 -69230,5910 -96850,35140 -82880,87710 2940,-47090 30080,-72400 81450,-75930 -2140,23590 20160,51850 49410,88920 23080,29250 58870,73960 94880,128960l-85920 83330c-37770,-60660 -77850,-110550 -100850,-139700 -49510,-62730 -86800,-110010 -72870,-185170 43360,-141180 156090,-83210 291970,-42400 4500,28690 2890,57440 -4090,86140 -1050,4340 -710,8810 570,13050zm12620 253360c38640,70100 71400,150720 80430,234470l-76850 -82420 -39850 94830c-5890,-54590 -25620,-109450 -50810,-160310l87080 -86570zm151700 -257050c-42220,12610 -84800,21340 -128170,20010 -430,-20 -850,-40 -1280,-70 37760,-24370 78040,-31870 121080,-29690 1560,4140 4560,7590 8370,9750zm50210 -308760c-83470,18930 -151840,77640 -184130,155140 -20450,-1770 -40000,18850 -34730,39410 220,840 420,1680 630,2510 -18150,-5640 -36290,-11690 -54490,-17510 30570,-132830 139040,-235890 274740,-258530l-2020 78980zm394560 304320c-19990,140490 -125950,253290 -262900,283440l-2020 -78990c83080,-23400 149460,-86650 177180,-167830 9110,-1880 17210,-6150 22320,-14660l3480 -720c22380,-4640 41580,-12500 61940,-21240zm-409590 283440c-136770,-30110 -242620,-142640 -262820,-282870 19870,8510 38710,16130 60600,20670l6050 1240c4520,5600 12550,9880 20460,12540 27400,81940 94100,145880 177730,169430l-2020 78990zm40710 -880890l-192850 0c-8200,-15730 -24480,-26590 -43460,-26590 -27160,0 -49190,22030 -49190,49190 0,27160 22030,49200 49190,49200 18310,0 34100,-10130 42590,-24960 41670,23330 104100,47720 189030,53430l-9080 355110 -103960 -104320c-15420,11700 -29500,25210 -41900,40310l76230 76090c6030,-5230 13990,-7950 22630,-6090 19120,4140 40860,7830 61550,8600 22730,1220 46490,1050 69080,-450 2140,-130 4270,-290 6380,-460l300 -20 2840 -230 0 -30c16050,-1520 31400,-4270 46780,-7430 8640,-1780 16570,970 22580,6200l76300 -76010c-11610,-14160 -24700,-26940 -39000,-38130l-106880 106820 -9210 -359960c84940,-5710 147350,-30100 189040,-53430 8480,14830 24270,24960 42570,24960 27180,0 49210,-22040 49210,-49200 0,-27160 -22030,-49190 -49210,-49190 -18970,0 -35250,10860 -43450,26590l-192880 0 -1330 -114850c-20680,-1070 -41420,-1180 -62160,-300 -580,58100 -1160,102890 -1740,115150zm-18310 632820l-14820 579820c43740,4100 87820,3850 131510,-730l-14800 -578760 107590 107640c14530,-12000 27710,-25670 39250,-40780l-82150 -82380c-20650,-8210 -40740,-14760 -65550,-18120l0 -10 -970 -120c-10440,-1370 -21720,-2180 -34230,-2310l0 0c-2320,-60 -4590,-110 -6800,-140 -6530,-100 -14550,-70 -23290,200 -49910,430 -67410,8350 -96660,19680l-84890 84560c11220,14480 23960,27610 37950,39200l107860 -107750zm-24100 934670c-4960,53470 -53790,92800 -107480,84970 -166980,-24400 -291010,-77850 -364330,-117330l58920 -13700c-84830,-29700 -182380,-118770 -182380,-118770 0,114530 72100,237540 72100,237540l14690 -75050c154600,226100 583520,356810 583520,356810 0,0 428940,-130730 583520,-356810l14700 75050c0,0 72100,-123010 72100,-237540 0,0 -97560,89070 -182380,118770l58910 13700c-73330,39480 -197350,92930 -364320,117330 -53880,7860 -102860,-31780 -107530,-85530 -50130,3850 -100270,4030 -150040,560zm102200 -2037280l-310 -27200c-600,-12840 -9560,-24470 -22230,-26590 -16310,-2740 -30640,9350 -31380,25160 -230,4830 -460,14760 -680,28510 18200,-440 36410,-410 54600,120zm-767430 1790390c-26860,-1800 -38670,-15750 -38990,-38990l35040 -34900c12560,13420 25510,26470 38780,39190l-34830 34700zm1518000 -38990c510,22160 -10900,36230 -38980,38990l-34050 -33980c13320,-12740 26300,-25810 38900,-39240l34130 34230zm-324000 -245490l-220870 -220970c14170,-12400 27350,-25920 39400,-40440l220820 221430c-12550,13860 -25670,27210 -39350,39980zm-720450 -719060l-221080 -220660c13420,-14480 27510,-28360 42190,-41620l220790 221560c-15040,12380 -29050,26000 -41900,40720zm-472090 -471190l-93620 -93440c-10420,10680 -26780,51950 -28580,70320 -6200,11430 -61480,-42320 -19030,-115580 10600,-32960 -13600,-33980 260,-87800l183630 184160c-14640,13700 -28860,27820 -42660,42340zm245930 1150480l221470 -220610c11730,14020 24520,27100 38230,39120l-221040 220800c-13430,-12570 -26320,-25690 -38660,-39310zm720810 -717420l173640 -173550c9280,-23330 17600,-45730 24960,-67200 29600,24770 56960,52010 81760,81380 -21790,7440 -44530,15870 -68220,25290l-173120 172450c-12020,-13800 -25070,-26620 -39020,-38370zm394290 -538270c55120,-66160 90270,-112080 105430,-137750 99840,42040 172880,116410 214790,215960 -25560,15090 -71180,49980 -136850,104660 -53010,-68290 -114600,-129820 -183370,-182870zm-214030 16140l51460 31430c10130,6180 17500,12580 22060,19120 4550,6580 7310,13670 8260,21310 920,7650 220,15420 -2130,23370 -2320,7960 -5820,15750 -10490,23390 -7310,11970 -14340,20430 -21100,25350 -6750,4940 -13910,8170 -21480,9670 -7580,1490 -14580,1290 -21050,-610 -8830,-2600 -16340,-5790 -22490,-9550l-51470 -31420 68430 -112060zm19110 46470l-37370 61200 8500 5190c7250,4430 12910,6770 16960,7060 4040,250 8140,-1080 12330,-4000 4200,-2950 9010,-8900 14490,-17870 7250,-11870 10270,-21160 9060,-27910 -1210,-6760 -6310,-12880 -15310,-18380l-8660 -5290zm153300 69630l77440 76080 -19660 20020 -48400 -47550 -14650 14910 44870 44080 -18770 19100 -44860 -44080 -18120 18450 49840 48960 -20820 21190 -78880 -77490 92010 -93670zm219500 288460l14200 35100 -48760 72820 67210 -27170 14370 35530 -121730 49220 -14360 -35530 48490 -72420 -66840 27030 -14300 -35360 121720 -49220zm-28620 303020l-5860 -45590 -22310 -3790 -5270 -41070 136510 32240 5670 44080 -123950 65540 -5410 -42130 20620 -9280zm27090 -12140l44980 -20240 -48640 -8260 3660 28500zm86980 104270l-10620 122960 -32330 -2790 3560 -41290 -98470 -8500 3480 -40370 98480 8490 3560 -41290 32340 2790zm-155650 235790l13950 -43800 -18610 -12860 12580 -39450 110100 86930 -13500 42340 -140040 7010 12900 -40480 22620 310zm29680 450l49320 670 -40590 -28040 -8730 27370zm25310 154880l-21230 34530 -84350 -51880 -33240 54050 -27490 -16910 54470 -88560 111840 68770zm-1456070 31010l-20230 -32850c5110,-3660 8510,-7410 10170,-11200 2700,-6180 2240,-12690 -1410,-19540 -2710,-5100 -6000,-8410 -9870,-9880 -3880,-1500 -7380,-1400 -10540,290 -3000,1590 -5000,4320 -5980,8200 -980,3880 50,11160 3020,21860 4850,17570 6100,31240 3810,41050 -2230,9850 -7880,17190 -16950,22010 -5930,3160 -12460,4420 -19580,3780 -7160,-620 -14070,-3580 -20790,-8910 -6710,-5330 -13270,-14010 -19700,-26070 -7880,-14810 -11140,-27550 -9740,-38270 1360,-10700 7670,-19980 18920,-27870l19920 32610c-4790,3680 -7610,7610 -8460,11730 -870,4170 60,8770 2750,13810 2210,4150 4780,6840 7650,8010 2880,1170 5590,1070 8130,-280 1830,-980 3020,-2710 3600,-5200 660,-2470 -60,-7210 -2100,-14220 -4960,-17450 -7500,-30460 -7640,-39050 -150,-8600 1480,-15810 4970,-21610 3460,-5800 8360,-10380 14700,-13760 7410,-3950 15360,-5550 23830,-4790 8460,790 16280,3970 23450,9630 7160,5650 13720,14060 19700,25280 10480,19700 13950,35370 10410,46990 -3550,11620 -10890,21040 -22040,28250zm-167370 -143550l-17490 -65170c-3810,-14200 -3300,-25730 1560,-34630 4870,-8870 13540,-15000 26030,-18350 12800,-3440 23880,-2260 33150,3510 9300,5760 16060,16580 20310,32400l5770 21490 46930 -12600 10550 39320 -126810 34030zm43650 -53860l-2600 -9660c-2040,-7610 -4800,-12590 -8250,-14960 -3450,-2360 -7230,-3000 -11340,-1900 -3980,1070 -6990,3300 -9040,6730 -2060,3410 -2110,8800 -120,16180l3000 11210 28350 -7600zm-20500 -138390c-21410,960 -38340,-4250 -50790,-15650 -12470,-11410 -19170,-27740 -20120,-49060 -980,-21830 4130,-38910 15290,-51250 11200,-12340 27360,-18970 48460,-19920 15330,-690 27990,1320 38020,6030 10030,4730 18000,11870 23910,21360 5890,9530 9160,21550 9810,36120 660,14780 -1140,27130 -5410,37040 -4300,9900 -11400,18110 -21320,24580 -9900,6470 -22530,10060 -37850,10750zm-1730 -40490c13220,-590 22640,-3490 28190,-8660 5550,-5210 8140,-12060 7770,-20550 -400,-8700 -3540,-15340 -9400,-19860 -5890,-4540 -16140,-6460 -30820,-5810 -12330,550 -21230,3470 -26690,8690 -5480,5270 -8020,12140 -7630,20690 360,8190 3560,14650 9550,19340 5990,4720 15690,6760 29030,6160zm69500 -157770l-128050 -29020 14940 -65930c2770,-12220 5940,-21340 9510,-27300 3550,-6000 8640,-10330 15200,-13010 6600,-2670 13980,-3070 22150,-1220 7100,1610 12890,4530 17360,8730 4500,4190 7730,9310 9740,15370 1260,3830 1910,8870 1920,15040 2650,-4350 4980,-7430 7040,-9210 1370,-1200 4110,-2800 8170,-4790 4050,-1970 7120,-3220 9210,-3720l41340 -10840 -10130 44710 -43840 12280c-5670,1540 -9490,3180 -11480,4920 -2620,2420 -4340,5440 -5160,9050l-790 3490 51870 11750 -9000 39700zm-67010 -56920l3790 -16730c400,-1780 600,-5440 620,-10880 90,-2740 -770,-5190 -2580,-7330 -1790,-2160 -4080,-3550 -6880,-4190 -4140,-940 -7630,-350 -10430,1770 -2830,2120 -5040,6790 -6680,14030l-3950 17410 26110 5920zm-10410 -162000l52440 -111720 29380 13790 -17610 37520 89470 42010 -17220 36680 -89480 -42010 -17610 37520 -29370 -13790zm326200 -304570l34120 -14700c4600,9160 7090,17960 7430,26390 380,8420 -1240,16380 -4900,23890 -3640,7500 -9950,15050 -18950,22620 -10950,9210 -21190,15120 -30800,17810 -9600,2640 -20260,2070 -32000,-1680 -11740,-3740 -22880,-11860 -33350,-24300 -13970,-16600 -20300,-33090 -18970,-49460 1360,-16370 10120,-31360 26300,-44980 12650,-10640 24750,-16480 36310,-17460 11540,-950 23550,2360 35990,10020l-22260 29080c-3520,-2230 -6390,-3610 -8620,-4130 -3750,-880 -7410,-910 -10970,-80 -3610,850 -6950,2570 -10060,5190 -7060,5940 -10080,13320 -9080,22110 690,6560 4810,14360 12350,23320 9370,11130 17450,17310 24320,18590 6850,1260 13340,-670 19460,-5830 5940,-5000 9030,-10430 9260,-16330 250,-5880 -1630,-12570 -5580,-20070zm51210 -129730l36160 -18300 44710 88360 56610 -28650 14570 28800 -92770 46940 -59280 -117150zm256710 -93340l39390 -9510 18340 76030c1820,7520 2350,14930 1620,22180 -730,7290 -3000,14030 -6810,20260 -3810,6230 -8220,11010 -13230,14380 -6980,4670 -15840,8320 -26570,10910 -6210,1500 -13090,2690 -20640,3590 -7540,920 -14110,680 -19670,-720 -5550,-1390 -10950,-3960 -16160,-7730 -5250,-3760 -9230,-7990 -11970,-12680 -4390,-7520 -7340,-14420 -8850,-20690l-18340 -76020 39390 -9510 18780 77840c1680,6950 4920,11930 9690,14890 4810,2990 10630,3670 17470,2010 6740,-1620 11590,-4840 14520,-9630 2910,-4760 3520,-10690 1820,-17760l-18780 -77840zm136370 -20040l76000 1610c12650,260 22300,3610 28950,10020 6650,6410 9880,14240 9680,23500 -170,7760 -2720,14370 -7690,19800 -3290,3660 -8090,6460 -14340,8500 9390,2460 16220,6490 20560,12120 4320,5620 6400,12600 6220,20940 -140,6820 -1850,12890 -5120,18270 -3290,5370 -7720,9550 -13260,12620 -3460,1880 -8620,3210 -15520,3950 -9160,1000 -15220,1480 -18220,1420l-70030 -1480 2770 -131270zm39800 52380l17690 370c6330,140 10780,-870 13300,-2980 2520,-2160 3840,-5280 3930,-9400 80,-3820 -1110,-6840 -3540,-9030 -2430,-2220 -6750,-3390 -12890,-3510l-17970 -380 -520 24930zm-1090 51510l20680 440c7000,150 11950,-1000 14870,-3410 2930,-2420 4430,-5680 4520,-9870 80,-3880 -1260,-7030 -4050,-9440 -2790,-2410 -7740,-3710 -14860,-3860l-20600 -440 -560 26580zm-115310 1496380l-35290 128740 -35550 -9740 23090 -84240c-6940,2790 -13470,4770 -19610,5970 -6120,1200 -13580,1940 -22360,2170l7860 -28650c13030,-610 23620,-2720 31710,-6330 8130,-3630 15160,-8930 21090,-15890l29060 7970zm6790 110260l36550 -1720c560,5070 1900,8760 3990,10980 2130,2250 4820,3500 8080,3750 5850,450 10620,-2120 14370,-7750 2710,-4170 5220,-13200 7490,-27130 -4710,4140 -9410,7060 -14170,8770 -4730,1750 -10110,2380 -16150,1910 -11730,-900 -21310,-5840 -28740,-14780 -7440,-8980 -10640,-19830 -9660,-32570 680,-8680 3330,-16450 8000,-23290 4660,-6820 10750,-11800 18220,-14900 7480,-3100 16670,-4230 27580,-3390 13100,1020 23410,4080 30980,9170 7580,5120 13360,12750 17330,22890 3970,10150 5350,23250 4110,39340 -1830,23620 -8130,40510 -18950,50740 -10780,10200 -24980,14620 -42620,13260 -10420,-810 -18530,-2630 -24380,-5500 -5810,-2880 -10540,-6790 -14170,-11710 -3640,-4940 -6270,-10960 -7860,-18070zm71550 -53240c550,-7100 -820,-12780 -4070,-17080 -3260,-4300 -7460,-6650 -12580,-7040 -4840,-380 -8980,1140 -12460,4520 -3480,3380 -5480,8710 -6050,15990 -560,7320 650,13050 3670,17180 3000,4120 6990,6390 11930,6770 5110,400 9530,-1160 13230,-4640 3670,-3490 5790,-8720 6330,-15700zm124850 -45380l2640 133470 -36850 730 -1730 -87330c-5870,4640 -11570,8390 -17110,11290 -5530,2880 -12480,5710 -20830,8410l-590 -29700c12330,-4280 21890,-9300 28620,-15050 6760,-5790 12010,-12870 15720,-21220l30130 -600zm26000 -3890l84270 -19760 6660 28380 -57070 13390 1450 19850c3500,-2770 7060,-5090 10720,-6920 3650,-1820 7350,-3190 11120,-4080 12770,-2990 24060,-1560 33820,4310 9750,5840 16020,14640 18780,26390 1930,8240 1730,16640 -560,25220 -2310,8580 -6750,15740 -13340,21520 -6590,5780 -15760,10040 -27480,12790 -8420,1970 -15840,2870 -22230,2670 -6380,-170 -12060,-1380 -17000,-3550 -4970,-2190 -9200,-4960 -12760,-8370 -3560,-3400 -6910,-7890 -10070,-13490l34960 -12340c2220,5560 5300,9490 9200,11740 3910,2260 8070,2850 12470,1820 4970,-1170 8610,-3990 10940,-8500 2360,-4510 2660,-10480 920,-17920 -1790,-7620 -4730,-12790 -8810,-15570 -4070,-2790 -8830,-3560 -14220,-2290 -3420,800 -6560,2420 -9340,4860 -2100,1780 -4200,4590 -6270,8470l-31290 2720 -4870 -71340zm8690 -51800l-10 -230c14110,-2180 28070,-4830 41890,-7840 149480,-33590 287530,-116340 387960,-241310l1560 950c44770,-55120 81250,-117240 107520,-184470l-2370 -1300c121580,-313230 100,-676910 -299920,-850120 -175370,-101250 -376580,-117110 -555540,-60520 -278910,89630 -480790,351110 -480790,659810 0,346430 254220,633470 586280,684800l-30 1370c71350,10760 143360,10160 213450,-1140zm87540 -1658590c455190,90320 798370,491840 798370,973560 0,478110 -338040,877190 -788150,971450 -231920,49710 -482330,16970 -703930,-110980 -417180,-240850 -593320,-738800 -443950,-1178170 800,360 1610,700 2420,1050 42100,-125120 108430,-239100 193450,-336330l-1610 -1200c112760,-128690 254560,-223010 409540,-278770l690 -240c4370,-1570 8760,-3120 13160,-4630 42590,-14790 86480,-26810 131480,-35740l50 390c126830,-24940 258830,-25290 388330,970l150 -1360zm-81750 1921870l-10 -430c28810,-3390 57220,-8080 85190,-13970 4740,-1020 9470,-2050 14190,-3140l1550 -350c213740,-49850 409950,-172890 548070,-358220l1710 1040c44980,-59790 83080,-125040 113170,-194570l-2390 -1310c188850,-438450 23700,-958600 -399880,-1203150 -244420,-141110 -525290,-161830 -773980,-80550l-660 210c-3990,1310 -7950,2680 -11920,4040 -373700,129410 -642060,484370 -642060,902090 0,489100 367890,892200 842020,947880l-30 1360c75250,8630 150780,8200 225030,-930z"/>
  <path class="fil1" d="M727310 66910c14660,16030 29320,32070 43980,48100 21300,-4280 42600,-8570 63900,-12870 -10720,18910 -21440,37810 -32160,56700 10660,18930 21320,37870 31980,56800 -21280,-4350 -42570,-8710 -63860,-13070 -14710,15990 -29420,31980 -44130,47970 -2440,-21600 -4870,-43180 -7300,-64780 -19760,-9040 -39510,-18090 -59270,-27150 19790,-8990 39570,-17970 59350,-26960 2500,-21580 5010,-43160 7510,-64740zm266940 -66910l30200 66180 72260 8260 -53600 49170 14470 71280 -63330 -35790 -63320 35790 14470 -71280 -53600 -49170 72260 -8260 30190 -66180zm266940 66910c-14660,16030 -29320,32070 -43980,48100 -21300,-4280 -42600,-8570 -63890,-12870 10720,18910 21440,37810 32160,56700 -10660,18930 -21320,37870 -31980,56800 21280,-4350 42570,-8710 63850,-13070 14710,15990 29430,31980 44140,47970 2430,-21600 4870,-43180 7300,-64780 19750,-9040 39500,-18090 59260,-27150 -19790,-8990 -39570,-17970 -59340,-26960 -2510,-21580 -5010,-43160 -7520,-64740zm347550 239540l-37140 18070 -34640 -22500 5710 40910 -32090 25980 40660 7210 14800 38560 19420 -36450 41240 -2160 -28660 -29730 10700 -39890zm-143900 -124210c-13490,11040 -26990,22090 -40470,33140 -16420,-5860 -32840,-11720 -49260,-17580 6330,16240 12660,32480 19000,48730 -10640,13800 -21300,27610 -31940,41420 17400,-1010 34810,-2010 52220,-3020 9830,14390 19680,28790 29520,43180 4420,-16870 8840,-33730 13260,-50600 16730,-4910 33460,-9820 50190,-14730 -14680,-9420 -29350,-18840 -44020,-28250 500,-17430 1000,-34860 1500,-52290zm-1085070 124210l37140 18070 34630 -22500 -5710 40910 32100 25980 -40660 7210 -14800 38560 -19420 -36450 -41240 -2160 28650 -29730 -10690 -39890zm143900 -124210c13490,11040 26980,22090 40470,33140 16420,-5860 32840,-11720 49260,-17580 -6330,16240 -12670,32480 -19010,48730 10650,13800 21300,27610 31950,41420 -17400,-1010 -34810,-2010 -52220,-3020 -9840,14390 -19680,28790 -29520,43180 -4420,-16870 -8840,-33730 -13270,-50600 -16720,-4910 -33450,-9820 -50180,-14730 14670,-9420 29350,-18840 44010,-28250 -490,-17430 -990,-34860 -1490,-52290z"/>
 </g>
</svg>
