<?xml version="1.0" encoding="UTF-8"?>
<!DOCTYPE svg PUBLIC "-//W3C//DTD SVG 1.1//EN" "http://www.w3.org/Graphics/SVG/1.1/DTD/svg11.dtd">
<!-- Creator: CorelDRAW -->
<svg xmlns="http://www.w3.org/2000/svg" xml:space="preserve" width="156px" height="212px" version="1.1" style="shape-rendering:geometricPrecision; text-rendering:geometricPrecision; image-rendering:optimizeQuality; fill-rule:evenodd; clip-rule:evenodd"
viewBox="0 0 9870 13470"
 xmlns:xlink="http://www.w3.org/1999/xlink"
 xmlns:xodm="http://www.corel.com/coreldraw/odm/2003">
 <defs>
  <style type="text/css">
   <![CDATA[
    .fil1 {fill:black}
    .fil2 {fill:#DA2419}
    .fil3 {fill:#FFCC00}
    .fil0 {fill:white}
   ]]>
  </style>
 </defs>
 <g id="Camada_x0020_1">
  <metadata id="CorelCorpID_0Corel-Layer"/>
  <g id="_2869927252080">
   <g>
    <path class="fil0" d="M850 4080c-40,-20 -80,-50 -120,-80 -90,-80 -160,-180 -210,-290 -100,-240 -100,-490 -10,-720 -30,-150 -20,-250 20,-410l230 -890 1210 1210c390,-300 820,-530 1280,-700l10 0c20,-10 40,-20 60,-20 220,-80 430,-140 660,-180l370 -80c120,-250 400,-410 700,-360 210,30 390,180 470,360l380 80c580,110 1130,330 1620,640 70,-90 140,-180 190,-270l240 -400 420 180c570,240 990,670 1230,1240l180 420 -400 230c-80,60 -170,120 -260,190 490,780 750,1680 750,2600 0,1080 -360,2120 -1010,2980l50 50 0 210c10,330 -190,580 -480,670 -30,400 -190,860 -390,1200l-700 1180 -140 -730c-620,450 -1420,820 -2110,1030l-150 50 -150 -50c-700,-210 -1490,-580 -2110,-1030l-140 730 -710 -1180c-190,-340 -350,-790 -380,-1200 -290,-80 -490,-330 -490,-650l0 -230 50 -40c-990,-1300 -1280,-3010 -750,-4570l180 -540 40 20c110,-230 230,-440 370,-650zm6270 1470l-370 370c0,0 0,0 10,0 50,0 100,-10 150,-10 150,-10 290,20 410,60 -50,-150 -120,-290 -200,-420zm-4370 -20c-90,140 -160,290 -210,450 120,-50 270,-80 420,-70 60,0 110,10 160,10 0,0 10,0 10,-10l-380 -380z"/>
   </g>
   <path class="fil1" d="M8550 9830l130 130 0 110c10,270 -180,450 -440,470l-40 10 0 70c0,380 -160,870 -360,1200l-390 660 -100 -520c-640,580 -1610,1020 -2330,1240l-80 20 -90 -20c-720,-220 -1680,-660 -2320,-1240l-100 520 -390 -660c-200,-330 -360,-820 -360,-1200l0 -70 -40 -10c-260,-10 -440,-190 -450,-460l0 -120 130 -130c-1020,-1220 -1370,-2930 -840,-4500l100 -300 20 10c160,-380 360,-730 610,-1050l-20 -10 150 -180 0 0c-110,140 -320,140 -460,20 -60,-60 -110,-130 -150,-210 -80,-190 -70,-410 20,-600 -30,-140 -40,-210 10,-370l120 -500 1070 1070c410,-340 880,-600 1380,-790l10 0c20,-10 40,-20 60,-20 200,-70 410,-130 620,-170l320 -60 0 10c60,-10 130,-20 190,-20 20,-240 240,-410 480,-370 180,30 320,180 340,370 60,10 130,10 200,20l0 -10 310 60c630,120 1210,370 1710,710 120,-140 260,-310 340,-450l130 -220 240 100c510,210 890,600 1110,1110l100 230 -220 130c-150,90 -310,220 -460,340 520,760 820,1680 820,2650 0,1130 -400,2180 -1080,3000zm-2580 -420c10,0 10,0 10,0l0 0 -10 0zm630 -350c0,0 0,0 0,-10l0 0c0,0 0,10 0,10zm590 -600l40 -60c80,-100 140,-210 200,-330l90 -230c70,-180 120,-370 150,-560 -70,200 -200,370 -340,550 -120,150 -230,290 -330,440l190 190zm520 -1700c-20,-550 -200,-1080 -510,-1530 -50,20 -100,40 -150,60l-590 590c60,90 120,200 160,310 100,-30 200,-40 300,-50 410,-10 660,220 780,600l10 20zm-2250 -2660c-30,0 -60,-10 -90,-10l0 10 90 0zm-950 -20c-40,10 -80,20 -120,20l120 0c0,0 0,-10 0,-20zm-1800 1090c-350,460 -550,1040 -550,1640 0,-10 0,-20 0,-30l10 -20 0 -20c120,-380 380,-610 780,-600 100,10 210,20 310,50 40,-110 90,-220 160,-320l-710 -700zm-520 2070c70,450 240,870 500,1230l190 -190c-110,-160 -220,-300 -340,-450 -150,-200 -290,-380 -350,-590zm1080 1820c0,0 10,0 10,0 0,0 0,0 -10,-10l0 10zm620 350c10,0 10,0 10,0l0 0 -10 0zm1980 -4110l300 -300c-20,10 -30,10 -40,10 -80,0 -160,-20 -230,-60 -160,70 -320,120 -490,150 170,40 320,110 460,200zm-240 3190c-50,20 -90,40 -140,50l10 350c30,-140 80,-270 130,-400zm-1250 420l10 -370c-50,-10 -100,-30 -150,-50 60,140 100,280 140,420zm-360 -3620c140,-90 290,-150 450,-190 -170,-30 -330,-80 -490,-150 -70,40 -150,60 -230,60 -10,0 -10,0 -10,0l280 280z"/>
   <path class="fil2" d="M5730 2770l0 0c1910,370 3350,2050 3350,4060 0,1970 -1380,3620 -3220,4040 0,0 0,0 -10,0 -20,0 -30,10 -50,10 -970,210 -2020,80 -2950,-460 -1740,-1010 -2470,-3090 -1840,-4930l0 0 10 0 0 0c170,-510 440,-970 790,-1370l0 0 -10 0c490,-570 1110,-970 1790,-1210 180,-60 370,-110 560,-140l0 0 0 0c510,-100 1050,-100 1580,0zm-540 2580c600,100 1080,550 1220,1140 -80,30 -160,50 -240,80 0,-10 0,-10 0,-10 30,-90 -60,-190 -160,-180 -140,-340 -440,-600 -810,-680l-10 -350zm-680 1150c220,50 590,50 860,0 40,-10 70,40 70,80l0 380c0,50 -30,100 -70,80 -230,-80 -710,-60 -860,0 -40,20 -80,-30 -80,-80l0 -380c0,-40 40,-90 80,-80zm-590 330l110 0c10,20 10,30 20,40 10,10 30,20 50,20 20,0 30,0 40,-10 10,-10 20,-20 20,-30 0,-10 -10,-20 -20,-20 -10,-10 -30,-20 -60,-30 -50,-10 -90,-20 -110,-40 -20,-20 -40,-50 -40,-80 0,-20 10,-40 20,-60 10,-10 30,-30 50,-40 30,-10 60,-10 100,-10 50,0 90,10 110,20 30,20 50,50 50,90l-110 10c-10,-20 -10,-30 -20,-40 -10,-10 -20,-10 -40,-10 -20,0 -30,0 -30,10 -10,0 -10,10 -10,20 0,10 0,10 0,20 10,0 20,10 50,10 50,10 90,20 110,30 20,20 40,30 50,50 10,20 10,30 10,60 0,20 0,40 -20,70 -10,20 -30,30 -60,40 -20,10 -50,20 -90,20 -70,0 -110,-10 -140,-40 -20,-20 -40,-60 -40,-100zm1110 -30l110 40c-10,20 -20,50 -40,70 -10,20 -30,30 -50,40 -30,10 -60,20 -90,20 -40,0 -80,-10 -110,-20 -20,-10 -50,-30 -60,-60 -20,-30 -30,-70 -30,-120 0,-70 10,-120 50,-150 30,-40 80,-50 140,-50 50,0 90,10 120,30 30,20 50,50 60,90l-100 20c-10,-10 -10,-20 -20,-20 0,-10 -10,-20 -20,-30 -10,0 -20,0 -30,0 -30,0 -50,10 -70,30 -10,20 -10,40 -10,80 0,40 0,70 20,90 10,10 30,20 50,20 30,0 40,-10 50,-20 20,-10 30,-30 30,-60zm550 -230l110 0 140 220 0 -220 120 0 0 390 -120 0 -140 -210 0 210 -110 0 0 -390zm-120 -10l560 -120c50,-10 110,50 90,100 -30,160 -40,320 0,490 20,60 -50,140 -100,110 -170,-120 -360,-150 -540,-140 0,0 0,0 0,-10l0 -410c0,0 0,-10 -10,-20zm680 520c280,-60 410,-220 760,-200 310,30 430,160 370,390 -10,-210 -130,-320 -360,-340l0 0c10,110 -90,230 -220,400 -100,130 -250,320 -410,560l380 370c160,-260 340,-480 440,-610 220,-280 380,-490 320,-820 -190,-630 -690,-370 -1290,-190 -20,130 -10,260 20,380 0,20 0,40 -10,60zm-50 1120c-170,310 -320,670 -360,1040l340 -360 180 420c20,-240 110,-490 230,-720l-390 -380zm-670 -1130c190,50 380,90 570,80 0,0 10,0 10,0 -170,-100 -350,-140 -540,-130 -10,20 -20,40 -40,50zm-1000 -510l-550 -120c-60,-10 -120,50 -100,100 40,160 40,320 0,490 -20,60 60,140 100,110 170,-120 360,-150 550,-140 0,0 0,0 0,-10l0 -410c0,0 0,-10 0,-20zm-690 520c-280,-60 -410,-220 -760,-200 -310,30 -430,160 -370,390 10,-210 130,-320 360,-340 -10,110 90,230 220,400 100,130 260,330 420,570l-380 370c-170,-270 -340,-490 -450,-620 -220,-280 -380,-490 -320,-820 190,-630 690,-370 1290,-190 20,130 20,260 -10,380 -10,20 -10,40 0,60zm60 1120c170,320 310,670 350,1040l-340 -360 -180 420c-20,-240 -110,-490 -220,-710l390 -390zm670 -1130c-190,50 -380,90 -570,80 0,0 0,0 -10,0 170,-100 350,-140 540,-130 10,20 20,40 40,50zm220 -1370c-370,80 -670,340 -820,680 -90,0 -170,90 -150,180 0,0 0,10 0,10 -80,-30 -160,-50 -240,-80 140,-590 620,-1040 1220,-1140l-10 350zm1750 1350c-90,620 -560,1120 -1170,1250l0 -350c360,-100 660,-380 780,-740 40,-10 80,-30 100,-70l20 0c90,-20 180,-60 270,-90zm-1820 1250c-600,-130 -1070,-630 -1160,-1250 90,40 170,70 270,90l20 10c20,20 60,40 90,50 130,360 420,650 790,750l-10 350zm180 -3900l-850 0c-40,-70 -110,-120 -190,-120 -120,0 -220,100 -220,220 0,120 100,210 220,210 80,0 150,-40 190,-110 180,110 460,220 830,240l-40 1580 -460 -470c-70,50 -130,110 -180,180l330 340c30,-20 70,-40 100,-30 90,20 190,40 280,40 100,10 200,0 300,0 10,0 20,0 30,0l0 0 20 -10 0 0c70,0 140,-10 200,-30 40,-10 80,10 100,30l340 -340c-50,-60 -110,-120 -170,-170l-470 480 -50 -1600c380,-20 660,-130 840,-240 40,70 110,110 190,110 120,0 220,-90 220,-210 0,-120 -100,-220 -220,-220 -80,0 -150,50 -190,120l-860 0 0 -510c-90,-10 -190,-10 -280,0 0,250 0,450 -10,510zm-80 2800l-60 2570c190,20 390,20 580,0l-60 -2570 470 480c70,-50 120,-110 180,-180l-370 -370c-90,-30 -180,-60 -290,-80l0 0 0 0c-50,0 -100,-10 -150,-10l0 0c-20,0 -30,0 -40,0 -20,0 -60,0 -100,0 -220,10 -300,40 -430,90l-370 380c50,60 100,120 160,170l480 -480zm-100 4150c-30,230 -240,410 -480,370 -740,-100 -1290,-340 -1620,-520l270 -60c-380,-130 -810,-520 -810,-520 0,500 320,1050 320,1050l60 -330c690,1000 2590,1580 2590,1580 0,0 1900,-580 2590,-1580l60 330c0,0 320,-550 320,-1050 0,0 -430,390 -810,520l260 60c-320,180 -870,420 -1610,520 -240,40 -460,-140 -480,-380 -220,20 -440,20 -660,10zm450 -9040l0 -120c0,-50 -40,-110 -100,-120 -70,-10 -140,50 -140,120 0,20 0,60 0,120 80,0 160,0 240,0zm-3400 7940c-120,-10 -180,-70 -180,-170l160 -160c50,60 110,120 170,180l-150 150zm6730 -170c0,100 -50,160 -180,170l-150 -150c60,-60 120,-110 180,-170l150 150zm-1440 -1090l-980 -980c60,-50 120,-110 180,-180l980 980c-60,60 -120,120 -180,180zm-3190 -3190l-980 -980c60,-60 120,-120 180,-180l980 980c-60,60 -130,120 -180,180zm-2100 -2090l-410 -410c-50,50 -120,230 -130,310 -30,50 -270,-190 -80,-510 40,-150 -60,-150 0,-390l810 810c-60,70 -130,130 -190,190zm1090 5100l990 -970c50,60 100,120 170,170l-990 980c-50,-60 -110,-120 -170,-180zm3200 -3180l770 -770c40,-100 80,-200 110,-290 130,110 250,230 360,360 -90,30 -190,70 -300,110l-770 760c-50,-60 -110,-110 -170,-170zm1750 -2380c240,-300 400,-500 470,-610 440,180 760,510 950,950 -120,70 -320,220 -610,470 -230,-310 -510,-580 -810,-810zm-950 70l230 140c40,20 70,50 100,80 20,30 30,60 30,100 10,30 0,60 -10,100 -10,40 -20,70 -40,100 -40,60 -70,90 -100,120 -30,20 -60,30 -90,40 -40,10 -70,0 -100,0 -40,-20 -70,-30 -100,-50l-220 -140 300 -490zm80 200l-160 280 40 20c30,20 50,30 70,30 20,0 40,-10 60,-20 10,-10 40,-40 60,-80 30,-50 50,-90 40,-120 -10,-30 -30,-60 -70,-80l-40 -30zm680 310l350 340 -90 90 -210 -210 -70 60 200 200 -80 80 -200 -190 -80 80 220 220 -90 90 -350 -340 400 -420zm980 1280l60 160 -220 320 300 -120 70 160 -540 220 -70 -160 220 -320 -300 120 -60 -160 540 -220zm-130 1350l-30 -210 -90 -10 -30 -190 610 150 20 190 -550 290 -20 -180 90 -40zm120 -60l200 -90 -220 -30 20 120zm390 460l-50 550 -140 -10 10 -190 -440 -30 20 -180 440 30 10 -180 150 10zm-690 1050l60 -190 -80 -60 50 -180 490 390 -60 190 -620 30 60 -180 100 0zm130 0l220 0 -180 -120 -40 120zm110 690l-90 150 -380 -230 -150 240 -120 -70 240 -400 500 310zm-6460 140l-90 -150c30,-20 40,-30 50,-50 10,-30 10,-60 -10,-90 -10,-20 -20,-30 -40,-40 -20,-10 -30,-10 -50,0 -10,10 -20,20 -30,40 0,10 10,50 20,90 20,80 30,140 20,190 -10,40 -40,70 -80,90 -30,20 -60,20 -90,20 -30,0 -60,-20 -90,-40 -30,-20 -60,-60 -90,-110 -30,-70 -50,-130 -40,-170 10,-50 30,-90 80,-130l90 150c-20,10 -30,30 -30,50 -10,20 0,40 10,60 10,20 20,30 30,40 10,0 30,0 40,-10 10,0 10,-10 10,-20 10,-10 0,-30 -10,-60 -20,-80 -30,-140 -30,-170 0,-40 10,-70 20,-100 20,-30 40,-50 70,-60 30,-20 70,-30 100,-20 40,0 80,10 110,40 30,30 60,60 80,110 50,90 70,160 50,210 -20,50 -50,90 -100,130zm-740 -640l-80 -290c-10,-60 -10,-110 10,-150 20,-40 60,-70 120,-80 50,-20 100,-10 140,10 40,30 70,70 90,140l30 100 210 -60 40 180 -560 150zm190 -240l-10 -40c-10,-40 -20,-60 -30,-70 -20,-10 -40,-10 -50,-10 -20,10 -40,20 -40,30 -10,20 -10,40 0,70l10 50 120 -30zm-90 -610c-90,0 -170,-20 -220,-70 -60,-50 -90,-130 -90,-220 -10,-100 20,-170 70,-230 50,-50 120,-80 210,-90 70,0 130,10 170,30 40,20 80,50 110,100 20,40 40,90 40,160 0,60 -10,120 -20,160 -20,40 -50,80 -100,110 -40,30 -100,40 -170,50zm0 -180c50,-10 100,-20 120,-40 30,-20 40,-50 40,-90 -10,-40 -20,-70 -50,-90 -20,-20 -70,-30 -130,-30 -60,10 -100,20 -120,40 -30,30 -40,60 -40,90 10,40 20,70 50,90 20,20 70,30 130,30zm300 -700l-560 -130 60 -290c10,-60 30,-100 40,-120 20,-30 40,-50 70,-60 30,-10 60,-20 100,-10 30,10 60,20 80,40 20,20 30,40 40,70 10,20 10,40 10,70 10,-20 20,-40 30,-50 10,0 20,-10 40,-20 10,0 30,-10 40,-10l180 -50 -40 200 -200 50c-20,10 -40,20 -50,20 -10,10 -20,30 -20,40l-10 20 230 50 -40 180zm-290 -250l10 -80c10,-10 10,-20 10,-50 0,-10 -10,-20 -20,-30 0,-10 -10,-20 -30,-20 -10,0 -30,0 -40,10 -10,10 -20,30 -30,60l-20 80 120 30zm-50 -720l230 -500 130 60 -70 170 390 190 -70 160 -400 -190 -80 170 -130 -60zm1450 -1350l150 -70c20,40 30,80 30,120 0,40 0,70 -20,100 -20,40 -40,70 -80,100 -50,50 -100,70 -140,80 -40,10 -90,10 -140,0 -60,-20 -100,-60 -150,-110 -60,-80 -90,-150 -90,-220 10,-70 50,-140 120,-200 60,-50 110,-70 160,-80 50,0 110,10 160,50l-100 130c-10,-10 -20,-20 -30,-20 -20,-10 -40,-10 -50,0 -20,0 -30,10 -50,20 -30,30 -40,60 -40,100 0,30 20,60 60,100 40,50 70,80 100,80 30,10 60,0 90,-20 30,-20 40,-50 40,-70 0,-30 -10,-60 -20,-90zm220 -580l160 -80 200 390 250 -130 70 130 -410 210 -270 -520zm1140 -410l180 -50 80 340c10,40 10,70 10,100 -10,30 -20,60 -30,90 -20,30 -40,50 -60,60 -30,20 -70,40 -120,50 -30,10 -60,10 -90,20 -40,0 -70,0 -90,0 -20,-10 -50,-20 -70,-40 -20,-20 -40,-30 -50,-60 -20,-30 -40,-60 -40,-90l-90 -330 180 -50 80 350c10,30 20,50 50,60 20,20 40,20 70,10 30,0 50,-20 70,-40 10,-20 10,-50 10,-80l-90 -340zm610 -90l330 10c60,0 100,10 130,40 30,30 50,60 50,100 -10,40 -20,70 -40,90 -10,20 -30,30 -60,40 40,10 70,30 90,50 20,30 30,60 30,100 0,30 -10,50 -30,80 -10,20 -30,40 -60,50 -10,10 -30,20 -60,20 -40,0 -70,10 -80,10l-320 -10 20 -580zm170 230l80 0c30,0 50,0 60,-10 10,-10 20,-20 20,-40 0,-20 -10,-30 -20,-40 -10,-10 -30,-20 -50,-20l-80 0 -10 110zm0 230l90 0c30,0 50,0 70,-10 10,-20 20,-30 20,-50 0,-20 -10,-30 -20,-40 -10,-10 -40,-20 -70,-20l-90 0 0 120zm-510 6630l-160 580 -160 -50 110 -370c-40,10 -60,20 -90,20 -30,10 -60,10 -100,10l30 -120c60,-10 110,-10 150,-30 30,-20 60,-40 90,-70l130 30zm30 490l160 0c0,20 10,30 20,40 10,10 20,20 30,20 30,0 50,-10 70,-30 10,-20 20,-60 30,-120 -20,10 -40,30 -60,40 -20,0 -50,10 -70,0 -60,0 -100,-20 -130,-60 -30,-40 -50,-90 -40,-150 0,-30 10,-70 30,-100 20,-30 50,-50 80,-70 30,-10 80,-10 120,-10 60,0 110,20 140,40 30,20 60,60 80,100 20,50 20,100 20,180 -10,100 -40,180 -90,220 -50,50 -110,70 -190,60 -40,0 -80,-10 -100,-20 -30,-20 -50,-30 -70,-60 -10,-20 -30,-50 -30,-80zm310 -230c10,-30 0,-60 -10,-80 -20,-20 -40,-30 -60,-30 -20,0 -40,10 -50,20 -20,20 -30,40 -30,70 0,30 0,60 20,80 10,20 30,30 50,30 20,0 40,-10 60,-20 10,-20 20,-40 20,-70zm560 -200l10 590 -160 0 -10 -390c-30,20 -50,40 -80,50 -20,20 -50,30 -90,40l0 -130c50,-20 100,-40 130,-70 30,-20 50,-50 60,-90l140 0zm110 -20l380 -90 30 130 -260 60 10 80c20,-10 30,-20 50,-30 10,0 30,-10 50,-10 50,-20 100,-10 150,10 40,30 70,70 80,120 10,40 10,80 0,110 -10,40 -30,70 -60,100 -30,20 -70,40 -120,60 -40,0 -70,10 -100,10 -30,0 -60,-10 -80,-20 -20,-10 -40,-20 -50,-40 -20,-10 -30,-30 -50,-60l160 -50c10,20 20,40 40,50 10,10 30,10 50,10 20,0 40,-20 50,-40 10,-20 10,-40 10,-80 -10,-30 -30,-50 -40,-70 -20,-10 -40,-10 -70,-10 -10,10 -30,10 -40,30 -10,0 -20,20 -30,30l-130 10 -30 -310zm40 -230l0 0c60,-10 130,-20 190,-40 660,-150 1270,-510 1720,-1070l10 10c190,-250 360,-520 470,-820l-10 -10c540,-1390 0,-3000 -1330,-3770 -780,-450 -1670,-520 -2460,-260 -1240,390 -2130,1550 -2130,2920 0,1540 1120,2810 2600,3040l0 0c310,50 630,50 940,0zm390 -7360c2020,400 3540,2190 3540,4320 0,2120 -1500,3890 -3490,4310 -1030,220 -2140,70 -3130,-490 -1850,-1070 -2630,-3280 -1960,-5230 0,0 0,10 10,10 180,-560 480,-1060 850,-1490l0 -10c500,-570 1130,-990 1810,-1240l10 0c20,0 40,-10 50,-20 190,-60 390,-120 590,-160l0 10c560,-110 1150,-120 1720,0l0 -10zm-360 8530l0 -10c130,-10 250,-30 380,-60 20,0 40,-10 60,-10l10 0c940,-220 1810,-770 2430,-1590l0 0c200,-260 370,-550 510,-860l-20 -10c840,-1940 110,-4250 -1770,-5330 -1080,-630 -2330,-720 -3430,-360l0 0c-20,10 -40,20 -60,20 -1650,570 -2840,2150 -2840,4000 0,2170 1630,3960 3730,4200l0 10c330,40 670,40 1000,0z"/>
   <path class="fil3" d="M3750 300c60,70 130,140 190,210 100,-20 190,-40 290,-60 -50,90 -100,170 -150,250 50,90 100,170 150,260 -100,-20 -190,-40 -290,-60 -60,70 -130,140 -190,210 -10,-90 -20,-190 -40,-290 -80,-40 -170,-80 -260,-120 90,-40 180,-80 260,-120 20,-90 30,-190 40,-280zm1180 -300l140 290 320 40 -240 220 60 310 -280 -150 -280 150 70 -310 -240 -220 320 -40 130 -290zm1190 300c-70,70 -130,140 -200,210 -90,-20 -190,-40 -280,-60 40,90 90,170 140,250 -50,90 -90,170 -140,260 90,-20 190,-40 280,-60 70,70 130,140 200,210 10,-90 20,-190 30,-290 90,-40 170,-80 260,-120 -90,-40 -170,-80 -260,-120 -10,-90 -20,-190 -30,-280zm1540 1060l-170 80 -150 -100 20 180 -140 120 180 30 70 170 80 -160 190 -10 -130 -130 50 -180zm-640 -550c-60,50 -120,100 -180,150 -70,-30 -150,-60 -220,-80 30,70 60,140 80,210 -40,60 -90,130 -140,190 80,-10 160,-10 230,-20 50,70 90,130 140,190 20,-70 30,-140 50,-220 80,-20 150,-40 230,-60 -70,-50 -130,-90 -200,-130 0,-80 10,-150 10,-230zm-4810 550l160 80 160 -100 -30 180 140 120 -180 30 -60 170 -90 -160 -180 -10 120 -130 -40 -180zm640 -550c50,50 110,100 170,150 80,-30 150,-60 220,-80 -30,70 -50,140 -80,210 50,60 90,130 140,190 -80,-10 -150,-10 -230,-20 -40,70 -90,130 -130,190 -20,-70 -40,-140 -60,-220 -80,-20 -150,-40 -220,-60 60,-50 130,-90 190,-130 0,-80 0,-150 0,-230z"/>
  </g>
 </g>
</svg>
